G04 #@! TF.GenerationSoftware,KiCad,Pcbnew,10.0.4*
G04 #@! TF.CreationDate,2026-08-05T12:58:12-04:00*
G04 #@! TF.ProjectId,KiCad Work,4b694361-6420-4576-9f72-6b2e6b696361,rev?*
G04 #@! TF.SameCoordinates,Original*
G04 #@! TF.FileFunction,Legend,Top*
G04 #@! TF.FilePolarity,Positive*
%FSLAX46Y46*%
G04 Gerber Fmt 4.6, Leading zero omitted, Abs format (unit mm)*
G04 Created by KiCad (PCBNEW 10.0.4) date 2026-08-05 12:58:12*
%MOMM*%
%LPD*%
G01*
G04 APERTURE LIST*
G04 Aperture macros list*
%AMRoundRect*
0 Rectangle with rounded corners*
0 $1 Rounding radius*
0 $2 $3 $4 $5 $6 $7 $8 $9 X,Y pos of 4 corners*
0 Add a 4 corners polygon primitive as box body*
4,1,4,$2,$3,$4,$5,$6,$7,$8,$9,$2,$3,0*
0 Add four circle primitives for the rounded corners*
1,1,$1+$1,$2,$3*
1,1,$1+$1,$4,$5*
1,1,$1+$1,$6,$7*
1,1,$1+$1,$8,$9*
0 Add four rect primitives between the rounded corners*
20,1,$1+$1,$2,$3,$4,$5,0*
20,1,$1+$1,$4,$5,$6,$7,0*
20,1,$1+$1,$6,$7,$8,$9,0*
20,1,$1+$1,$8,$9,$2,$3,0*%
G04 Aperture macros list end*
%ADD10C,0.150000*%
%ADD11C,0.101600*%
%ADD12C,0.120000*%
%ADD13C,0.040000*%
%ADD14C,0.127000*%
%ADD15C,0.254000*%
%ADD16C,0.025400*%
%ADD17C,1.700000*%
%ADD18C,4.000000*%
%ADD19C,2.200000*%
%ADD20R,1.700000X1.700000*%
%ADD21O,1.700000X1.700000*%
%ADD22R,3.500000X1.700000*%
%ADD23O,3.600000X1.700000*%
%ADD24O,3.700000X1.700000*%
%ADD25RoundRect,0.250000X0.550000X-0.550000X0.550000X0.550000X-0.550000X0.550000X-0.550000X-0.550000X0*%
%ADD26C,1.600000*%
G04 APERTURE END LIST*
D10*
X154137706Y-146482310D02*
X154280563Y-146529929D01*
X154280563Y-146529929D02*
X154518658Y-146529929D01*
X154518658Y-146529929D02*
X154613896Y-146482310D01*
X154613896Y-146482310D02*
X154661515Y-146434690D01*
X154661515Y-146434690D02*
X154709134Y-146339452D01*
X154709134Y-146339452D02*
X154709134Y-146244214D01*
X154709134Y-146244214D02*
X154661515Y-146148976D01*
X154661515Y-146148976D02*
X154613896Y-146101357D01*
X154613896Y-146101357D02*
X154518658Y-146053738D01*
X154518658Y-146053738D02*
X154328182Y-146006119D01*
X154328182Y-146006119D02*
X154232944Y-145958500D01*
X154232944Y-145958500D02*
X154185325Y-145910881D01*
X154185325Y-145910881D02*
X154137706Y-145815643D01*
X154137706Y-145815643D02*
X154137706Y-145720405D01*
X154137706Y-145720405D02*
X154185325Y-145625167D01*
X154185325Y-145625167D02*
X154232944Y-145577548D01*
X154232944Y-145577548D02*
X154328182Y-145529929D01*
X154328182Y-145529929D02*
X154566277Y-145529929D01*
X154566277Y-145529929D02*
X154709134Y-145577548D01*
X155042468Y-145529929D02*
X155280563Y-146529929D01*
X155280563Y-146529929D02*
X155471039Y-145815643D01*
X155471039Y-145815643D02*
X155661515Y-146529929D01*
X155661515Y-146529929D02*
X155899611Y-145529929D01*
X156804372Y-146529929D02*
X156232944Y-146529929D01*
X156518658Y-146529929D02*
X156518658Y-145529929D01*
X156518658Y-145529929D02*
X156423420Y-145672786D01*
X156423420Y-145672786D02*
X156328182Y-145768024D01*
X156328182Y-145768024D02*
X156232944Y-145815643D01*
X157661515Y-145529929D02*
X157471039Y-145529929D01*
X157471039Y-145529929D02*
X157375801Y-145577548D01*
X157375801Y-145577548D02*
X157328182Y-145625167D01*
X157328182Y-145625167D02*
X157232944Y-145768024D01*
X157232944Y-145768024D02*
X157185325Y-145958500D01*
X157185325Y-145958500D02*
X157185325Y-146339452D01*
X157185325Y-146339452D02*
X157232944Y-146434690D01*
X157232944Y-146434690D02*
X157280563Y-146482310D01*
X157280563Y-146482310D02*
X157375801Y-146529929D01*
X157375801Y-146529929D02*
X157566277Y-146529929D01*
X157566277Y-146529929D02*
X157661515Y-146482310D01*
X157661515Y-146482310D02*
X157709134Y-146434690D01*
X157709134Y-146434690D02*
X157756753Y-146339452D01*
X157756753Y-146339452D02*
X157756753Y-146101357D01*
X157756753Y-146101357D02*
X157709134Y-146006119D01*
X157709134Y-146006119D02*
X157661515Y-145958500D01*
X157661515Y-145958500D02*
X157566277Y-145910881D01*
X157566277Y-145910881D02*
X157375801Y-145910881D01*
X157375801Y-145910881D02*
X157280563Y-145958500D01*
X157280563Y-145958500D02*
X157232944Y-146006119D01*
X157232944Y-146006119D02*
X157185325Y-146101357D01*
X88641619Y-70077815D02*
X89355904Y-70077815D01*
X89355904Y-70077815D02*
X89498761Y-70125434D01*
X89498761Y-70125434D02*
X89594000Y-70220672D01*
X89594000Y-70220672D02*
X89641619Y-70363529D01*
X89641619Y-70363529D02*
X89641619Y-70458767D01*
X89641619Y-69077815D02*
X89641619Y-69649243D01*
X89641619Y-69363529D02*
X88641619Y-69363529D01*
X88641619Y-69363529D02*
X88784476Y-69458767D01*
X88784476Y-69458767D02*
X88879714Y-69554005D01*
X88879714Y-69554005D02*
X88927333Y-69649243D01*
X102358228Y-69289301D02*
X102548704Y-69289301D01*
X102548704Y-69289301D02*
X102643942Y-69336920D01*
X102643942Y-69336920D02*
X102739180Y-69432158D01*
X102739180Y-69432158D02*
X102786799Y-69622634D01*
X102786799Y-69622634D02*
X102786799Y-69955967D01*
X102786799Y-69955967D02*
X102739180Y-70146443D01*
X102739180Y-70146443D02*
X102643942Y-70241682D01*
X102643942Y-70241682D02*
X102548704Y-70289301D01*
X102548704Y-70289301D02*
X102358228Y-70289301D01*
X102358228Y-70289301D02*
X102262990Y-70241682D01*
X102262990Y-70241682D02*
X102167752Y-70146443D01*
X102167752Y-70146443D02*
X102120133Y-69955967D01*
X102120133Y-69955967D02*
X102120133Y-69622634D01*
X102120133Y-69622634D02*
X102167752Y-69432158D01*
X102167752Y-69432158D02*
X102262990Y-69336920D01*
X102262990Y-69336920D02*
X102358228Y-69289301D01*
X103691561Y-70289301D02*
X103215371Y-70289301D01*
X103215371Y-70289301D02*
X103215371Y-69289301D01*
X104024895Y-69765491D02*
X104358228Y-69765491D01*
X104501085Y-70289301D02*
X104024895Y-70289301D01*
X104024895Y-70289301D02*
X104024895Y-69289301D01*
X104024895Y-69289301D02*
X104501085Y-69289301D01*
X104929657Y-70289301D02*
X104929657Y-69289301D01*
X104929657Y-69289301D02*
X105167752Y-69289301D01*
X105167752Y-69289301D02*
X105310609Y-69336920D01*
X105310609Y-69336920D02*
X105405847Y-69432158D01*
X105405847Y-69432158D02*
X105453466Y-69527396D01*
X105453466Y-69527396D02*
X105501085Y-69717872D01*
X105501085Y-69717872D02*
X105501085Y-69860729D01*
X105501085Y-69860729D02*
X105453466Y-70051205D01*
X105453466Y-70051205D02*
X105405847Y-70146443D01*
X105405847Y-70146443D02*
X105310609Y-70241682D01*
X105310609Y-70241682D02*
X105167752Y-70289301D01*
X105167752Y-70289301D02*
X104929657Y-70289301D01*
X106691562Y-70289301D02*
X106691562Y-69289301D01*
X106691562Y-69289301D02*
X107072514Y-69289301D01*
X107072514Y-69289301D02*
X107167752Y-69336920D01*
X107167752Y-69336920D02*
X107215371Y-69384539D01*
X107215371Y-69384539D02*
X107262990Y-69479777D01*
X107262990Y-69479777D02*
X107262990Y-69622634D01*
X107262990Y-69622634D02*
X107215371Y-69717872D01*
X107215371Y-69717872D02*
X107167752Y-69765491D01*
X107167752Y-69765491D02*
X107072514Y-69813110D01*
X107072514Y-69813110D02*
X106691562Y-69813110D01*
X108120133Y-70289301D02*
X108120133Y-69765491D01*
X108120133Y-69765491D02*
X108072514Y-69670253D01*
X108072514Y-69670253D02*
X107977276Y-69622634D01*
X107977276Y-69622634D02*
X107786800Y-69622634D01*
X107786800Y-69622634D02*
X107691562Y-69670253D01*
X108120133Y-70241682D02*
X108024895Y-70289301D01*
X108024895Y-70289301D02*
X107786800Y-70289301D01*
X107786800Y-70289301D02*
X107691562Y-70241682D01*
X107691562Y-70241682D02*
X107643943Y-70146443D01*
X107643943Y-70146443D02*
X107643943Y-70051205D01*
X107643943Y-70051205D02*
X107691562Y-69955967D01*
X107691562Y-69955967D02*
X107786800Y-69908348D01*
X107786800Y-69908348D02*
X108024895Y-69908348D01*
X108024895Y-69908348D02*
X108120133Y-69860729D01*
X108596324Y-69622634D02*
X108596324Y-70289301D01*
X108596324Y-69717872D02*
X108643943Y-69670253D01*
X108643943Y-69670253D02*
X108739181Y-69622634D01*
X108739181Y-69622634D02*
X108882038Y-69622634D01*
X108882038Y-69622634D02*
X108977276Y-69670253D01*
X108977276Y-69670253D02*
X109024895Y-69765491D01*
X109024895Y-69765491D02*
X109024895Y-70289301D01*
X109882038Y-70241682D02*
X109786800Y-70289301D01*
X109786800Y-70289301D02*
X109596324Y-70289301D01*
X109596324Y-70289301D02*
X109501086Y-70241682D01*
X109501086Y-70241682D02*
X109453467Y-70146443D01*
X109453467Y-70146443D02*
X109453467Y-69765491D01*
X109453467Y-69765491D02*
X109501086Y-69670253D01*
X109501086Y-69670253D02*
X109596324Y-69622634D01*
X109596324Y-69622634D02*
X109786800Y-69622634D01*
X109786800Y-69622634D02*
X109882038Y-69670253D01*
X109882038Y-69670253D02*
X109929657Y-69765491D01*
X109929657Y-69765491D02*
X109929657Y-69860729D01*
X109929657Y-69860729D02*
X109453467Y-69955967D01*
X110501086Y-70289301D02*
X110405848Y-70241682D01*
X110405848Y-70241682D02*
X110358229Y-70146443D01*
X110358229Y-70146443D02*
X110358229Y-69289301D01*
X121411678Y-66595910D02*
X121375964Y-66667339D01*
X121375964Y-66667339D02*
X121375964Y-66774481D01*
X121375964Y-66774481D02*
X121411678Y-66881624D01*
X121411678Y-66881624D02*
X121483107Y-66953053D01*
X121483107Y-66953053D02*
X121554535Y-66988767D01*
X121554535Y-66988767D02*
X121697392Y-67024481D01*
X121697392Y-67024481D02*
X121804535Y-67024481D01*
X121804535Y-67024481D02*
X121947392Y-66988767D01*
X121947392Y-66988767D02*
X122018821Y-66953053D01*
X122018821Y-66953053D02*
X122090250Y-66881624D01*
X122090250Y-66881624D02*
X122125964Y-66774481D01*
X122125964Y-66774481D02*
X122125964Y-66703053D01*
X122125964Y-66703053D02*
X122090250Y-66595910D01*
X122090250Y-66595910D02*
X122054535Y-66560196D01*
X122054535Y-66560196D02*
X121804535Y-66560196D01*
X121804535Y-66560196D02*
X121804535Y-66703053D01*
X122125964Y-66238767D02*
X121375964Y-66238767D01*
X121375964Y-66238767D02*
X122125964Y-65810196D01*
X122125964Y-65810196D02*
X121375964Y-65810196D01*
X122125964Y-65453053D02*
X121375964Y-65453053D01*
X121375964Y-65453053D02*
X121375964Y-65274482D01*
X121375964Y-65274482D02*
X121411678Y-65167339D01*
X121411678Y-65167339D02*
X121483107Y-65095910D01*
X121483107Y-65095910D02*
X121554535Y-65060196D01*
X121554535Y-65060196D02*
X121697392Y-65024482D01*
X121697392Y-65024482D02*
X121804535Y-65024482D01*
X121804535Y-65024482D02*
X121947392Y-65060196D01*
X121947392Y-65060196D02*
X122018821Y-65095910D01*
X122018821Y-65095910D02*
X122090250Y-65167339D01*
X122090250Y-65167339D02*
X122125964Y-65274482D01*
X122125964Y-65274482D02*
X122125964Y-65453053D01*
X121375964Y-69564481D02*
X122125964Y-69314481D01*
X122125964Y-69314481D02*
X121375964Y-69064481D01*
X122054535Y-68385910D02*
X122090250Y-68421624D01*
X122090250Y-68421624D02*
X122125964Y-68528767D01*
X122125964Y-68528767D02*
X122125964Y-68600195D01*
X122125964Y-68600195D02*
X122090250Y-68707338D01*
X122090250Y-68707338D02*
X122018821Y-68778767D01*
X122018821Y-68778767D02*
X121947392Y-68814481D01*
X121947392Y-68814481D02*
X121804535Y-68850195D01*
X121804535Y-68850195D02*
X121697392Y-68850195D01*
X121697392Y-68850195D02*
X121554535Y-68814481D01*
X121554535Y-68814481D02*
X121483107Y-68778767D01*
X121483107Y-68778767D02*
X121411678Y-68707338D01*
X121411678Y-68707338D02*
X121375964Y-68600195D01*
X121375964Y-68600195D02*
X121375964Y-68528767D01*
X121375964Y-68528767D02*
X121411678Y-68421624D01*
X121411678Y-68421624D02*
X121447392Y-68385910D01*
X122054535Y-67635910D02*
X122090250Y-67671624D01*
X122090250Y-67671624D02*
X122125964Y-67778767D01*
X122125964Y-67778767D02*
X122125964Y-67850195D01*
X122125964Y-67850195D02*
X122090250Y-67957338D01*
X122090250Y-67957338D02*
X122018821Y-68028767D01*
X122018821Y-68028767D02*
X121947392Y-68064481D01*
X121947392Y-68064481D02*
X121804535Y-68100195D01*
X121804535Y-68100195D02*
X121697392Y-68100195D01*
X121697392Y-68100195D02*
X121554535Y-68064481D01*
X121554535Y-68064481D02*
X121483107Y-68028767D01*
X121483107Y-68028767D02*
X121411678Y-67957338D01*
X121411678Y-67957338D02*
X121375964Y-67850195D01*
X121375964Y-67850195D02*
X121375964Y-67778767D01*
X121375964Y-67778767D02*
X121411678Y-67671624D01*
X121411678Y-67671624D02*
X121447392Y-67635910D01*
X122090250Y-71997338D02*
X122125964Y-71890196D01*
X122125964Y-71890196D02*
X122125964Y-71711624D01*
X122125964Y-71711624D02*
X122090250Y-71640196D01*
X122090250Y-71640196D02*
X122054535Y-71604481D01*
X122054535Y-71604481D02*
X121983107Y-71568767D01*
X121983107Y-71568767D02*
X121911678Y-71568767D01*
X121911678Y-71568767D02*
X121840250Y-71604481D01*
X121840250Y-71604481D02*
X121804535Y-71640196D01*
X121804535Y-71640196D02*
X121768821Y-71711624D01*
X121768821Y-71711624D02*
X121733107Y-71854481D01*
X121733107Y-71854481D02*
X121697392Y-71925910D01*
X121697392Y-71925910D02*
X121661678Y-71961624D01*
X121661678Y-71961624D02*
X121590250Y-71997338D01*
X121590250Y-71997338D02*
X121518821Y-71997338D01*
X121518821Y-71997338D02*
X121447392Y-71961624D01*
X121447392Y-71961624D02*
X121411678Y-71925910D01*
X121411678Y-71925910D02*
X121375964Y-71854481D01*
X121375964Y-71854481D02*
X121375964Y-71675910D01*
X121375964Y-71675910D02*
X121411678Y-71568767D01*
X122054535Y-70818767D02*
X122090250Y-70854481D01*
X122090250Y-70854481D02*
X122125964Y-70961624D01*
X122125964Y-70961624D02*
X122125964Y-71033052D01*
X122125964Y-71033052D02*
X122090250Y-71140195D01*
X122090250Y-71140195D02*
X122018821Y-71211624D01*
X122018821Y-71211624D02*
X121947392Y-71247338D01*
X121947392Y-71247338D02*
X121804535Y-71283052D01*
X121804535Y-71283052D02*
X121697392Y-71283052D01*
X121697392Y-71283052D02*
X121554535Y-71247338D01*
X121554535Y-71247338D02*
X121483107Y-71211624D01*
X121483107Y-71211624D02*
X121411678Y-71140195D01*
X121411678Y-71140195D02*
X121375964Y-71033052D01*
X121375964Y-71033052D02*
X121375964Y-70961624D01*
X121375964Y-70961624D02*
X121411678Y-70854481D01*
X121411678Y-70854481D02*
X121447392Y-70818767D01*
X122125964Y-70140195D02*
X122125964Y-70497338D01*
X122125964Y-70497338D02*
X121375964Y-70497338D01*
X122090250Y-74555195D02*
X122125964Y-74448053D01*
X122125964Y-74448053D02*
X122125964Y-74269481D01*
X122125964Y-74269481D02*
X122090250Y-74198053D01*
X122090250Y-74198053D02*
X122054535Y-74162338D01*
X122054535Y-74162338D02*
X121983107Y-74126624D01*
X121983107Y-74126624D02*
X121911678Y-74126624D01*
X121911678Y-74126624D02*
X121840250Y-74162338D01*
X121840250Y-74162338D02*
X121804535Y-74198053D01*
X121804535Y-74198053D02*
X121768821Y-74269481D01*
X121768821Y-74269481D02*
X121733107Y-74412338D01*
X121733107Y-74412338D02*
X121697392Y-74483767D01*
X121697392Y-74483767D02*
X121661678Y-74519481D01*
X121661678Y-74519481D02*
X121590250Y-74555195D01*
X121590250Y-74555195D02*
X121518821Y-74555195D01*
X121518821Y-74555195D02*
X121447392Y-74519481D01*
X121447392Y-74519481D02*
X121411678Y-74483767D01*
X121411678Y-74483767D02*
X121375964Y-74412338D01*
X121375964Y-74412338D02*
X121375964Y-74233767D01*
X121375964Y-74233767D02*
X121411678Y-74126624D01*
X122125964Y-73805195D02*
X121375964Y-73805195D01*
X121375964Y-73805195D02*
X121375964Y-73626624D01*
X121375964Y-73626624D02*
X121411678Y-73519481D01*
X121411678Y-73519481D02*
X121483107Y-73448052D01*
X121483107Y-73448052D02*
X121554535Y-73412338D01*
X121554535Y-73412338D02*
X121697392Y-73376624D01*
X121697392Y-73376624D02*
X121804535Y-73376624D01*
X121804535Y-73376624D02*
X121947392Y-73412338D01*
X121947392Y-73412338D02*
X122018821Y-73448052D01*
X122018821Y-73448052D02*
X122090250Y-73519481D01*
X122090250Y-73519481D02*
X122125964Y-73626624D01*
X122125964Y-73626624D02*
X122125964Y-73805195D01*
X121911678Y-73090909D02*
X121911678Y-72733767D01*
X122125964Y-73162338D02*
X121375964Y-72912338D01*
X121375964Y-72912338D02*
X122125964Y-72662338D01*
X97463897Y-127432310D02*
X97606754Y-127479929D01*
X97606754Y-127479929D02*
X97844849Y-127479929D01*
X97844849Y-127479929D02*
X97940087Y-127432310D01*
X97940087Y-127432310D02*
X97987706Y-127384690D01*
X97987706Y-127384690D02*
X98035325Y-127289452D01*
X98035325Y-127289452D02*
X98035325Y-127194214D01*
X98035325Y-127194214D02*
X97987706Y-127098976D01*
X97987706Y-127098976D02*
X97940087Y-127051357D01*
X97940087Y-127051357D02*
X97844849Y-127003738D01*
X97844849Y-127003738D02*
X97654373Y-126956119D01*
X97654373Y-126956119D02*
X97559135Y-126908500D01*
X97559135Y-126908500D02*
X97511516Y-126860881D01*
X97511516Y-126860881D02*
X97463897Y-126765643D01*
X97463897Y-126765643D02*
X97463897Y-126670405D01*
X97463897Y-126670405D02*
X97511516Y-126575167D01*
X97511516Y-126575167D02*
X97559135Y-126527548D01*
X97559135Y-126527548D02*
X97654373Y-126479929D01*
X97654373Y-126479929D02*
X97892468Y-126479929D01*
X97892468Y-126479929D02*
X98035325Y-126527548D01*
X98368659Y-126479929D02*
X98606754Y-127479929D01*
X98606754Y-127479929D02*
X98797230Y-126765643D01*
X98797230Y-126765643D02*
X98987706Y-127479929D01*
X98987706Y-127479929D02*
X99225802Y-126479929D01*
X99654373Y-127479929D02*
X99844849Y-127479929D01*
X99844849Y-127479929D02*
X99940087Y-127432310D01*
X99940087Y-127432310D02*
X99987706Y-127384690D01*
X99987706Y-127384690D02*
X100082944Y-127241833D01*
X100082944Y-127241833D02*
X100130563Y-127051357D01*
X100130563Y-127051357D02*
X100130563Y-126670405D01*
X100130563Y-126670405D02*
X100082944Y-126575167D01*
X100082944Y-126575167D02*
X100035325Y-126527548D01*
X100035325Y-126527548D02*
X99940087Y-126479929D01*
X99940087Y-126479929D02*
X99749611Y-126479929D01*
X99749611Y-126479929D02*
X99654373Y-126527548D01*
X99654373Y-126527548D02*
X99606754Y-126575167D01*
X99606754Y-126575167D02*
X99559135Y-126670405D01*
X99559135Y-126670405D02*
X99559135Y-126908500D01*
X99559135Y-126908500D02*
X99606754Y-127003738D01*
X99606754Y-127003738D02*
X99654373Y-127051357D01*
X99654373Y-127051357D02*
X99749611Y-127098976D01*
X99749611Y-127098976D02*
X99940087Y-127098976D01*
X99940087Y-127098976D02*
X100035325Y-127051357D01*
X100035325Y-127051357D02*
X100082944Y-127003738D01*
X100082944Y-127003738D02*
X100130563Y-126908500D01*
X154137706Y-127432310D02*
X154280563Y-127479929D01*
X154280563Y-127479929D02*
X154518658Y-127479929D01*
X154518658Y-127479929D02*
X154613896Y-127432310D01*
X154613896Y-127432310D02*
X154661515Y-127384690D01*
X154661515Y-127384690D02*
X154709134Y-127289452D01*
X154709134Y-127289452D02*
X154709134Y-127194214D01*
X154709134Y-127194214D02*
X154661515Y-127098976D01*
X154661515Y-127098976D02*
X154613896Y-127051357D01*
X154613896Y-127051357D02*
X154518658Y-127003738D01*
X154518658Y-127003738D02*
X154328182Y-126956119D01*
X154328182Y-126956119D02*
X154232944Y-126908500D01*
X154232944Y-126908500D02*
X154185325Y-126860881D01*
X154185325Y-126860881D02*
X154137706Y-126765643D01*
X154137706Y-126765643D02*
X154137706Y-126670405D01*
X154137706Y-126670405D02*
X154185325Y-126575167D01*
X154185325Y-126575167D02*
X154232944Y-126527548D01*
X154232944Y-126527548D02*
X154328182Y-126479929D01*
X154328182Y-126479929D02*
X154566277Y-126479929D01*
X154566277Y-126479929D02*
X154709134Y-126527548D01*
X155042468Y-126479929D02*
X155280563Y-127479929D01*
X155280563Y-127479929D02*
X155471039Y-126765643D01*
X155471039Y-126765643D02*
X155661515Y-127479929D01*
X155661515Y-127479929D02*
X155899611Y-126479929D01*
X156804372Y-127479929D02*
X156232944Y-127479929D01*
X156518658Y-127479929D02*
X156518658Y-126479929D01*
X156518658Y-126479929D02*
X156423420Y-126622786D01*
X156423420Y-126622786D02*
X156328182Y-126718024D01*
X156328182Y-126718024D02*
X156232944Y-126765643D01*
X157185325Y-126575167D02*
X157232944Y-126527548D01*
X157232944Y-126527548D02*
X157328182Y-126479929D01*
X157328182Y-126479929D02*
X157566277Y-126479929D01*
X157566277Y-126479929D02*
X157661515Y-126527548D01*
X157661515Y-126527548D02*
X157709134Y-126575167D01*
X157709134Y-126575167D02*
X157756753Y-126670405D01*
X157756753Y-126670405D02*
X157756753Y-126765643D01*
X157756753Y-126765643D02*
X157709134Y-126908500D01*
X157709134Y-126908500D02*
X157137706Y-127479929D01*
X157137706Y-127479929D02*
X157756753Y-127479929D01*
X97463897Y-89332310D02*
X97606754Y-89379929D01*
X97606754Y-89379929D02*
X97844849Y-89379929D01*
X97844849Y-89379929D02*
X97940087Y-89332310D01*
X97940087Y-89332310D02*
X97987706Y-89284690D01*
X97987706Y-89284690D02*
X98035325Y-89189452D01*
X98035325Y-89189452D02*
X98035325Y-89094214D01*
X98035325Y-89094214D02*
X97987706Y-88998976D01*
X97987706Y-88998976D02*
X97940087Y-88951357D01*
X97940087Y-88951357D02*
X97844849Y-88903738D01*
X97844849Y-88903738D02*
X97654373Y-88856119D01*
X97654373Y-88856119D02*
X97559135Y-88808500D01*
X97559135Y-88808500D02*
X97511516Y-88760881D01*
X97511516Y-88760881D02*
X97463897Y-88665643D01*
X97463897Y-88665643D02*
X97463897Y-88570405D01*
X97463897Y-88570405D02*
X97511516Y-88475167D01*
X97511516Y-88475167D02*
X97559135Y-88427548D01*
X97559135Y-88427548D02*
X97654373Y-88379929D01*
X97654373Y-88379929D02*
X97892468Y-88379929D01*
X97892468Y-88379929D02*
X98035325Y-88427548D01*
X98368659Y-88379929D02*
X98606754Y-89379929D01*
X98606754Y-89379929D02*
X98797230Y-88665643D01*
X98797230Y-88665643D02*
X98987706Y-89379929D01*
X98987706Y-89379929D02*
X99225802Y-88379929D01*
X100130563Y-89379929D02*
X99559135Y-89379929D01*
X99844849Y-89379929D02*
X99844849Y-88379929D01*
X99844849Y-88379929D02*
X99749611Y-88522786D01*
X99749611Y-88522786D02*
X99654373Y-88618024D01*
X99654373Y-88618024D02*
X99559135Y-88665643D01*
X116513897Y-89332310D02*
X116656754Y-89379929D01*
X116656754Y-89379929D02*
X116894849Y-89379929D01*
X116894849Y-89379929D02*
X116990087Y-89332310D01*
X116990087Y-89332310D02*
X117037706Y-89284690D01*
X117037706Y-89284690D02*
X117085325Y-89189452D01*
X117085325Y-89189452D02*
X117085325Y-89094214D01*
X117085325Y-89094214D02*
X117037706Y-88998976D01*
X117037706Y-88998976D02*
X116990087Y-88951357D01*
X116990087Y-88951357D02*
X116894849Y-88903738D01*
X116894849Y-88903738D02*
X116704373Y-88856119D01*
X116704373Y-88856119D02*
X116609135Y-88808500D01*
X116609135Y-88808500D02*
X116561516Y-88760881D01*
X116561516Y-88760881D02*
X116513897Y-88665643D01*
X116513897Y-88665643D02*
X116513897Y-88570405D01*
X116513897Y-88570405D02*
X116561516Y-88475167D01*
X116561516Y-88475167D02*
X116609135Y-88427548D01*
X116609135Y-88427548D02*
X116704373Y-88379929D01*
X116704373Y-88379929D02*
X116942468Y-88379929D01*
X116942468Y-88379929D02*
X117085325Y-88427548D01*
X117418659Y-88379929D02*
X117656754Y-89379929D01*
X117656754Y-89379929D02*
X117847230Y-88665643D01*
X117847230Y-88665643D02*
X118037706Y-89379929D01*
X118037706Y-89379929D02*
X118275802Y-88379929D01*
X118609135Y-88475167D02*
X118656754Y-88427548D01*
X118656754Y-88427548D02*
X118751992Y-88379929D01*
X118751992Y-88379929D02*
X118990087Y-88379929D01*
X118990087Y-88379929D02*
X119085325Y-88427548D01*
X119085325Y-88427548D02*
X119132944Y-88475167D01*
X119132944Y-88475167D02*
X119180563Y-88570405D01*
X119180563Y-88570405D02*
X119180563Y-88665643D01*
X119180563Y-88665643D02*
X119132944Y-88808500D01*
X119132944Y-88808500D02*
X118561516Y-89379929D01*
X118561516Y-89379929D02*
X119180563Y-89379929D01*
X96987706Y-146482310D02*
X97130563Y-146529929D01*
X97130563Y-146529929D02*
X97368658Y-146529929D01*
X97368658Y-146529929D02*
X97463896Y-146482310D01*
X97463896Y-146482310D02*
X97511515Y-146434690D01*
X97511515Y-146434690D02*
X97559134Y-146339452D01*
X97559134Y-146339452D02*
X97559134Y-146244214D01*
X97559134Y-146244214D02*
X97511515Y-146148976D01*
X97511515Y-146148976D02*
X97463896Y-146101357D01*
X97463896Y-146101357D02*
X97368658Y-146053738D01*
X97368658Y-146053738D02*
X97178182Y-146006119D01*
X97178182Y-146006119D02*
X97082944Y-145958500D01*
X97082944Y-145958500D02*
X97035325Y-145910881D01*
X97035325Y-145910881D02*
X96987706Y-145815643D01*
X96987706Y-145815643D02*
X96987706Y-145720405D01*
X96987706Y-145720405D02*
X97035325Y-145625167D01*
X97035325Y-145625167D02*
X97082944Y-145577548D01*
X97082944Y-145577548D02*
X97178182Y-145529929D01*
X97178182Y-145529929D02*
X97416277Y-145529929D01*
X97416277Y-145529929D02*
X97559134Y-145577548D01*
X97892468Y-145529929D02*
X98130563Y-146529929D01*
X98130563Y-146529929D02*
X98321039Y-145815643D01*
X98321039Y-145815643D02*
X98511515Y-146529929D01*
X98511515Y-146529929D02*
X98749611Y-145529929D01*
X99654372Y-146529929D02*
X99082944Y-146529929D01*
X99368658Y-146529929D02*
X99368658Y-145529929D01*
X99368658Y-145529929D02*
X99273420Y-145672786D01*
X99273420Y-145672786D02*
X99178182Y-145768024D01*
X99178182Y-145768024D02*
X99082944Y-145815643D01*
X99987706Y-145529929D02*
X100606753Y-145529929D01*
X100606753Y-145529929D02*
X100273420Y-145910881D01*
X100273420Y-145910881D02*
X100416277Y-145910881D01*
X100416277Y-145910881D02*
X100511515Y-145958500D01*
X100511515Y-145958500D02*
X100559134Y-146006119D01*
X100559134Y-146006119D02*
X100606753Y-146101357D01*
X100606753Y-146101357D02*
X100606753Y-146339452D01*
X100606753Y-146339452D02*
X100559134Y-146434690D01*
X100559134Y-146434690D02*
X100511515Y-146482310D01*
X100511515Y-146482310D02*
X100416277Y-146529929D01*
X100416277Y-146529929D02*
X100130563Y-146529929D01*
X100130563Y-146529929D02*
X100035325Y-146482310D01*
X100035325Y-146482310D02*
X99987706Y-146434690D01*
X154613897Y-108382310D02*
X154756754Y-108429929D01*
X154756754Y-108429929D02*
X154994849Y-108429929D01*
X154994849Y-108429929D02*
X155090087Y-108382310D01*
X155090087Y-108382310D02*
X155137706Y-108334690D01*
X155137706Y-108334690D02*
X155185325Y-108239452D01*
X155185325Y-108239452D02*
X155185325Y-108144214D01*
X155185325Y-108144214D02*
X155137706Y-108048976D01*
X155137706Y-108048976D02*
X155090087Y-108001357D01*
X155090087Y-108001357D02*
X154994849Y-107953738D01*
X154994849Y-107953738D02*
X154804373Y-107906119D01*
X154804373Y-107906119D02*
X154709135Y-107858500D01*
X154709135Y-107858500D02*
X154661516Y-107810881D01*
X154661516Y-107810881D02*
X154613897Y-107715643D01*
X154613897Y-107715643D02*
X154613897Y-107620405D01*
X154613897Y-107620405D02*
X154661516Y-107525167D01*
X154661516Y-107525167D02*
X154709135Y-107477548D01*
X154709135Y-107477548D02*
X154804373Y-107429929D01*
X154804373Y-107429929D02*
X155042468Y-107429929D01*
X155042468Y-107429929D02*
X155185325Y-107477548D01*
X155518659Y-107429929D02*
X155756754Y-108429929D01*
X155756754Y-108429929D02*
X155947230Y-107715643D01*
X155947230Y-107715643D02*
X156137706Y-108429929D01*
X156137706Y-108429929D02*
X156375802Y-107429929D01*
X156899611Y-107858500D02*
X156804373Y-107810881D01*
X156804373Y-107810881D02*
X156756754Y-107763262D01*
X156756754Y-107763262D02*
X156709135Y-107668024D01*
X156709135Y-107668024D02*
X156709135Y-107620405D01*
X156709135Y-107620405D02*
X156756754Y-107525167D01*
X156756754Y-107525167D02*
X156804373Y-107477548D01*
X156804373Y-107477548D02*
X156899611Y-107429929D01*
X156899611Y-107429929D02*
X157090087Y-107429929D01*
X157090087Y-107429929D02*
X157185325Y-107477548D01*
X157185325Y-107477548D02*
X157232944Y-107525167D01*
X157232944Y-107525167D02*
X157280563Y-107620405D01*
X157280563Y-107620405D02*
X157280563Y-107668024D01*
X157280563Y-107668024D02*
X157232944Y-107763262D01*
X157232944Y-107763262D02*
X157185325Y-107810881D01*
X157185325Y-107810881D02*
X157090087Y-107858500D01*
X157090087Y-107858500D02*
X156899611Y-107858500D01*
X156899611Y-107858500D02*
X156804373Y-107906119D01*
X156804373Y-107906119D02*
X156756754Y-107953738D01*
X156756754Y-107953738D02*
X156709135Y-108048976D01*
X156709135Y-108048976D02*
X156709135Y-108239452D01*
X156709135Y-108239452D02*
X156756754Y-108334690D01*
X156756754Y-108334690D02*
X156804373Y-108382310D01*
X156804373Y-108382310D02*
X156899611Y-108429929D01*
X156899611Y-108429929D02*
X157090087Y-108429929D01*
X157090087Y-108429929D02*
X157185325Y-108382310D01*
X157185325Y-108382310D02*
X157232944Y-108334690D01*
X157232944Y-108334690D02*
X157280563Y-108239452D01*
X157280563Y-108239452D02*
X157280563Y-108048976D01*
X157280563Y-108048976D02*
X157232944Y-107953738D01*
X157232944Y-107953738D02*
X157185325Y-107906119D01*
X157185325Y-107906119D02*
X157090087Y-107858500D01*
X135563897Y-108382310D02*
X135706754Y-108429929D01*
X135706754Y-108429929D02*
X135944849Y-108429929D01*
X135944849Y-108429929D02*
X136040087Y-108382310D01*
X136040087Y-108382310D02*
X136087706Y-108334690D01*
X136087706Y-108334690D02*
X136135325Y-108239452D01*
X136135325Y-108239452D02*
X136135325Y-108144214D01*
X136135325Y-108144214D02*
X136087706Y-108048976D01*
X136087706Y-108048976D02*
X136040087Y-108001357D01*
X136040087Y-108001357D02*
X135944849Y-107953738D01*
X135944849Y-107953738D02*
X135754373Y-107906119D01*
X135754373Y-107906119D02*
X135659135Y-107858500D01*
X135659135Y-107858500D02*
X135611516Y-107810881D01*
X135611516Y-107810881D02*
X135563897Y-107715643D01*
X135563897Y-107715643D02*
X135563897Y-107620405D01*
X135563897Y-107620405D02*
X135611516Y-107525167D01*
X135611516Y-107525167D02*
X135659135Y-107477548D01*
X135659135Y-107477548D02*
X135754373Y-107429929D01*
X135754373Y-107429929D02*
X135992468Y-107429929D01*
X135992468Y-107429929D02*
X136135325Y-107477548D01*
X136468659Y-107429929D02*
X136706754Y-108429929D01*
X136706754Y-108429929D02*
X136897230Y-107715643D01*
X136897230Y-107715643D02*
X137087706Y-108429929D01*
X137087706Y-108429929D02*
X137325802Y-107429929D01*
X137611516Y-107429929D02*
X138278182Y-107429929D01*
X138278182Y-107429929D02*
X137849611Y-108429929D01*
X154613897Y-89332310D02*
X154756754Y-89379929D01*
X154756754Y-89379929D02*
X154994849Y-89379929D01*
X154994849Y-89379929D02*
X155090087Y-89332310D01*
X155090087Y-89332310D02*
X155137706Y-89284690D01*
X155137706Y-89284690D02*
X155185325Y-89189452D01*
X155185325Y-89189452D02*
X155185325Y-89094214D01*
X155185325Y-89094214D02*
X155137706Y-88998976D01*
X155137706Y-88998976D02*
X155090087Y-88951357D01*
X155090087Y-88951357D02*
X154994849Y-88903738D01*
X154994849Y-88903738D02*
X154804373Y-88856119D01*
X154804373Y-88856119D02*
X154709135Y-88808500D01*
X154709135Y-88808500D02*
X154661516Y-88760881D01*
X154661516Y-88760881D02*
X154613897Y-88665643D01*
X154613897Y-88665643D02*
X154613897Y-88570405D01*
X154613897Y-88570405D02*
X154661516Y-88475167D01*
X154661516Y-88475167D02*
X154709135Y-88427548D01*
X154709135Y-88427548D02*
X154804373Y-88379929D01*
X154804373Y-88379929D02*
X155042468Y-88379929D01*
X155042468Y-88379929D02*
X155185325Y-88427548D01*
X155518659Y-88379929D02*
X155756754Y-89379929D01*
X155756754Y-89379929D02*
X155947230Y-88665643D01*
X155947230Y-88665643D02*
X156137706Y-89379929D01*
X156137706Y-89379929D02*
X156375802Y-88379929D01*
X157185325Y-88713262D02*
X157185325Y-89379929D01*
X156947230Y-88332310D02*
X156709135Y-89046595D01*
X156709135Y-89046595D02*
X157328182Y-89046595D01*
X135087706Y-146482310D02*
X135230563Y-146529929D01*
X135230563Y-146529929D02*
X135468658Y-146529929D01*
X135468658Y-146529929D02*
X135563896Y-146482310D01*
X135563896Y-146482310D02*
X135611515Y-146434690D01*
X135611515Y-146434690D02*
X135659134Y-146339452D01*
X135659134Y-146339452D02*
X135659134Y-146244214D01*
X135659134Y-146244214D02*
X135611515Y-146148976D01*
X135611515Y-146148976D02*
X135563896Y-146101357D01*
X135563896Y-146101357D02*
X135468658Y-146053738D01*
X135468658Y-146053738D02*
X135278182Y-146006119D01*
X135278182Y-146006119D02*
X135182944Y-145958500D01*
X135182944Y-145958500D02*
X135135325Y-145910881D01*
X135135325Y-145910881D02*
X135087706Y-145815643D01*
X135087706Y-145815643D02*
X135087706Y-145720405D01*
X135087706Y-145720405D02*
X135135325Y-145625167D01*
X135135325Y-145625167D02*
X135182944Y-145577548D01*
X135182944Y-145577548D02*
X135278182Y-145529929D01*
X135278182Y-145529929D02*
X135516277Y-145529929D01*
X135516277Y-145529929D02*
X135659134Y-145577548D01*
X135992468Y-145529929D02*
X136230563Y-146529929D01*
X136230563Y-146529929D02*
X136421039Y-145815643D01*
X136421039Y-145815643D02*
X136611515Y-146529929D01*
X136611515Y-146529929D02*
X136849611Y-145529929D01*
X137754372Y-146529929D02*
X137182944Y-146529929D01*
X137468658Y-146529929D02*
X137468658Y-145529929D01*
X137468658Y-145529929D02*
X137373420Y-145672786D01*
X137373420Y-145672786D02*
X137278182Y-145768024D01*
X137278182Y-145768024D02*
X137182944Y-145815643D01*
X138659134Y-145529929D02*
X138182944Y-145529929D01*
X138182944Y-145529929D02*
X138135325Y-146006119D01*
X138135325Y-146006119D02*
X138182944Y-145958500D01*
X138182944Y-145958500D02*
X138278182Y-145910881D01*
X138278182Y-145910881D02*
X138516277Y-145910881D01*
X138516277Y-145910881D02*
X138611515Y-145958500D01*
X138611515Y-145958500D02*
X138659134Y-146006119D01*
X138659134Y-146006119D02*
X138706753Y-146101357D01*
X138706753Y-146101357D02*
X138706753Y-146339452D01*
X138706753Y-146339452D02*
X138659134Y-146434690D01*
X138659134Y-146434690D02*
X138611515Y-146482310D01*
X138611515Y-146482310D02*
X138516277Y-146529929D01*
X138516277Y-146529929D02*
X138278182Y-146529929D01*
X138278182Y-146529929D02*
X138182944Y-146482310D01*
X138182944Y-146482310D02*
X138135325Y-146434690D01*
X135563897Y-89332310D02*
X135706754Y-89379929D01*
X135706754Y-89379929D02*
X135944849Y-89379929D01*
X135944849Y-89379929D02*
X136040087Y-89332310D01*
X136040087Y-89332310D02*
X136087706Y-89284690D01*
X136087706Y-89284690D02*
X136135325Y-89189452D01*
X136135325Y-89189452D02*
X136135325Y-89094214D01*
X136135325Y-89094214D02*
X136087706Y-88998976D01*
X136087706Y-88998976D02*
X136040087Y-88951357D01*
X136040087Y-88951357D02*
X135944849Y-88903738D01*
X135944849Y-88903738D02*
X135754373Y-88856119D01*
X135754373Y-88856119D02*
X135659135Y-88808500D01*
X135659135Y-88808500D02*
X135611516Y-88760881D01*
X135611516Y-88760881D02*
X135563897Y-88665643D01*
X135563897Y-88665643D02*
X135563897Y-88570405D01*
X135563897Y-88570405D02*
X135611516Y-88475167D01*
X135611516Y-88475167D02*
X135659135Y-88427548D01*
X135659135Y-88427548D02*
X135754373Y-88379929D01*
X135754373Y-88379929D02*
X135992468Y-88379929D01*
X135992468Y-88379929D02*
X136135325Y-88427548D01*
X136468659Y-88379929D02*
X136706754Y-89379929D01*
X136706754Y-89379929D02*
X136897230Y-88665643D01*
X136897230Y-88665643D02*
X137087706Y-89379929D01*
X137087706Y-89379929D02*
X137325802Y-88379929D01*
X137611516Y-88379929D02*
X138230563Y-88379929D01*
X138230563Y-88379929D02*
X137897230Y-88760881D01*
X137897230Y-88760881D02*
X138040087Y-88760881D01*
X138040087Y-88760881D02*
X138135325Y-88808500D01*
X138135325Y-88808500D02*
X138182944Y-88856119D01*
X138182944Y-88856119D02*
X138230563Y-88951357D01*
X138230563Y-88951357D02*
X138230563Y-89189452D01*
X138230563Y-89189452D02*
X138182944Y-89284690D01*
X138182944Y-89284690D02*
X138135325Y-89332310D01*
X138135325Y-89332310D02*
X138040087Y-89379929D01*
X138040087Y-89379929D02*
X137754373Y-89379929D01*
X137754373Y-89379929D02*
X137659135Y-89332310D01*
X137659135Y-89332310D02*
X137611516Y-89284690D01*
X116037706Y-127432310D02*
X116180563Y-127479929D01*
X116180563Y-127479929D02*
X116418658Y-127479929D01*
X116418658Y-127479929D02*
X116513896Y-127432310D01*
X116513896Y-127432310D02*
X116561515Y-127384690D01*
X116561515Y-127384690D02*
X116609134Y-127289452D01*
X116609134Y-127289452D02*
X116609134Y-127194214D01*
X116609134Y-127194214D02*
X116561515Y-127098976D01*
X116561515Y-127098976D02*
X116513896Y-127051357D01*
X116513896Y-127051357D02*
X116418658Y-127003738D01*
X116418658Y-127003738D02*
X116228182Y-126956119D01*
X116228182Y-126956119D02*
X116132944Y-126908500D01*
X116132944Y-126908500D02*
X116085325Y-126860881D01*
X116085325Y-126860881D02*
X116037706Y-126765643D01*
X116037706Y-126765643D02*
X116037706Y-126670405D01*
X116037706Y-126670405D02*
X116085325Y-126575167D01*
X116085325Y-126575167D02*
X116132944Y-126527548D01*
X116132944Y-126527548D02*
X116228182Y-126479929D01*
X116228182Y-126479929D02*
X116466277Y-126479929D01*
X116466277Y-126479929D02*
X116609134Y-126527548D01*
X116942468Y-126479929D02*
X117180563Y-127479929D01*
X117180563Y-127479929D02*
X117371039Y-126765643D01*
X117371039Y-126765643D02*
X117561515Y-127479929D01*
X117561515Y-127479929D02*
X117799611Y-126479929D01*
X118704372Y-127479929D02*
X118132944Y-127479929D01*
X118418658Y-127479929D02*
X118418658Y-126479929D01*
X118418658Y-126479929D02*
X118323420Y-126622786D01*
X118323420Y-126622786D02*
X118228182Y-126718024D01*
X118228182Y-126718024D02*
X118132944Y-126765643D01*
X119323420Y-126479929D02*
X119418658Y-126479929D01*
X119418658Y-126479929D02*
X119513896Y-126527548D01*
X119513896Y-126527548D02*
X119561515Y-126575167D01*
X119561515Y-126575167D02*
X119609134Y-126670405D01*
X119609134Y-126670405D02*
X119656753Y-126860881D01*
X119656753Y-126860881D02*
X119656753Y-127098976D01*
X119656753Y-127098976D02*
X119609134Y-127289452D01*
X119609134Y-127289452D02*
X119561515Y-127384690D01*
X119561515Y-127384690D02*
X119513896Y-127432310D01*
X119513896Y-127432310D02*
X119418658Y-127479929D01*
X119418658Y-127479929D02*
X119323420Y-127479929D01*
X119323420Y-127479929D02*
X119228182Y-127432310D01*
X119228182Y-127432310D02*
X119180563Y-127384690D01*
X119180563Y-127384690D02*
X119132944Y-127289452D01*
X119132944Y-127289452D02*
X119085325Y-127098976D01*
X119085325Y-127098976D02*
X119085325Y-126860881D01*
X119085325Y-126860881D02*
X119132944Y-126670405D01*
X119132944Y-126670405D02*
X119180563Y-126575167D01*
X119180563Y-126575167D02*
X119228182Y-126527548D01*
X119228182Y-126527548D02*
X119323420Y-126479929D01*
X97463897Y-108382310D02*
X97606754Y-108429929D01*
X97606754Y-108429929D02*
X97844849Y-108429929D01*
X97844849Y-108429929D02*
X97940087Y-108382310D01*
X97940087Y-108382310D02*
X97987706Y-108334690D01*
X97987706Y-108334690D02*
X98035325Y-108239452D01*
X98035325Y-108239452D02*
X98035325Y-108144214D01*
X98035325Y-108144214D02*
X97987706Y-108048976D01*
X97987706Y-108048976D02*
X97940087Y-108001357D01*
X97940087Y-108001357D02*
X97844849Y-107953738D01*
X97844849Y-107953738D02*
X97654373Y-107906119D01*
X97654373Y-107906119D02*
X97559135Y-107858500D01*
X97559135Y-107858500D02*
X97511516Y-107810881D01*
X97511516Y-107810881D02*
X97463897Y-107715643D01*
X97463897Y-107715643D02*
X97463897Y-107620405D01*
X97463897Y-107620405D02*
X97511516Y-107525167D01*
X97511516Y-107525167D02*
X97559135Y-107477548D01*
X97559135Y-107477548D02*
X97654373Y-107429929D01*
X97654373Y-107429929D02*
X97892468Y-107429929D01*
X97892468Y-107429929D02*
X98035325Y-107477548D01*
X98368659Y-107429929D02*
X98606754Y-108429929D01*
X98606754Y-108429929D02*
X98797230Y-107715643D01*
X98797230Y-107715643D02*
X98987706Y-108429929D01*
X98987706Y-108429929D02*
X99225802Y-107429929D01*
X100082944Y-107429929D02*
X99606754Y-107429929D01*
X99606754Y-107429929D02*
X99559135Y-107906119D01*
X99559135Y-107906119D02*
X99606754Y-107858500D01*
X99606754Y-107858500D02*
X99701992Y-107810881D01*
X99701992Y-107810881D02*
X99940087Y-107810881D01*
X99940087Y-107810881D02*
X100035325Y-107858500D01*
X100035325Y-107858500D02*
X100082944Y-107906119D01*
X100082944Y-107906119D02*
X100130563Y-108001357D01*
X100130563Y-108001357D02*
X100130563Y-108239452D01*
X100130563Y-108239452D02*
X100082944Y-108334690D01*
X100082944Y-108334690D02*
X100035325Y-108382310D01*
X100035325Y-108382310D02*
X99940087Y-108429929D01*
X99940087Y-108429929D02*
X99701992Y-108429929D01*
X99701992Y-108429929D02*
X99606754Y-108382310D01*
X99606754Y-108382310D02*
X99559135Y-108334690D01*
X135087706Y-127432310D02*
X135230563Y-127479929D01*
X135230563Y-127479929D02*
X135468658Y-127479929D01*
X135468658Y-127479929D02*
X135563896Y-127432310D01*
X135563896Y-127432310D02*
X135611515Y-127384690D01*
X135611515Y-127384690D02*
X135659134Y-127289452D01*
X135659134Y-127289452D02*
X135659134Y-127194214D01*
X135659134Y-127194214D02*
X135611515Y-127098976D01*
X135611515Y-127098976D02*
X135563896Y-127051357D01*
X135563896Y-127051357D02*
X135468658Y-127003738D01*
X135468658Y-127003738D02*
X135278182Y-126956119D01*
X135278182Y-126956119D02*
X135182944Y-126908500D01*
X135182944Y-126908500D02*
X135135325Y-126860881D01*
X135135325Y-126860881D02*
X135087706Y-126765643D01*
X135087706Y-126765643D02*
X135087706Y-126670405D01*
X135087706Y-126670405D02*
X135135325Y-126575167D01*
X135135325Y-126575167D02*
X135182944Y-126527548D01*
X135182944Y-126527548D02*
X135278182Y-126479929D01*
X135278182Y-126479929D02*
X135516277Y-126479929D01*
X135516277Y-126479929D02*
X135659134Y-126527548D01*
X135992468Y-126479929D02*
X136230563Y-127479929D01*
X136230563Y-127479929D02*
X136421039Y-126765643D01*
X136421039Y-126765643D02*
X136611515Y-127479929D01*
X136611515Y-127479929D02*
X136849611Y-126479929D01*
X137754372Y-127479929D02*
X137182944Y-127479929D01*
X137468658Y-127479929D02*
X137468658Y-126479929D01*
X137468658Y-126479929D02*
X137373420Y-126622786D01*
X137373420Y-126622786D02*
X137278182Y-126718024D01*
X137278182Y-126718024D02*
X137182944Y-126765643D01*
X138706753Y-127479929D02*
X138135325Y-127479929D01*
X138421039Y-127479929D02*
X138421039Y-126479929D01*
X138421039Y-126479929D02*
X138325801Y-126622786D01*
X138325801Y-126622786D02*
X138230563Y-126718024D01*
X138230563Y-126718024D02*
X138135325Y-126765643D01*
X116037706Y-146482310D02*
X116180563Y-146529929D01*
X116180563Y-146529929D02*
X116418658Y-146529929D01*
X116418658Y-146529929D02*
X116513896Y-146482310D01*
X116513896Y-146482310D02*
X116561515Y-146434690D01*
X116561515Y-146434690D02*
X116609134Y-146339452D01*
X116609134Y-146339452D02*
X116609134Y-146244214D01*
X116609134Y-146244214D02*
X116561515Y-146148976D01*
X116561515Y-146148976D02*
X116513896Y-146101357D01*
X116513896Y-146101357D02*
X116418658Y-146053738D01*
X116418658Y-146053738D02*
X116228182Y-146006119D01*
X116228182Y-146006119D02*
X116132944Y-145958500D01*
X116132944Y-145958500D02*
X116085325Y-145910881D01*
X116085325Y-145910881D02*
X116037706Y-145815643D01*
X116037706Y-145815643D02*
X116037706Y-145720405D01*
X116037706Y-145720405D02*
X116085325Y-145625167D01*
X116085325Y-145625167D02*
X116132944Y-145577548D01*
X116132944Y-145577548D02*
X116228182Y-145529929D01*
X116228182Y-145529929D02*
X116466277Y-145529929D01*
X116466277Y-145529929D02*
X116609134Y-145577548D01*
X116942468Y-145529929D02*
X117180563Y-146529929D01*
X117180563Y-146529929D02*
X117371039Y-145815643D01*
X117371039Y-145815643D02*
X117561515Y-146529929D01*
X117561515Y-146529929D02*
X117799611Y-145529929D01*
X118704372Y-146529929D02*
X118132944Y-146529929D01*
X118418658Y-146529929D02*
X118418658Y-145529929D01*
X118418658Y-145529929D02*
X118323420Y-145672786D01*
X118323420Y-145672786D02*
X118228182Y-145768024D01*
X118228182Y-145768024D02*
X118132944Y-145815643D01*
X119561515Y-145863262D02*
X119561515Y-146529929D01*
X119323420Y-145482310D02*
X119085325Y-146196595D01*
X119085325Y-146196595D02*
X119704372Y-146196595D01*
X116513897Y-108382310D02*
X116656754Y-108429929D01*
X116656754Y-108429929D02*
X116894849Y-108429929D01*
X116894849Y-108429929D02*
X116990087Y-108382310D01*
X116990087Y-108382310D02*
X117037706Y-108334690D01*
X117037706Y-108334690D02*
X117085325Y-108239452D01*
X117085325Y-108239452D02*
X117085325Y-108144214D01*
X117085325Y-108144214D02*
X117037706Y-108048976D01*
X117037706Y-108048976D02*
X116990087Y-108001357D01*
X116990087Y-108001357D02*
X116894849Y-107953738D01*
X116894849Y-107953738D02*
X116704373Y-107906119D01*
X116704373Y-107906119D02*
X116609135Y-107858500D01*
X116609135Y-107858500D02*
X116561516Y-107810881D01*
X116561516Y-107810881D02*
X116513897Y-107715643D01*
X116513897Y-107715643D02*
X116513897Y-107620405D01*
X116513897Y-107620405D02*
X116561516Y-107525167D01*
X116561516Y-107525167D02*
X116609135Y-107477548D01*
X116609135Y-107477548D02*
X116704373Y-107429929D01*
X116704373Y-107429929D02*
X116942468Y-107429929D01*
X116942468Y-107429929D02*
X117085325Y-107477548D01*
X117418659Y-107429929D02*
X117656754Y-108429929D01*
X117656754Y-108429929D02*
X117847230Y-107715643D01*
X117847230Y-107715643D02*
X118037706Y-108429929D01*
X118037706Y-108429929D02*
X118275802Y-107429929D01*
X119085325Y-107429929D02*
X118894849Y-107429929D01*
X118894849Y-107429929D02*
X118799611Y-107477548D01*
X118799611Y-107477548D02*
X118751992Y-107525167D01*
X118751992Y-107525167D02*
X118656754Y-107668024D01*
X118656754Y-107668024D02*
X118609135Y-107858500D01*
X118609135Y-107858500D02*
X118609135Y-108239452D01*
X118609135Y-108239452D02*
X118656754Y-108334690D01*
X118656754Y-108334690D02*
X118704373Y-108382310D01*
X118704373Y-108382310D02*
X118799611Y-108429929D01*
X118799611Y-108429929D02*
X118990087Y-108429929D01*
X118990087Y-108429929D02*
X119085325Y-108382310D01*
X119085325Y-108382310D02*
X119132944Y-108334690D01*
X119132944Y-108334690D02*
X119180563Y-108239452D01*
X119180563Y-108239452D02*
X119180563Y-108001357D01*
X119180563Y-108001357D02*
X119132944Y-107906119D01*
X119132944Y-107906119D02*
X119085325Y-107858500D01*
X119085325Y-107858500D02*
X118990087Y-107810881D01*
X118990087Y-107810881D02*
X118799611Y-107810881D01*
X118799611Y-107810881D02*
X118704373Y-107858500D01*
X118704373Y-107858500D02*
X118656754Y-107906119D01*
X118656754Y-107906119D02*
X118609135Y-108001357D01*
D11*
X152017084Y-71588493D02*
X152017084Y-72308160D01*
X152017084Y-72308160D02*
X152059418Y-72392826D01*
X152059418Y-72392826D02*
X152101751Y-72435160D01*
X152101751Y-72435160D02*
X152186418Y-72477493D01*
X152186418Y-72477493D02*
X152355751Y-72477493D01*
X152355751Y-72477493D02*
X152440418Y-72435160D01*
X152440418Y-72435160D02*
X152482751Y-72392826D01*
X152482751Y-72392826D02*
X152525084Y-72308160D01*
X152525084Y-72308160D02*
X152525084Y-71588493D01*
X153414084Y-72477493D02*
X152906084Y-72477493D01*
X153160084Y-72477493D02*
X153160084Y-71588493D01*
X153160084Y-71588493D02*
X153075417Y-71715493D01*
X153075417Y-71715493D02*
X152990751Y-71800160D01*
X152990751Y-71800160D02*
X152906084Y-71842493D01*
D10*
X147932513Y-68438708D02*
X148075370Y-68486327D01*
X148075370Y-68486327D02*
X148313465Y-68486327D01*
X148313465Y-68486327D02*
X148408703Y-68438708D01*
X148408703Y-68438708D02*
X148456322Y-68391088D01*
X148456322Y-68391088D02*
X148503941Y-68295850D01*
X148503941Y-68295850D02*
X148503941Y-68200612D01*
X148503941Y-68200612D02*
X148456322Y-68105374D01*
X148456322Y-68105374D02*
X148408703Y-68057755D01*
X148408703Y-68057755D02*
X148313465Y-68010136D01*
X148313465Y-68010136D02*
X148122989Y-67962517D01*
X148122989Y-67962517D02*
X148027751Y-67914898D01*
X148027751Y-67914898D02*
X147980132Y-67867279D01*
X147980132Y-67867279D02*
X147932513Y-67772041D01*
X147932513Y-67772041D02*
X147932513Y-67676803D01*
X147932513Y-67676803D02*
X147980132Y-67581565D01*
X147980132Y-67581565D02*
X148027751Y-67533946D01*
X148027751Y-67533946D02*
X148122989Y-67486327D01*
X148122989Y-67486327D02*
X148361084Y-67486327D01*
X148361084Y-67486327D02*
X148503941Y-67533946D01*
X149313465Y-68438708D02*
X149218227Y-68486327D01*
X149218227Y-68486327D02*
X149027751Y-68486327D01*
X149027751Y-68486327D02*
X148932513Y-68438708D01*
X148932513Y-68438708D02*
X148884894Y-68343469D01*
X148884894Y-68343469D02*
X148884894Y-67962517D01*
X148884894Y-67962517D02*
X148932513Y-67867279D01*
X148932513Y-67867279D02*
X149027751Y-67819660D01*
X149027751Y-67819660D02*
X149218227Y-67819660D01*
X149218227Y-67819660D02*
X149313465Y-67867279D01*
X149313465Y-67867279D02*
X149361084Y-67962517D01*
X149361084Y-67962517D02*
X149361084Y-68057755D01*
X149361084Y-68057755D02*
X148884894Y-68152993D01*
X150170608Y-68438708D02*
X150075370Y-68486327D01*
X150075370Y-68486327D02*
X149884894Y-68486327D01*
X149884894Y-68486327D02*
X149789656Y-68438708D01*
X149789656Y-68438708D02*
X149742037Y-68343469D01*
X149742037Y-68343469D02*
X149742037Y-67962517D01*
X149742037Y-67962517D02*
X149789656Y-67867279D01*
X149789656Y-67867279D02*
X149884894Y-67819660D01*
X149884894Y-67819660D02*
X150075370Y-67819660D01*
X150075370Y-67819660D02*
X150170608Y-67867279D01*
X150170608Y-67867279D02*
X150218227Y-67962517D01*
X150218227Y-67962517D02*
X150218227Y-68057755D01*
X150218227Y-68057755D02*
X149742037Y-68152993D01*
X151027751Y-68438708D02*
X150932513Y-68486327D01*
X150932513Y-68486327D02*
X150742037Y-68486327D01*
X150742037Y-68486327D02*
X150646799Y-68438708D01*
X150646799Y-68438708D02*
X150599180Y-68343469D01*
X150599180Y-68343469D02*
X150599180Y-67962517D01*
X150599180Y-67962517D02*
X150646799Y-67867279D01*
X150646799Y-67867279D02*
X150742037Y-67819660D01*
X150742037Y-67819660D02*
X150932513Y-67819660D01*
X150932513Y-67819660D02*
X151027751Y-67867279D01*
X151027751Y-67867279D02*
X151075370Y-67962517D01*
X151075370Y-67962517D02*
X151075370Y-68057755D01*
X151075370Y-68057755D02*
X150599180Y-68152993D01*
X151932513Y-68486327D02*
X151932513Y-67486327D01*
X151932513Y-68438708D02*
X151837275Y-68486327D01*
X151837275Y-68486327D02*
X151646799Y-68486327D01*
X151646799Y-68486327D02*
X151551561Y-68438708D01*
X151551561Y-68438708D02*
X151503942Y-68391088D01*
X151503942Y-68391088D02*
X151456323Y-68295850D01*
X151456323Y-68295850D02*
X151456323Y-68010136D01*
X151456323Y-68010136D02*
X151503942Y-67914898D01*
X151503942Y-67914898D02*
X151551561Y-67867279D01*
X151551561Y-67867279D02*
X151646799Y-67819660D01*
X151646799Y-67819660D02*
X151837275Y-67819660D01*
X151837275Y-67819660D02*
X151932513Y-67867279D01*
X153122990Y-68438708D02*
X153265847Y-68486327D01*
X153265847Y-68486327D02*
X153503942Y-68486327D01*
X153503942Y-68486327D02*
X153599180Y-68438708D01*
X153599180Y-68438708D02*
X153646799Y-68391088D01*
X153646799Y-68391088D02*
X153694418Y-68295850D01*
X153694418Y-68295850D02*
X153694418Y-68200612D01*
X153694418Y-68200612D02*
X153646799Y-68105374D01*
X153646799Y-68105374D02*
X153599180Y-68057755D01*
X153599180Y-68057755D02*
X153503942Y-68010136D01*
X153503942Y-68010136D02*
X153313466Y-67962517D01*
X153313466Y-67962517D02*
X153218228Y-67914898D01*
X153218228Y-67914898D02*
X153170609Y-67867279D01*
X153170609Y-67867279D02*
X153122990Y-67772041D01*
X153122990Y-67772041D02*
X153122990Y-67676803D01*
X153122990Y-67676803D02*
X153170609Y-67581565D01*
X153170609Y-67581565D02*
X153218228Y-67533946D01*
X153218228Y-67533946D02*
X153313466Y-67486327D01*
X153313466Y-67486327D02*
X153551561Y-67486327D01*
X153551561Y-67486327D02*
X153694418Y-67533946D01*
X153980133Y-67819660D02*
X154361085Y-67819660D01*
X154122990Y-67486327D02*
X154122990Y-68343469D01*
X154122990Y-68343469D02*
X154170609Y-68438708D01*
X154170609Y-68438708D02*
X154265847Y-68486327D01*
X154265847Y-68486327D02*
X154361085Y-68486327D01*
X155122990Y-67819660D02*
X155122990Y-68486327D01*
X154694419Y-67819660D02*
X154694419Y-68343469D01*
X154694419Y-68343469D02*
X154742038Y-68438708D01*
X154742038Y-68438708D02*
X154837276Y-68486327D01*
X154837276Y-68486327D02*
X154980133Y-68486327D01*
X154980133Y-68486327D02*
X155075371Y-68438708D01*
X155075371Y-68438708D02*
X155122990Y-68391088D01*
X156027752Y-68486327D02*
X156027752Y-67486327D01*
X156027752Y-68438708D02*
X155932514Y-68486327D01*
X155932514Y-68486327D02*
X155742038Y-68486327D01*
X155742038Y-68486327D02*
X155646800Y-68438708D01*
X155646800Y-68438708D02*
X155599181Y-68391088D01*
X155599181Y-68391088D02*
X155551562Y-68295850D01*
X155551562Y-68295850D02*
X155551562Y-68010136D01*
X155551562Y-68010136D02*
X155599181Y-67914898D01*
X155599181Y-67914898D02*
X155646800Y-67867279D01*
X155646800Y-67867279D02*
X155742038Y-67819660D01*
X155742038Y-67819660D02*
X155932514Y-67819660D01*
X155932514Y-67819660D02*
X156027752Y-67867279D01*
X156503943Y-68486327D02*
X156503943Y-67819660D01*
X156503943Y-67486327D02*
X156456324Y-67533946D01*
X156456324Y-67533946D02*
X156503943Y-67581565D01*
X156503943Y-67581565D02*
X156551562Y-67533946D01*
X156551562Y-67533946D02*
X156503943Y-67486327D01*
X156503943Y-67486327D02*
X156503943Y-67581565D01*
X157122990Y-68486327D02*
X157027752Y-68438708D01*
X157027752Y-68438708D02*
X156980133Y-68391088D01*
X156980133Y-68391088D02*
X156932514Y-68295850D01*
X156932514Y-68295850D02*
X156932514Y-68010136D01*
X156932514Y-68010136D02*
X156980133Y-67914898D01*
X156980133Y-67914898D02*
X157027752Y-67867279D01*
X157027752Y-67867279D02*
X157122990Y-67819660D01*
X157122990Y-67819660D02*
X157265847Y-67819660D01*
X157265847Y-67819660D02*
X157361085Y-67867279D01*
X157361085Y-67867279D02*
X157408704Y-67914898D01*
X157408704Y-67914898D02*
X157456323Y-68010136D01*
X157456323Y-68010136D02*
X157456323Y-68295850D01*
X157456323Y-68295850D02*
X157408704Y-68391088D01*
X157408704Y-68391088D02*
X157361085Y-68438708D01*
X157361085Y-68438708D02*
X157265847Y-68486327D01*
X157265847Y-68486327D02*
X157122990Y-68486327D01*
X151170609Y-69486327D02*
X151837275Y-70486327D01*
X151837275Y-69486327D02*
X151170609Y-70486327D01*
X152218228Y-70486327D02*
X152218228Y-69486327D01*
X152646799Y-70200612D02*
X153122989Y-70200612D01*
X152551561Y-70486327D02*
X152884894Y-69486327D01*
X152884894Y-69486327D02*
X153218227Y-70486327D01*
X153742037Y-69486327D02*
X153932513Y-69486327D01*
X153932513Y-69486327D02*
X154027751Y-69533946D01*
X154027751Y-69533946D02*
X154122989Y-69629184D01*
X154122989Y-69629184D02*
X154170608Y-69819660D01*
X154170608Y-69819660D02*
X154170608Y-70152993D01*
X154170608Y-70152993D02*
X154122989Y-70343469D01*
X154122989Y-70343469D02*
X154027751Y-70438708D01*
X154027751Y-70438708D02*
X153932513Y-70486327D01*
X153932513Y-70486327D02*
X153742037Y-70486327D01*
X153742037Y-70486327D02*
X153646799Y-70438708D01*
X153646799Y-70438708D02*
X153551561Y-70343469D01*
X153551561Y-70343469D02*
X153503942Y-70152993D01*
X153503942Y-70152993D02*
X153503942Y-69819660D01*
X153503942Y-69819660D02*
X153551561Y-69629184D01*
X153551561Y-69629184D02*
X153646799Y-69533946D01*
X153646799Y-69533946D02*
X153742037Y-69486327D01*
G04 #@! TO.C,SW16*
D12*
X148962230Y-146964110D02*
X162932230Y-146964110D01*
X148962230Y-160934110D02*
X148962230Y-146964110D01*
X162932230Y-146964110D02*
X162932230Y-160934110D01*
X162932230Y-160934110D02*
X148962230Y-160934110D01*
G04 #@! TO.C,J1*
D13*
X87286800Y-63834482D02*
X87286800Y-75834482D01*
X87286800Y-75834482D02*
X125286800Y-75834482D01*
X90786800Y-63834482D02*
X90786800Y-75834482D01*
X120286800Y-63834482D02*
X120286800Y-75834482D01*
X125286800Y-63834482D02*
X87286800Y-63834482D01*
X125286800Y-75834482D02*
X125286800Y-63834482D01*
G04 #@! TO.C,SW9*
D12*
X91812230Y-127914110D02*
X105782230Y-127914110D01*
X91812230Y-141884110D02*
X91812230Y-127914110D01*
X105782230Y-127914110D02*
X105782230Y-141884110D01*
X105782230Y-141884110D02*
X91812230Y-141884110D01*
G04 #@! TO.C,SW12*
X148962230Y-127914110D02*
X162932230Y-127914110D01*
X148962230Y-141884110D02*
X148962230Y-127914110D01*
X162932230Y-127914110D02*
X162932230Y-141884110D01*
X162932230Y-141884110D02*
X148962230Y-141884110D01*
G04 #@! TO.C,SW1*
X91812230Y-89814110D02*
X105782230Y-89814110D01*
X91812230Y-103784110D02*
X91812230Y-89814110D01*
X105782230Y-89814110D02*
X105782230Y-103784110D01*
X105782230Y-103784110D02*
X91812230Y-103784110D01*
G04 #@! TO.C,SW2*
X110862230Y-89814110D02*
X124832230Y-89814110D01*
X110862230Y-103784110D02*
X110862230Y-89814110D01*
X124832230Y-89814110D02*
X124832230Y-103784110D01*
X124832230Y-103784110D02*
X110862230Y-103784110D01*
G04 #@! TO.C,SW13*
X91812230Y-146964110D02*
X105782230Y-146964110D01*
X91812230Y-160934110D02*
X91812230Y-146964110D01*
X105782230Y-146964110D02*
X105782230Y-160934110D01*
X105782230Y-160934110D02*
X91812230Y-160934110D01*
G04 #@! TO.C,SW8*
X148962230Y-108864110D02*
X162932230Y-108864110D01*
X148962230Y-122834110D02*
X148962230Y-108864110D01*
X162932230Y-108864110D02*
X162932230Y-122834110D01*
X162932230Y-122834110D02*
X148962230Y-122834110D01*
G04 #@! TO.C,SW7*
X129912230Y-108864110D02*
X143882230Y-108864110D01*
X129912230Y-122834110D02*
X129912230Y-108864110D01*
X143882230Y-108864110D02*
X143882230Y-122834110D01*
X143882230Y-122834110D02*
X129912230Y-122834110D01*
G04 #@! TO.C,SW4*
X148962230Y-89814110D02*
X162932230Y-89814110D01*
X148962230Y-103784110D02*
X148962230Y-89814110D01*
X162932230Y-89814110D02*
X162932230Y-103784110D01*
X162932230Y-103784110D02*
X148962230Y-103784110D01*
G04 #@! TO.C,SW15*
X129912230Y-146964110D02*
X143882230Y-146964110D01*
X129912230Y-160934110D02*
X129912230Y-146964110D01*
X143882230Y-146964110D02*
X143882230Y-160934110D01*
X143882230Y-160934110D02*
X129912230Y-160934110D01*
G04 #@! TO.C,SW3*
X129912230Y-89814110D02*
X143882230Y-89814110D01*
X129912230Y-103784110D02*
X129912230Y-89814110D01*
X143882230Y-89814110D02*
X143882230Y-103784110D01*
X143882230Y-103784110D02*
X129912230Y-103784110D01*
G04 #@! TO.C,SW10*
X110862230Y-127914110D02*
X124832230Y-127914110D01*
X110862230Y-141884110D02*
X110862230Y-127914110D01*
X124832230Y-127914110D02*
X124832230Y-141884110D01*
X124832230Y-141884110D02*
X110862230Y-141884110D01*
G04 #@! TO.C,SW5*
X91812230Y-108864110D02*
X105782230Y-108864110D01*
X91812230Y-122834110D02*
X91812230Y-108864110D01*
X105782230Y-108864110D02*
X105782230Y-122834110D01*
X105782230Y-122834110D02*
X91812230Y-122834110D01*
G04 #@! TO.C,SW11*
X129912230Y-127914110D02*
X143882230Y-127914110D01*
X129912230Y-141884110D02*
X129912230Y-127914110D01*
X143882230Y-127914110D02*
X143882230Y-141884110D01*
X143882230Y-141884110D02*
X129912230Y-141884110D01*
G04 #@! TO.C,SW14*
X110862230Y-146964110D02*
X124832230Y-146964110D01*
X110862230Y-160934110D02*
X110862230Y-146964110D01*
X124832230Y-146964110D02*
X124832230Y-160934110D01*
X124832230Y-160934110D02*
X110862230Y-160934110D01*
G04 #@! TO.C,SW6*
X110862230Y-108864110D02*
X124832230Y-108864110D01*
X110862230Y-122834110D02*
X110862230Y-108864110D01*
X124832230Y-108864110D02*
X124832230Y-122834110D01*
X124832230Y-122834110D02*
X110862230Y-122834110D01*
G04 #@! TO.C,U1*
D14*
X143794418Y-61031508D02*
X143794418Y-78031508D01*
X145794418Y-80031508D02*
X159594418Y-80031508D01*
X148194418Y-57607478D02*
X157194418Y-57607478D01*
X148194418Y-64960778D02*
X148194418Y-57607478D01*
X157194418Y-57607478D02*
X157194418Y-64960778D01*
X157194418Y-64960778D02*
X148194418Y-64960778D01*
X159594418Y-59032418D02*
X145794418Y-59032418D01*
X161594418Y-78031508D02*
X161594418Y-61031508D01*
D12*
X143794418Y-61031508D02*
G75*
G02*
X145794418Y-59031508I2044612J-44612D01*
G01*
X145794418Y-80031508D02*
G75*
G02*
X143794418Y-78031508I44857J2044857D01*
G01*
X159594418Y-59031508D02*
G75*
G02*
X161594418Y-61031508I-44610J-2044610D01*
G01*
X161594418Y-78031508D02*
G75*
G02*
X159594418Y-80031508I-2000000J0D01*
G01*
D15*
X141821418Y-60731508D02*
G75*
G02*
X141567418Y-60731508I-127000J0D01*
G01*
X141567418Y-60731508D02*
G75*
G02*
X141821418Y-60731508I127000J0D01*
G01*
D16*
X143806703Y-60969803D02*
X143809751Y-60921035D01*
X143813815Y-60872014D01*
X143806703Y-60969803D01*
X161583910Y-78053082D02*
X161582131Y-78102358D01*
X161579083Y-78151126D01*
X161575019Y-78200147D01*
X161569686Y-78248915D01*
X161563082Y-78297683D01*
X161555462Y-78346198D01*
X161546571Y-78394458D01*
X161536666Y-78442463D01*
X161583910Y-78053082D01*
G04 #@! TD*
%LPC*%
D17*
G04 #@! TO.C,SW16*
X150867230Y-153949110D03*
D18*
X155947230Y-153949110D03*
D17*
X161027230Y-153949110D03*
D19*
X158487230Y-148869110D03*
X152137230Y-151409110D03*
G04 #@! TD*
D20*
G04 #@! TO.C,J1*
X123786800Y-66024482D03*
D21*
X123786800Y-68564482D03*
X123786800Y-71104482D03*
X123786800Y-73644482D03*
G04 #@! TD*
D17*
G04 #@! TO.C,SW9*
X93717230Y-134899110D03*
D18*
X98797230Y-134899110D03*
D17*
X103877230Y-134899110D03*
D19*
X101337230Y-129819110D03*
X94987230Y-132359110D03*
G04 #@! TD*
D17*
G04 #@! TO.C,SW12*
X150867230Y-134899110D03*
D18*
X155947230Y-134899110D03*
D17*
X161027230Y-134899110D03*
D19*
X158487230Y-129819110D03*
X152137230Y-132359110D03*
G04 #@! TD*
D17*
G04 #@! TO.C,SW1*
X93717230Y-96799110D03*
D18*
X98797230Y-96799110D03*
D17*
X103877230Y-96799110D03*
D19*
X101337230Y-91719110D03*
X94987230Y-94259110D03*
G04 #@! TD*
D17*
G04 #@! TO.C,SW2*
X112767230Y-96799110D03*
D18*
X117847230Y-96799110D03*
D17*
X122927230Y-96799110D03*
D19*
X120387230Y-91719110D03*
X114037230Y-94259110D03*
G04 #@! TD*
D17*
G04 #@! TO.C,SW13*
X93717230Y-153949110D03*
D18*
X98797230Y-153949110D03*
D17*
X103877230Y-153949110D03*
D19*
X101337230Y-148869110D03*
X94987230Y-151409110D03*
G04 #@! TD*
D17*
G04 #@! TO.C,SW8*
X150867230Y-115849110D03*
D18*
X155947230Y-115849110D03*
D17*
X161027230Y-115849110D03*
D19*
X158487230Y-110769110D03*
X152137230Y-113309110D03*
G04 #@! TD*
D17*
G04 #@! TO.C,SW7*
X131817230Y-115849110D03*
D18*
X136897230Y-115849110D03*
D17*
X141977230Y-115849110D03*
D19*
X139437230Y-110769110D03*
X133087230Y-113309110D03*
G04 #@! TD*
D17*
G04 #@! TO.C,SW4*
X150867230Y-96799110D03*
D18*
X155947230Y-96799110D03*
D17*
X161027230Y-96799110D03*
D19*
X158487230Y-91719110D03*
X152137230Y-94259110D03*
G04 #@! TD*
D17*
G04 #@! TO.C,SW15*
X131817230Y-153949110D03*
D18*
X136897230Y-153949110D03*
D17*
X141977230Y-153949110D03*
D19*
X139437230Y-148869110D03*
X133087230Y-151409110D03*
G04 #@! TD*
D17*
G04 #@! TO.C,SW3*
X131817230Y-96799110D03*
D18*
X136897230Y-96799110D03*
D17*
X141977230Y-96799110D03*
D19*
X139437230Y-91719110D03*
X133087230Y-94259110D03*
G04 #@! TD*
D17*
G04 #@! TO.C,SW10*
X112767230Y-134899110D03*
D18*
X117847230Y-134899110D03*
D17*
X122927230Y-134899110D03*
D19*
X120387230Y-129819110D03*
X114037230Y-132359110D03*
G04 #@! TD*
D17*
G04 #@! TO.C,SW5*
X93717230Y-115849110D03*
D18*
X98797230Y-115849110D03*
D17*
X103877230Y-115849110D03*
D19*
X101337230Y-110769110D03*
X94987230Y-113309110D03*
G04 #@! TD*
D17*
G04 #@! TO.C,SW11*
X131817230Y-134899110D03*
D18*
X136897230Y-134899110D03*
D17*
X141977230Y-134899110D03*
D19*
X139437230Y-129819110D03*
X133087230Y-132359110D03*
G04 #@! TD*
D17*
G04 #@! TO.C,SW14*
X112767230Y-153949110D03*
D18*
X117847230Y-153949110D03*
D17*
X122927230Y-153949110D03*
D19*
X120387230Y-148869110D03*
X114037230Y-151409110D03*
G04 #@! TD*
D17*
G04 #@! TO.C,SW6*
X112767230Y-115849110D03*
D18*
X117847230Y-115849110D03*
D17*
X122927230Y-115849110D03*
D19*
X120387230Y-110769110D03*
X114037230Y-113309110D03*
G04 #@! TD*
D22*
G04 #@! TO.C,U1*
X144069418Y-61911508D03*
D23*
X144069418Y-64451508D03*
X144069418Y-66991508D03*
X144069418Y-69531508D03*
X144069418Y-72071508D03*
X144069418Y-74611508D03*
X144069418Y-77151508D03*
X161319418Y-77151508D03*
X161319418Y-74611508D03*
X161319418Y-72071508D03*
D24*
X161319418Y-69531508D03*
X161319418Y-66991508D03*
X161319418Y-64451508D03*
X161319418Y-61911508D03*
G04 #@! TD*
D25*
G04 #@! TO.C,D5*
X89241364Y-120869856D03*
D26*
X89241364Y-113249856D03*
G04 #@! TD*
D25*
G04 #@! TO.C,D12*
X146497556Y-139980780D03*
D26*
X146497556Y-132360780D03*
G04 #@! TD*
D25*
G04 #@! TO.C,D3*
X127485092Y-101758932D03*
D26*
X127485092Y-94138932D03*
G04 #@! TD*
D25*
G04 #@! TO.C,D4*
X146585076Y-101758932D03*
D26*
X146585076Y-94138932D03*
G04 #@! TD*
D25*
G04 #@! TO.C,D15*
X127353812Y-159091704D03*
D26*
X127353812Y-151471704D03*
G04 #@! TD*
D25*
G04 #@! TO.C,D9*
X89197604Y-139980780D03*
D26*
X89197604Y-132360780D03*
G04 #@! TD*
D25*
G04 #@! TO.C,D16*
X146453796Y-159091704D03*
D26*
X146453796Y-151471704D03*
G04 #@! TD*
D25*
G04 #@! TO.C,D10*
X108297588Y-139980780D03*
D26*
X108297588Y-132360780D03*
G04 #@! TD*
D25*
G04 #@! TO.C,D2*
X108385108Y-101758932D03*
D26*
X108385108Y-94138932D03*
G04 #@! TD*
D25*
G04 #@! TO.C,D6*
X108341348Y-120869856D03*
D26*
X108341348Y-113249856D03*
G04 #@! TD*
D25*
G04 #@! TO.C,D1*
X89184267Y-101924894D03*
D26*
X89184267Y-94304894D03*
G04 #@! TD*
D25*
G04 #@! TO.C,D8*
X146541316Y-120869856D03*
D26*
X146541316Y-113249856D03*
G04 #@! TD*
D25*
G04 #@! TO.C,D11*
X127397572Y-139980780D03*
D26*
X127397572Y-132360780D03*
G04 #@! TD*
D25*
G04 #@! TO.C,D13*
X89153844Y-159091704D03*
D26*
X89153844Y-151471704D03*
G04 #@! TD*
D25*
G04 #@! TO.C,D14*
X108253828Y-159091704D03*
D26*
X108253828Y-151471704D03*
G04 #@! TD*
D25*
G04 #@! TO.C,D7*
X127441332Y-120869856D03*
D26*
X127441332Y-113249856D03*
G04 #@! TD*
%LPD*%
M02*
