G04 #@! TF.GenerationSoftware,KiCad,Pcbnew,10.0.4*
G04 #@! TF.CreationDate,2026-08-05T12:58:12-04:00*
G04 #@! TF.ProjectId,KiCad Work,4b694361-6420-4576-9f72-6b2e6b696361,rev?*
G04 #@! TF.SameCoordinates,Original*
G04 #@! TF.FileFunction,Copper,L2,Bot*
G04 #@! TF.FilePolarity,Positive*
%FSLAX46Y46*%
G04 Gerber Fmt 4.6, Leading zero omitted, Abs format (unit mm)*
G04 Created by KiCad (PCBNEW 10.0.4) date 2026-08-05 12:58:12*
%MOMM*%
%LPD*%
G01*
G04 APERTURE LIST*
G04 Aperture macros list*
%AMRoundRect*
0 Rectangle with rounded corners*
0 $1 Rounding radius*
0 $2 $3 $4 $5 $6 $7 $8 $9 X,Y pos of 4 corners*
0 Add a 4 corners polygon primitive as box body*
4,1,4,$2,$3,$4,$5,$6,$7,$8,$9,$2,$3,0*
0 Add four circle primitives for the rounded corners*
1,1,$1+$1,$2,$3*
1,1,$1+$1,$4,$5*
1,1,$1+$1,$6,$7*
1,1,$1+$1,$8,$9*
0 Add four rect primitives between the rounded corners*
20,1,$1+$1,$2,$3,$4,$5,0*
20,1,$1+$1,$4,$5,$6,$7,0*
20,1,$1+$1,$6,$7,$8,$9,0*
20,1,$1+$1,$8,$9,$2,$3,0*%
G04 Aperture macros list end*
G04 #@! TA.AperFunction,ComponentPad*
%ADD10C,2.200000*%
G04 #@! TD*
G04 #@! TA.AperFunction,ComponentPad*
%ADD11R,1.700000X1.700000*%
G04 #@! TD*
G04 #@! TA.AperFunction,ComponentPad*
%ADD12O,1.700000X1.700000*%
G04 #@! TD*
G04 #@! TA.AperFunction,ComponentPad*
%ADD13R,3.500000X1.700000*%
G04 #@! TD*
G04 #@! TA.AperFunction,ComponentPad*
%ADD14O,3.600000X1.700000*%
G04 #@! TD*
G04 #@! TA.AperFunction,ComponentPad*
%ADD15O,3.700000X1.700000*%
G04 #@! TD*
G04 #@! TA.AperFunction,ComponentPad*
%ADD16RoundRect,0.250000X0.550000X-0.550000X0.550000X0.550000X-0.550000X0.550000X-0.550000X-0.550000X0*%
G04 #@! TD*
G04 #@! TA.AperFunction,ComponentPad*
%ADD17C,1.600000*%
G04 #@! TD*
G04 #@! TA.AperFunction,Conductor*
%ADD18C,0.200000*%
G04 #@! TD*
G04 APERTURE END LIST*
D10*
G04 #@! TO.P,SW16,1,1_1*
G04 #@! TO.N,Column 3*
X158487230Y-148869110D03*
G04 #@! TO.P,SW16,2,2_2*
G04 #@! TO.N,Net-(D16-A)*
X152137230Y-151409110D03*
G04 #@! TD*
D11*
G04 #@! TO.P,J1,1,GND_1*
G04 #@! TO.N,Net-(J1-GND)*
X123786800Y-66024482D03*
D12*
G04 #@! TO.P,J1,2,VCC_2*
G04 #@! TO.N,Net-(J1-VCC)*
X123786800Y-68564482D03*
G04 #@! TO.P,J1,3,SCL_3*
G04 #@! TO.N,Net-(J1-SCL)*
X123786800Y-71104482D03*
G04 #@! TO.P,J1,4,SDA_4*
G04 #@! TO.N,Net-(J1-SDA)*
X123786800Y-73644482D03*
G04 #@! TD*
D10*
G04 #@! TO.P,SW9,1,1_1*
G04 #@! TO.N,Column 0*
X101337230Y-129819110D03*
G04 #@! TO.P,SW9,2,2_2*
G04 #@! TO.N,Net-(D9-A)*
X94987230Y-132359110D03*
G04 #@! TD*
G04 #@! TO.P,SW12,1,1_1*
G04 #@! TO.N,Column 3*
X158487230Y-129819110D03*
G04 #@! TO.P,SW12,2,2_2*
G04 #@! TO.N,Net-(D12-A)*
X152137230Y-132359110D03*
G04 #@! TD*
G04 #@! TO.P,SW1,1,1_1*
G04 #@! TO.N,Column 0*
X101337230Y-91719110D03*
G04 #@! TO.P,SW1,2,2_2*
G04 #@! TO.N,Net-(D1-A)*
X94987230Y-94259110D03*
G04 #@! TD*
G04 #@! TO.P,SW2,1,1_1*
G04 #@! TO.N,Column 1*
X120387230Y-91719110D03*
G04 #@! TO.P,SW2,2,2_2*
G04 #@! TO.N,Net-(D2-A)*
X114037230Y-94259110D03*
G04 #@! TD*
G04 #@! TO.P,SW13,1,1_1*
G04 #@! TO.N,Column 0*
X101337230Y-148869110D03*
G04 #@! TO.P,SW13,2,2_2*
G04 #@! TO.N,Net-(D13-A)*
X94987230Y-151409110D03*
G04 #@! TD*
G04 #@! TO.P,SW8,1,1_1*
G04 #@! TO.N,Column 3*
X158487230Y-110769110D03*
G04 #@! TO.P,SW8,2,2_2*
G04 #@! TO.N,Net-(D8-A)*
X152137230Y-113309110D03*
G04 #@! TD*
G04 #@! TO.P,SW7,1,1_1*
G04 #@! TO.N,Column 2*
X139437230Y-110769110D03*
G04 #@! TO.P,SW7,2,2_2*
G04 #@! TO.N,Net-(D7-A)*
X133087230Y-113309110D03*
G04 #@! TD*
G04 #@! TO.P,SW4,1,1_1*
G04 #@! TO.N,Column 3*
X158487230Y-91719110D03*
G04 #@! TO.P,SW4,2,2_2*
G04 #@! TO.N,Net-(D4-A)*
X152137230Y-94259110D03*
G04 #@! TD*
G04 #@! TO.P,SW15,1,1_1*
G04 #@! TO.N,Column 2*
X139437230Y-148869110D03*
G04 #@! TO.P,SW15,2,2_2*
G04 #@! TO.N,Net-(D15-A)*
X133087230Y-151409110D03*
G04 #@! TD*
G04 #@! TO.P,SW3,1,1_1*
G04 #@! TO.N,Column 2*
X139437230Y-91719110D03*
G04 #@! TO.P,SW3,2,2_2*
G04 #@! TO.N,Net-(D3-A)*
X133087230Y-94259110D03*
G04 #@! TD*
G04 #@! TO.P,SW10,1,1_1*
G04 #@! TO.N,Column 1*
X120387230Y-129819110D03*
G04 #@! TO.P,SW10,2,2_2*
G04 #@! TO.N,Net-(D10-A)*
X114037230Y-132359110D03*
G04 #@! TD*
G04 #@! TO.P,SW5,1,1_1*
G04 #@! TO.N,Column 0*
X101337230Y-110769110D03*
G04 #@! TO.P,SW5,2,2_2*
G04 #@! TO.N,Net-(D5-A)*
X94987230Y-113309110D03*
G04 #@! TD*
G04 #@! TO.P,SW11,1,1_1*
G04 #@! TO.N,Column 2*
X139437230Y-129819110D03*
G04 #@! TO.P,SW11,2,2_2*
G04 #@! TO.N,Net-(D11-A)*
X133087230Y-132359110D03*
G04 #@! TD*
G04 #@! TO.P,SW14,1,1_1*
G04 #@! TO.N,Column 1*
X120387230Y-148869110D03*
G04 #@! TO.P,SW14,2,2_2*
G04 #@! TO.N,Net-(D14-A)*
X114037230Y-151409110D03*
G04 #@! TD*
G04 #@! TO.P,SW6,1,1_1*
G04 #@! TO.N,Column 1*
X120387230Y-110769110D03*
G04 #@! TO.P,SW6,2,2_2*
G04 #@! TO.N,Net-(D6-A)*
X114037230Y-113309110D03*
G04 #@! TD*
D13*
G04 #@! TO.P,U1,1,PA02_A0_D0_1*
G04 #@! TO.N,Column 0*
X144069418Y-61911508D03*
D14*
G04 #@! TO.P,U1,2,PA4_A1_D1_2*
G04 #@! TO.N,Column 1*
X144069418Y-64451508D03*
G04 #@! TO.P,U1,3,PA10_A2_D2_3*
G04 #@! TO.N,Column 2*
X144069418Y-66991508D03*
G04 #@! TO.P,U1,4,PA11_A3_D3_4*
G04 #@! TO.N,Column 3*
X144069418Y-69531508D03*
G04 #@! TO.P,U1,5,PA8_A4_D4_SDA_5*
G04 #@! TO.N,Net-(J1-SDA)*
X144069418Y-72071508D03*
G04 #@! TO.P,U1,6,PA9_A5_D5_SCL_6*
G04 #@! TO.N,Net-(J1-SCL)*
X144069418Y-74611508D03*
G04 #@! TO.P,U1,7,PB08_A6_D6_TX_7*
G04 #@! TO.N,Row 0*
X144069418Y-77151508D03*
G04 #@! TO.P,U1,8,PB09_A7_D7_RX_8*
G04 #@! TO.N,Row 1*
X161319418Y-77151508D03*
G04 #@! TO.P,U1,9,PA7_A8_D8_SCK_9*
G04 #@! TO.N,Row 2*
X161319418Y-74611508D03*
G04 #@! TO.P,U1,10,PA5_A9_D9_MISO_10*
G04 #@! TO.N,Row 3*
X161319418Y-72071508D03*
D15*
G04 #@! TO.P,U1,11,PA6_A10_D10_MOSI_11*
G04 #@! TO.N,unconnected-(U1-PA6_A10_D10_MOSI-Pad11)*
X161319418Y-69531508D03*
G04 #@! TO.P,U1,12,3V3_12*
G04 #@! TO.N,Net-(J1-VCC)*
X161319418Y-66991508D03*
G04 #@! TO.P,U1,13,GND_13*
G04 #@! TO.N,Net-(J1-GND)*
X161319418Y-64451508D03*
G04 #@! TO.P,U1,14,5V_14*
G04 #@! TO.N,unconnected-(U1-5V-Pad14)*
X161319418Y-61911508D03*
G04 #@! TD*
D16*
G04 #@! TO.P,D5,1,K_1*
G04 #@! TO.N,Row 1*
X89241364Y-120869856D03*
D17*
G04 #@! TO.P,D5,2,A_2*
G04 #@! TO.N,Net-(D5-A)*
X89241364Y-113249856D03*
G04 #@! TD*
D16*
G04 #@! TO.P,D12,1,K_1*
G04 #@! TO.N,Row 2*
X146497556Y-139980780D03*
D17*
G04 #@! TO.P,D12,2,A_2*
G04 #@! TO.N,Net-(D12-A)*
X146497556Y-132360780D03*
G04 #@! TD*
D16*
G04 #@! TO.P,D3,1,K_1*
G04 #@! TO.N,Row 0*
X127485092Y-101758932D03*
D17*
G04 #@! TO.P,D3,2,A_2*
G04 #@! TO.N,Net-(D3-A)*
X127485092Y-94138932D03*
G04 #@! TD*
D16*
G04 #@! TO.P,D4,1,K_1*
G04 #@! TO.N,Row 0*
X146585076Y-101758932D03*
D17*
G04 #@! TO.P,D4,2,A_2*
G04 #@! TO.N,Net-(D4-A)*
X146585076Y-94138932D03*
G04 #@! TD*
D16*
G04 #@! TO.P,D15,1,K_1*
G04 #@! TO.N,Row 3*
X127353812Y-159091704D03*
D17*
G04 #@! TO.P,D15,2,A_2*
G04 #@! TO.N,Net-(D15-A)*
X127353812Y-151471704D03*
G04 #@! TD*
D16*
G04 #@! TO.P,D9,1,K_1*
G04 #@! TO.N,Row 2*
X89197604Y-139980780D03*
D17*
G04 #@! TO.P,D9,2,A_2*
G04 #@! TO.N,Net-(D9-A)*
X89197604Y-132360780D03*
G04 #@! TD*
D16*
G04 #@! TO.P,D16,1,K_1*
G04 #@! TO.N,Row 3*
X146453796Y-159091704D03*
D17*
G04 #@! TO.P,D16,2,A_2*
G04 #@! TO.N,Net-(D16-A)*
X146453796Y-151471704D03*
G04 #@! TD*
D16*
G04 #@! TO.P,D10,1,K_1*
G04 #@! TO.N,Row 2*
X108297588Y-139980780D03*
D17*
G04 #@! TO.P,D10,2,A_2*
G04 #@! TO.N,Net-(D10-A)*
X108297588Y-132360780D03*
G04 #@! TD*
D16*
G04 #@! TO.P,D2,1,K_1*
G04 #@! TO.N,Row 0*
X108385108Y-101758932D03*
D17*
G04 #@! TO.P,D2,2,A_2*
G04 #@! TO.N,Net-(D2-A)*
X108385108Y-94138932D03*
G04 #@! TD*
D16*
G04 #@! TO.P,D6,1,K_1*
G04 #@! TO.N,Row 1*
X108341348Y-120869856D03*
D17*
G04 #@! TO.P,D6,2,A_2*
G04 #@! TO.N,Net-(D6-A)*
X108341348Y-113249856D03*
G04 #@! TD*
D16*
G04 #@! TO.P,D1,1,K_1*
G04 #@! TO.N,Row 0*
X89184267Y-101924894D03*
D17*
G04 #@! TO.P,D1,2,A_2*
G04 #@! TO.N,Net-(D1-A)*
X89184267Y-94304894D03*
G04 #@! TD*
D16*
G04 #@! TO.P,D8,1,K_1*
G04 #@! TO.N,Row 1*
X146541316Y-120869856D03*
D17*
G04 #@! TO.P,D8,2,A_2*
G04 #@! TO.N,Net-(D8-A)*
X146541316Y-113249856D03*
G04 #@! TD*
D16*
G04 #@! TO.P,D11,1,K_1*
G04 #@! TO.N,Row 2*
X127397572Y-139980780D03*
D17*
G04 #@! TO.P,D11,2,A_2*
G04 #@! TO.N,Net-(D11-A)*
X127397572Y-132360780D03*
G04 #@! TD*
D16*
G04 #@! TO.P,D13,1,K_1*
G04 #@! TO.N,Row 3*
X89153844Y-159091704D03*
D17*
G04 #@! TO.P,D13,2,A_2*
G04 #@! TO.N,Net-(D13-A)*
X89153844Y-151471704D03*
G04 #@! TD*
D16*
G04 #@! TO.P,D14,1,K_1*
G04 #@! TO.N,Row 3*
X108253828Y-159091704D03*
D17*
G04 #@! TO.P,D14,2,A_2*
G04 #@! TO.N,Net-(D14-A)*
X108253828Y-151471704D03*
G04 #@! TD*
D16*
G04 #@! TO.P,D7,1,K_1*
G04 #@! TO.N,Row 1*
X127441332Y-120869856D03*
D17*
G04 #@! TO.P,D7,2,A_2*
G04 #@! TO.N,Net-(D7-A)*
X127441332Y-113249856D03*
G04 #@! TD*
G04 #@! TO.N,Column 3*
D18*
X158487230Y-91719110D02*
X158487230Y-82949320D01*
X158487230Y-82949320D02*
X145069418Y-69531508D01*
G04 #@! TO.N,Net-(J1-VCC)*
X123786800Y-68564482D02*
X123969774Y-68381508D01*
X160319418Y-66991508D02*
X161584418Y-66991508D01*
X123969774Y-68381508D02*
X158929418Y-68381508D01*
X158929418Y-68381508D02*
X160319418Y-66991508D01*
G04 #@! TO.N,Net-(J1-SCL)*
X127293826Y-74611508D02*
X145069418Y-74611508D01*
X123786800Y-71104482D02*
X127293826Y-74611508D01*
G04 #@! TO.N,Net-(J1-SDA)*
X123786800Y-73644482D02*
X122636800Y-72494482D01*
X123310454Y-69954482D02*
X126109774Y-69954482D01*
X122636800Y-72494482D02*
X122636800Y-70628136D01*
X126109774Y-69954482D02*
X128226800Y-72071508D01*
X128226800Y-72071508D02*
X145069418Y-72071508D01*
X122636800Y-70628136D02*
X123310454Y-69954482D01*
G04 #@! TO.N,Row 0*
X89184267Y-101924894D02*
X146419114Y-101924894D01*
X146419114Y-101924894D02*
X146585076Y-101758932D01*
X145069418Y-100243274D02*
X145069418Y-77151508D01*
X146585076Y-101758932D02*
X145069418Y-100243274D01*
G04 #@! TO.N,Row 1*
X89241364Y-120869856D02*
X146541316Y-120869856D01*
X162227230Y-79059320D02*
X160319418Y-77151508D01*
X162227230Y-112952054D02*
X162227230Y-79059320D01*
X154309428Y-120869856D02*
X162227230Y-112952054D01*
X146541316Y-120869856D02*
X154309428Y-120869856D01*
G04 #@! TO.N,Row 2*
X163419418Y-79360098D02*
X163419418Y-139899938D01*
X164920196Y-76797602D02*
X164920196Y-77859320D01*
X162734102Y-74611508D02*
X164920196Y-76797602D01*
X161584418Y-74611508D02*
X160319418Y-74611508D01*
X89197604Y-139980780D02*
X146497556Y-139980780D01*
X164920196Y-77859320D02*
X163419418Y-79360098D01*
X162962756Y-139980780D02*
X146497556Y-139980780D01*
X160319418Y-74611508D02*
X162734102Y-74611508D01*
X163312350Y-139792870D02*
X163150666Y-139792870D01*
X163150666Y-139792870D02*
X162962756Y-139980780D01*
X163419418Y-139899938D02*
X163312350Y-139792870D01*
G04 #@! TO.N,Row 3*
X163819418Y-158964768D02*
X163819418Y-80021816D01*
X89153844Y-159091704D02*
X146453796Y-159091704D01*
X160319418Y-72071508D02*
X161584418Y-72071508D01*
X165981914Y-77859320D02*
X165981914Y-73815414D01*
X165981914Y-73815414D02*
X165628008Y-73461508D01*
X163819418Y-80021816D02*
X165981914Y-77859320D01*
X164061444Y-73461508D02*
X162671444Y-72071508D01*
X165628008Y-73461508D02*
X164061444Y-73461508D01*
X162671444Y-72071508D02*
X160319418Y-72071508D01*
X163692482Y-159091704D02*
X163819418Y-158964768D01*
X146453796Y-159091704D02*
X163692482Y-159091704D01*
G04 #@! TD*
M02*
