M48
; DRILL file KiCad 10.0.4 date 2026-08-05T12:58:12
; FORMAT={-:-/ absolute / metric / decimal}
; #@! TF.CreationDate,2026-08-05T12:58:12-04:00
; #@! TF.GenerationSoftware,Kicad,Pcbnew,10.0.4
; #@! TF.FileFunction,NonPlated,1,2,NPTH
FMAT,2
METRIC
; #@! TA.AperFunction,NonPlated,NPTH,ComponentDrill
T1C1.700
; #@! TA.AperFunction,NonPlated,NPTH,ComponentDrill
T2C4.000
%
G90
G05
T1
X93.717Y-96.799
X93.717Y-115.849
X93.717Y-134.899
X93.717Y-153.949
X103.877Y-96.799
X103.877Y-115.849
X103.877Y-134.899
X103.877Y-153.949
X112.767Y-96.799
X112.767Y-115.849
X112.767Y-134.899
X112.767Y-153.949
X122.927Y-96.799
X122.927Y-115.849
X122.927Y-134.899
X122.927Y-153.949
X131.817Y-96.799
X131.817Y-115.849
X131.817Y-134.899
X131.817Y-153.949
X141.977Y-96.799
X141.977Y-115.849
X141.977Y-134.899
X141.977Y-153.949
X150.867Y-96.799
X150.867Y-115.849
X150.867Y-134.899
X150.867Y-153.949
X161.027Y-96.799
X161.027Y-115.849
X161.027Y-134.899
X161.027Y-153.949
T2
X98.797Y-96.799
X98.797Y-115.849
X98.797Y-134.899
X98.797Y-153.949
X117.847Y-96.799
X117.847Y-115.849
X117.847Y-134.899
X117.847Y-153.949
X136.897Y-96.799
X136.897Y-115.849
X136.897Y-134.899
X136.897Y-153.949
X155.947Y-96.799
X155.947Y-115.849
X155.947Y-134.899
X155.947Y-153.949
M30
