G04 #@! TF.GenerationSoftware,KiCad,Pcbnew,10.0.4*
G04 #@! TF.CreationDate,2026-08-05T12:58:12-04:00*
G04 #@! TF.ProjectId,KiCad Work,4b694361-6420-4576-9f72-6b2e6b696361,rev?*
G04 #@! TF.SameCoordinates,Original*
G04 #@! TF.FileFunction,Legend,Bot*
G04 #@! TF.FilePolarity,Positive*
%FSLAX46Y46*%
G04 Gerber Fmt 4.6, Leading zero omitted, Abs format (unit mm)*
G04 Created by KiCad (PCBNEW 10.0.4) date 2026-08-05 12:58:12*
%MOMM*%
%LPD*%
G01*
G04 APERTURE LIST*
G04 Aperture macros list*
%AMRoundRect*
0 Rectangle with rounded corners*
0 $1 Rounding radius*
0 $2 $3 $4 $5 $6 $7 $8 $9 X,Y pos of 4 corners*
0 Add a 4 corners polygon primitive as box body*
4,1,4,$2,$3,$4,$5,$6,$7,$8,$9,$2,$3,0*
0 Add four circle primitives for the rounded corners*
1,1,$1+$1,$2,$3*
1,1,$1+$1,$4,$5*
1,1,$1+$1,$6,$7*
1,1,$1+$1,$8,$9*
0 Add four rect primitives between the rounded corners*
20,1,$1+$1,$2,$3,$4,$5,0*
20,1,$1+$1,$4,$5,$6,$7,0*
20,1,$1+$1,$6,$7,$8,$9,0*
20,1,$1+$1,$8,$9,$2,$3,0*%
G04 Aperture macros list end*
%ADD10C,0.150000*%
%ADD11C,0.120000*%
%ADD12C,1.700000*%
%ADD13C,4.000000*%
%ADD14C,2.200000*%
%ADD15R,1.700000X1.700000*%
%ADD16O,1.700000X1.700000*%
%ADD17R,3.500000X1.700000*%
%ADD18O,3.600000X1.700000*%
%ADD19O,3.700000X1.700000*%
%ADD20RoundRect,0.250000X0.550000X-0.550000X0.550000X0.550000X-0.550000X0.550000X-0.550000X-0.550000X0*%
%ADD21C,1.600000*%
G04 APERTURE END LIST*
D10*
X91816183Y-116321761D02*
X90816183Y-116321761D01*
X90816183Y-116321761D02*
X90816183Y-116559856D01*
X90816183Y-116559856D02*
X90863802Y-116702713D01*
X90863802Y-116702713D02*
X90959040Y-116797951D01*
X90959040Y-116797951D02*
X91054278Y-116845570D01*
X91054278Y-116845570D02*
X91244754Y-116893189D01*
X91244754Y-116893189D02*
X91387611Y-116893189D01*
X91387611Y-116893189D02*
X91578087Y-116845570D01*
X91578087Y-116845570D02*
X91673325Y-116797951D01*
X91673325Y-116797951D02*
X91768564Y-116702713D01*
X91768564Y-116702713D02*
X91816183Y-116559856D01*
X91816183Y-116559856D02*
X91816183Y-116321761D01*
X90816183Y-117797951D02*
X90816183Y-117321761D01*
X90816183Y-117321761D02*
X91292373Y-117274142D01*
X91292373Y-117274142D02*
X91244754Y-117321761D01*
X91244754Y-117321761D02*
X91197135Y-117416999D01*
X91197135Y-117416999D02*
X91197135Y-117655094D01*
X91197135Y-117655094D02*
X91244754Y-117750332D01*
X91244754Y-117750332D02*
X91292373Y-117797951D01*
X91292373Y-117797951D02*
X91387611Y-117845570D01*
X91387611Y-117845570D02*
X91625706Y-117845570D01*
X91625706Y-117845570D02*
X91720944Y-117797951D01*
X91720944Y-117797951D02*
X91768564Y-117750332D01*
X91768564Y-117750332D02*
X91816183Y-117655094D01*
X91816183Y-117655094D02*
X91816183Y-117416999D01*
X91816183Y-117416999D02*
X91768564Y-117321761D01*
X91768564Y-117321761D02*
X91720944Y-117274142D01*
X91496183Y-120607951D02*
X90496183Y-120607951D01*
X91496183Y-121179379D02*
X90924754Y-120750808D01*
X90496183Y-121179379D02*
X91067611Y-120607951D01*
X149072375Y-134956494D02*
X148072375Y-134956494D01*
X148072375Y-134956494D02*
X148072375Y-135194589D01*
X148072375Y-135194589D02*
X148119994Y-135337446D01*
X148119994Y-135337446D02*
X148215232Y-135432684D01*
X148215232Y-135432684D02*
X148310470Y-135480303D01*
X148310470Y-135480303D02*
X148500946Y-135527922D01*
X148500946Y-135527922D02*
X148643803Y-135527922D01*
X148643803Y-135527922D02*
X148834279Y-135480303D01*
X148834279Y-135480303D02*
X148929517Y-135432684D01*
X148929517Y-135432684D02*
X149024756Y-135337446D01*
X149024756Y-135337446D02*
X149072375Y-135194589D01*
X149072375Y-135194589D02*
X149072375Y-134956494D01*
X149072375Y-136480303D02*
X149072375Y-135908875D01*
X149072375Y-136194589D02*
X148072375Y-136194589D01*
X148072375Y-136194589D02*
X148215232Y-136099351D01*
X148215232Y-136099351D02*
X148310470Y-136004113D01*
X148310470Y-136004113D02*
X148358089Y-135908875D01*
X148167613Y-136861256D02*
X148119994Y-136908875D01*
X148119994Y-136908875D02*
X148072375Y-137004113D01*
X148072375Y-137004113D02*
X148072375Y-137242208D01*
X148072375Y-137242208D02*
X148119994Y-137337446D01*
X148119994Y-137337446D02*
X148167613Y-137385065D01*
X148167613Y-137385065D02*
X148262851Y-137432684D01*
X148262851Y-137432684D02*
X148358089Y-137432684D01*
X148358089Y-137432684D02*
X148500946Y-137385065D01*
X148500946Y-137385065D02*
X149072375Y-136813637D01*
X149072375Y-136813637D02*
X149072375Y-137432684D01*
X148752375Y-139718875D02*
X147752375Y-139718875D01*
X148752375Y-140290303D02*
X148180946Y-139861732D01*
X147752375Y-140290303D02*
X148323803Y-139718875D01*
X130059911Y-97210837D02*
X129059911Y-97210837D01*
X129059911Y-97210837D02*
X129059911Y-97448932D01*
X129059911Y-97448932D02*
X129107530Y-97591789D01*
X129107530Y-97591789D02*
X129202768Y-97687027D01*
X129202768Y-97687027D02*
X129298006Y-97734646D01*
X129298006Y-97734646D02*
X129488482Y-97782265D01*
X129488482Y-97782265D02*
X129631339Y-97782265D01*
X129631339Y-97782265D02*
X129821815Y-97734646D01*
X129821815Y-97734646D02*
X129917053Y-97687027D01*
X129917053Y-97687027D02*
X130012292Y-97591789D01*
X130012292Y-97591789D02*
X130059911Y-97448932D01*
X130059911Y-97448932D02*
X130059911Y-97210837D01*
X129059911Y-98115599D02*
X129059911Y-98734646D01*
X129059911Y-98734646D02*
X129440863Y-98401313D01*
X129440863Y-98401313D02*
X129440863Y-98544170D01*
X129440863Y-98544170D02*
X129488482Y-98639408D01*
X129488482Y-98639408D02*
X129536101Y-98687027D01*
X129536101Y-98687027D02*
X129631339Y-98734646D01*
X129631339Y-98734646D02*
X129869434Y-98734646D01*
X129869434Y-98734646D02*
X129964672Y-98687027D01*
X129964672Y-98687027D02*
X130012292Y-98639408D01*
X130012292Y-98639408D02*
X130059911Y-98544170D01*
X130059911Y-98544170D02*
X130059911Y-98258456D01*
X130059911Y-98258456D02*
X130012292Y-98163218D01*
X130012292Y-98163218D02*
X129964672Y-98115599D01*
X129739911Y-101497027D02*
X128739911Y-101497027D01*
X129739911Y-102068455D02*
X129168482Y-101639884D01*
X128739911Y-102068455D02*
X129311339Y-101497027D01*
X149159895Y-97210837D02*
X148159895Y-97210837D01*
X148159895Y-97210837D02*
X148159895Y-97448932D01*
X148159895Y-97448932D02*
X148207514Y-97591789D01*
X148207514Y-97591789D02*
X148302752Y-97687027D01*
X148302752Y-97687027D02*
X148397990Y-97734646D01*
X148397990Y-97734646D02*
X148588466Y-97782265D01*
X148588466Y-97782265D02*
X148731323Y-97782265D01*
X148731323Y-97782265D02*
X148921799Y-97734646D01*
X148921799Y-97734646D02*
X149017037Y-97687027D01*
X149017037Y-97687027D02*
X149112276Y-97591789D01*
X149112276Y-97591789D02*
X149159895Y-97448932D01*
X149159895Y-97448932D02*
X149159895Y-97210837D01*
X148493228Y-98639408D02*
X149159895Y-98639408D01*
X148112276Y-98401313D02*
X148826561Y-98163218D01*
X148826561Y-98163218D02*
X148826561Y-98782265D01*
X148839895Y-101497027D02*
X147839895Y-101497027D01*
X148839895Y-102068455D02*
X148268466Y-101639884D01*
X147839895Y-102068455D02*
X148411323Y-101497027D01*
X129928631Y-154067418D02*
X128928631Y-154067418D01*
X128928631Y-154067418D02*
X128928631Y-154305513D01*
X128928631Y-154305513D02*
X128976250Y-154448370D01*
X128976250Y-154448370D02*
X129071488Y-154543608D01*
X129071488Y-154543608D02*
X129166726Y-154591227D01*
X129166726Y-154591227D02*
X129357202Y-154638846D01*
X129357202Y-154638846D02*
X129500059Y-154638846D01*
X129500059Y-154638846D02*
X129690535Y-154591227D01*
X129690535Y-154591227D02*
X129785773Y-154543608D01*
X129785773Y-154543608D02*
X129881012Y-154448370D01*
X129881012Y-154448370D02*
X129928631Y-154305513D01*
X129928631Y-154305513D02*
X129928631Y-154067418D01*
X129928631Y-155591227D02*
X129928631Y-155019799D01*
X129928631Y-155305513D02*
X128928631Y-155305513D01*
X128928631Y-155305513D02*
X129071488Y-155210275D01*
X129071488Y-155210275D02*
X129166726Y-155115037D01*
X129166726Y-155115037D02*
X129214345Y-155019799D01*
X128928631Y-156495989D02*
X128928631Y-156019799D01*
X128928631Y-156019799D02*
X129404821Y-155972180D01*
X129404821Y-155972180D02*
X129357202Y-156019799D01*
X129357202Y-156019799D02*
X129309583Y-156115037D01*
X129309583Y-156115037D02*
X129309583Y-156353132D01*
X129309583Y-156353132D02*
X129357202Y-156448370D01*
X129357202Y-156448370D02*
X129404821Y-156495989D01*
X129404821Y-156495989D02*
X129500059Y-156543608D01*
X129500059Y-156543608D02*
X129738154Y-156543608D01*
X129738154Y-156543608D02*
X129833392Y-156495989D01*
X129833392Y-156495989D02*
X129881012Y-156448370D01*
X129881012Y-156448370D02*
X129928631Y-156353132D01*
X129928631Y-156353132D02*
X129928631Y-156115037D01*
X129928631Y-156115037D02*
X129881012Y-156019799D01*
X129881012Y-156019799D02*
X129833392Y-155972180D01*
X129608631Y-158829799D02*
X128608631Y-158829799D01*
X129608631Y-159401227D02*
X129037202Y-158972656D01*
X128608631Y-159401227D02*
X129180059Y-158829799D01*
X91772423Y-135432685D02*
X90772423Y-135432685D01*
X90772423Y-135432685D02*
X90772423Y-135670780D01*
X90772423Y-135670780D02*
X90820042Y-135813637D01*
X90820042Y-135813637D02*
X90915280Y-135908875D01*
X90915280Y-135908875D02*
X91010518Y-135956494D01*
X91010518Y-135956494D02*
X91200994Y-136004113D01*
X91200994Y-136004113D02*
X91343851Y-136004113D01*
X91343851Y-136004113D02*
X91534327Y-135956494D01*
X91534327Y-135956494D02*
X91629565Y-135908875D01*
X91629565Y-135908875D02*
X91724804Y-135813637D01*
X91724804Y-135813637D02*
X91772423Y-135670780D01*
X91772423Y-135670780D02*
X91772423Y-135432685D01*
X91772423Y-136480304D02*
X91772423Y-136670780D01*
X91772423Y-136670780D02*
X91724804Y-136766018D01*
X91724804Y-136766018D02*
X91677184Y-136813637D01*
X91677184Y-136813637D02*
X91534327Y-136908875D01*
X91534327Y-136908875D02*
X91343851Y-136956494D01*
X91343851Y-136956494D02*
X90962899Y-136956494D01*
X90962899Y-136956494D02*
X90867661Y-136908875D01*
X90867661Y-136908875D02*
X90820042Y-136861256D01*
X90820042Y-136861256D02*
X90772423Y-136766018D01*
X90772423Y-136766018D02*
X90772423Y-136575542D01*
X90772423Y-136575542D02*
X90820042Y-136480304D01*
X90820042Y-136480304D02*
X90867661Y-136432685D01*
X90867661Y-136432685D02*
X90962899Y-136385066D01*
X90962899Y-136385066D02*
X91200994Y-136385066D01*
X91200994Y-136385066D02*
X91296232Y-136432685D01*
X91296232Y-136432685D02*
X91343851Y-136480304D01*
X91343851Y-136480304D02*
X91391470Y-136575542D01*
X91391470Y-136575542D02*
X91391470Y-136766018D01*
X91391470Y-136766018D02*
X91343851Y-136861256D01*
X91343851Y-136861256D02*
X91296232Y-136908875D01*
X91296232Y-136908875D02*
X91200994Y-136956494D01*
X91452423Y-139718875D02*
X90452423Y-139718875D01*
X91452423Y-140290303D02*
X90880994Y-139861732D01*
X90452423Y-140290303D02*
X91023851Y-139718875D01*
X149028615Y-154067418D02*
X148028615Y-154067418D01*
X148028615Y-154067418D02*
X148028615Y-154305513D01*
X148028615Y-154305513D02*
X148076234Y-154448370D01*
X148076234Y-154448370D02*
X148171472Y-154543608D01*
X148171472Y-154543608D02*
X148266710Y-154591227D01*
X148266710Y-154591227D02*
X148457186Y-154638846D01*
X148457186Y-154638846D02*
X148600043Y-154638846D01*
X148600043Y-154638846D02*
X148790519Y-154591227D01*
X148790519Y-154591227D02*
X148885757Y-154543608D01*
X148885757Y-154543608D02*
X148980996Y-154448370D01*
X148980996Y-154448370D02*
X149028615Y-154305513D01*
X149028615Y-154305513D02*
X149028615Y-154067418D01*
X149028615Y-155591227D02*
X149028615Y-155019799D01*
X149028615Y-155305513D02*
X148028615Y-155305513D01*
X148028615Y-155305513D02*
X148171472Y-155210275D01*
X148171472Y-155210275D02*
X148266710Y-155115037D01*
X148266710Y-155115037D02*
X148314329Y-155019799D01*
X148028615Y-156448370D02*
X148028615Y-156257894D01*
X148028615Y-156257894D02*
X148076234Y-156162656D01*
X148076234Y-156162656D02*
X148123853Y-156115037D01*
X148123853Y-156115037D02*
X148266710Y-156019799D01*
X148266710Y-156019799D02*
X148457186Y-155972180D01*
X148457186Y-155972180D02*
X148838138Y-155972180D01*
X148838138Y-155972180D02*
X148933376Y-156019799D01*
X148933376Y-156019799D02*
X148980996Y-156067418D01*
X148980996Y-156067418D02*
X149028615Y-156162656D01*
X149028615Y-156162656D02*
X149028615Y-156353132D01*
X149028615Y-156353132D02*
X148980996Y-156448370D01*
X148980996Y-156448370D02*
X148933376Y-156495989D01*
X148933376Y-156495989D02*
X148838138Y-156543608D01*
X148838138Y-156543608D02*
X148600043Y-156543608D01*
X148600043Y-156543608D02*
X148504805Y-156495989D01*
X148504805Y-156495989D02*
X148457186Y-156448370D01*
X148457186Y-156448370D02*
X148409567Y-156353132D01*
X148409567Y-156353132D02*
X148409567Y-156162656D01*
X148409567Y-156162656D02*
X148457186Y-156067418D01*
X148457186Y-156067418D02*
X148504805Y-156019799D01*
X148504805Y-156019799D02*
X148600043Y-155972180D01*
X148708615Y-158829799D02*
X147708615Y-158829799D01*
X148708615Y-159401227D02*
X148137186Y-158972656D01*
X147708615Y-159401227D02*
X148280043Y-158829799D01*
X110872407Y-134956494D02*
X109872407Y-134956494D01*
X109872407Y-134956494D02*
X109872407Y-135194589D01*
X109872407Y-135194589D02*
X109920026Y-135337446D01*
X109920026Y-135337446D02*
X110015264Y-135432684D01*
X110015264Y-135432684D02*
X110110502Y-135480303D01*
X110110502Y-135480303D02*
X110300978Y-135527922D01*
X110300978Y-135527922D02*
X110443835Y-135527922D01*
X110443835Y-135527922D02*
X110634311Y-135480303D01*
X110634311Y-135480303D02*
X110729549Y-135432684D01*
X110729549Y-135432684D02*
X110824788Y-135337446D01*
X110824788Y-135337446D02*
X110872407Y-135194589D01*
X110872407Y-135194589D02*
X110872407Y-134956494D01*
X110872407Y-136480303D02*
X110872407Y-135908875D01*
X110872407Y-136194589D02*
X109872407Y-136194589D01*
X109872407Y-136194589D02*
X110015264Y-136099351D01*
X110015264Y-136099351D02*
X110110502Y-136004113D01*
X110110502Y-136004113D02*
X110158121Y-135908875D01*
X109872407Y-137099351D02*
X109872407Y-137194589D01*
X109872407Y-137194589D02*
X109920026Y-137289827D01*
X109920026Y-137289827D02*
X109967645Y-137337446D01*
X109967645Y-137337446D02*
X110062883Y-137385065D01*
X110062883Y-137385065D02*
X110253359Y-137432684D01*
X110253359Y-137432684D02*
X110491454Y-137432684D01*
X110491454Y-137432684D02*
X110681930Y-137385065D01*
X110681930Y-137385065D02*
X110777168Y-137337446D01*
X110777168Y-137337446D02*
X110824788Y-137289827D01*
X110824788Y-137289827D02*
X110872407Y-137194589D01*
X110872407Y-137194589D02*
X110872407Y-137099351D01*
X110872407Y-137099351D02*
X110824788Y-137004113D01*
X110824788Y-137004113D02*
X110777168Y-136956494D01*
X110777168Y-136956494D02*
X110681930Y-136908875D01*
X110681930Y-136908875D02*
X110491454Y-136861256D01*
X110491454Y-136861256D02*
X110253359Y-136861256D01*
X110253359Y-136861256D02*
X110062883Y-136908875D01*
X110062883Y-136908875D02*
X109967645Y-136956494D01*
X109967645Y-136956494D02*
X109920026Y-137004113D01*
X109920026Y-137004113D02*
X109872407Y-137099351D01*
X110552407Y-139718875D02*
X109552407Y-139718875D01*
X110552407Y-140290303D02*
X109980978Y-139861732D01*
X109552407Y-140290303D02*
X110123835Y-139718875D01*
X110959927Y-97210837D02*
X109959927Y-97210837D01*
X109959927Y-97210837D02*
X109959927Y-97448932D01*
X109959927Y-97448932D02*
X110007546Y-97591789D01*
X110007546Y-97591789D02*
X110102784Y-97687027D01*
X110102784Y-97687027D02*
X110198022Y-97734646D01*
X110198022Y-97734646D02*
X110388498Y-97782265D01*
X110388498Y-97782265D02*
X110531355Y-97782265D01*
X110531355Y-97782265D02*
X110721831Y-97734646D01*
X110721831Y-97734646D02*
X110817069Y-97687027D01*
X110817069Y-97687027D02*
X110912308Y-97591789D01*
X110912308Y-97591789D02*
X110959927Y-97448932D01*
X110959927Y-97448932D02*
X110959927Y-97210837D01*
X110055165Y-98163218D02*
X110007546Y-98210837D01*
X110007546Y-98210837D02*
X109959927Y-98306075D01*
X109959927Y-98306075D02*
X109959927Y-98544170D01*
X109959927Y-98544170D02*
X110007546Y-98639408D01*
X110007546Y-98639408D02*
X110055165Y-98687027D01*
X110055165Y-98687027D02*
X110150403Y-98734646D01*
X110150403Y-98734646D02*
X110245641Y-98734646D01*
X110245641Y-98734646D02*
X110388498Y-98687027D01*
X110388498Y-98687027D02*
X110959927Y-98115599D01*
X110959927Y-98115599D02*
X110959927Y-98734646D01*
X110639927Y-101497027D02*
X109639927Y-101497027D01*
X110639927Y-102068455D02*
X110068498Y-101639884D01*
X109639927Y-102068455D02*
X110211355Y-101497027D01*
X110916167Y-116321761D02*
X109916167Y-116321761D01*
X109916167Y-116321761D02*
X109916167Y-116559856D01*
X109916167Y-116559856D02*
X109963786Y-116702713D01*
X109963786Y-116702713D02*
X110059024Y-116797951D01*
X110059024Y-116797951D02*
X110154262Y-116845570D01*
X110154262Y-116845570D02*
X110344738Y-116893189D01*
X110344738Y-116893189D02*
X110487595Y-116893189D01*
X110487595Y-116893189D02*
X110678071Y-116845570D01*
X110678071Y-116845570D02*
X110773309Y-116797951D01*
X110773309Y-116797951D02*
X110868548Y-116702713D01*
X110868548Y-116702713D02*
X110916167Y-116559856D01*
X110916167Y-116559856D02*
X110916167Y-116321761D01*
X109916167Y-117750332D02*
X109916167Y-117559856D01*
X109916167Y-117559856D02*
X109963786Y-117464618D01*
X109963786Y-117464618D02*
X110011405Y-117416999D01*
X110011405Y-117416999D02*
X110154262Y-117321761D01*
X110154262Y-117321761D02*
X110344738Y-117274142D01*
X110344738Y-117274142D02*
X110725690Y-117274142D01*
X110725690Y-117274142D02*
X110820928Y-117321761D01*
X110820928Y-117321761D02*
X110868548Y-117369380D01*
X110868548Y-117369380D02*
X110916167Y-117464618D01*
X110916167Y-117464618D02*
X110916167Y-117655094D01*
X110916167Y-117655094D02*
X110868548Y-117750332D01*
X110868548Y-117750332D02*
X110820928Y-117797951D01*
X110820928Y-117797951D02*
X110725690Y-117845570D01*
X110725690Y-117845570D02*
X110487595Y-117845570D01*
X110487595Y-117845570D02*
X110392357Y-117797951D01*
X110392357Y-117797951D02*
X110344738Y-117750332D01*
X110344738Y-117750332D02*
X110297119Y-117655094D01*
X110297119Y-117655094D02*
X110297119Y-117464618D01*
X110297119Y-117464618D02*
X110344738Y-117369380D01*
X110344738Y-117369380D02*
X110392357Y-117321761D01*
X110392357Y-117321761D02*
X110487595Y-117274142D01*
X110596167Y-120607951D02*
X109596167Y-120607951D01*
X110596167Y-121179379D02*
X110024738Y-120750808D01*
X109596167Y-121179379D02*
X110167595Y-120607951D01*
X91759086Y-97376799D02*
X90759086Y-97376799D01*
X90759086Y-97376799D02*
X90759086Y-97614894D01*
X90759086Y-97614894D02*
X90806705Y-97757751D01*
X90806705Y-97757751D02*
X90901943Y-97852989D01*
X90901943Y-97852989D02*
X90997181Y-97900608D01*
X90997181Y-97900608D02*
X91187657Y-97948227D01*
X91187657Y-97948227D02*
X91330514Y-97948227D01*
X91330514Y-97948227D02*
X91520990Y-97900608D01*
X91520990Y-97900608D02*
X91616228Y-97852989D01*
X91616228Y-97852989D02*
X91711467Y-97757751D01*
X91711467Y-97757751D02*
X91759086Y-97614894D01*
X91759086Y-97614894D02*
X91759086Y-97376799D01*
X91759086Y-98900608D02*
X91759086Y-98329180D01*
X91759086Y-98614894D02*
X90759086Y-98614894D01*
X90759086Y-98614894D02*
X90901943Y-98519656D01*
X90901943Y-98519656D02*
X90997181Y-98424418D01*
X90997181Y-98424418D02*
X91044800Y-98329180D01*
X91439086Y-101662989D02*
X90439086Y-101662989D01*
X91439086Y-102234417D02*
X90867657Y-101805846D01*
X90439086Y-102234417D02*
X91010514Y-101662989D01*
X149116135Y-116321761D02*
X148116135Y-116321761D01*
X148116135Y-116321761D02*
X148116135Y-116559856D01*
X148116135Y-116559856D02*
X148163754Y-116702713D01*
X148163754Y-116702713D02*
X148258992Y-116797951D01*
X148258992Y-116797951D02*
X148354230Y-116845570D01*
X148354230Y-116845570D02*
X148544706Y-116893189D01*
X148544706Y-116893189D02*
X148687563Y-116893189D01*
X148687563Y-116893189D02*
X148878039Y-116845570D01*
X148878039Y-116845570D02*
X148973277Y-116797951D01*
X148973277Y-116797951D02*
X149068516Y-116702713D01*
X149068516Y-116702713D02*
X149116135Y-116559856D01*
X149116135Y-116559856D02*
X149116135Y-116321761D01*
X148544706Y-117464618D02*
X148497087Y-117369380D01*
X148497087Y-117369380D02*
X148449468Y-117321761D01*
X148449468Y-117321761D02*
X148354230Y-117274142D01*
X148354230Y-117274142D02*
X148306611Y-117274142D01*
X148306611Y-117274142D02*
X148211373Y-117321761D01*
X148211373Y-117321761D02*
X148163754Y-117369380D01*
X148163754Y-117369380D02*
X148116135Y-117464618D01*
X148116135Y-117464618D02*
X148116135Y-117655094D01*
X148116135Y-117655094D02*
X148163754Y-117750332D01*
X148163754Y-117750332D02*
X148211373Y-117797951D01*
X148211373Y-117797951D02*
X148306611Y-117845570D01*
X148306611Y-117845570D02*
X148354230Y-117845570D01*
X148354230Y-117845570D02*
X148449468Y-117797951D01*
X148449468Y-117797951D02*
X148497087Y-117750332D01*
X148497087Y-117750332D02*
X148544706Y-117655094D01*
X148544706Y-117655094D02*
X148544706Y-117464618D01*
X148544706Y-117464618D02*
X148592325Y-117369380D01*
X148592325Y-117369380D02*
X148639944Y-117321761D01*
X148639944Y-117321761D02*
X148735182Y-117274142D01*
X148735182Y-117274142D02*
X148925658Y-117274142D01*
X148925658Y-117274142D02*
X149020896Y-117321761D01*
X149020896Y-117321761D02*
X149068516Y-117369380D01*
X149068516Y-117369380D02*
X149116135Y-117464618D01*
X149116135Y-117464618D02*
X149116135Y-117655094D01*
X149116135Y-117655094D02*
X149068516Y-117750332D01*
X149068516Y-117750332D02*
X149020896Y-117797951D01*
X149020896Y-117797951D02*
X148925658Y-117845570D01*
X148925658Y-117845570D02*
X148735182Y-117845570D01*
X148735182Y-117845570D02*
X148639944Y-117797951D01*
X148639944Y-117797951D02*
X148592325Y-117750332D01*
X148592325Y-117750332D02*
X148544706Y-117655094D01*
X148796135Y-120607951D02*
X147796135Y-120607951D01*
X148796135Y-121179379D02*
X148224706Y-120750808D01*
X147796135Y-121179379D02*
X148367563Y-120607951D01*
X129972391Y-134956494D02*
X128972391Y-134956494D01*
X128972391Y-134956494D02*
X128972391Y-135194589D01*
X128972391Y-135194589D02*
X129020010Y-135337446D01*
X129020010Y-135337446D02*
X129115248Y-135432684D01*
X129115248Y-135432684D02*
X129210486Y-135480303D01*
X129210486Y-135480303D02*
X129400962Y-135527922D01*
X129400962Y-135527922D02*
X129543819Y-135527922D01*
X129543819Y-135527922D02*
X129734295Y-135480303D01*
X129734295Y-135480303D02*
X129829533Y-135432684D01*
X129829533Y-135432684D02*
X129924772Y-135337446D01*
X129924772Y-135337446D02*
X129972391Y-135194589D01*
X129972391Y-135194589D02*
X129972391Y-134956494D01*
X129972391Y-136480303D02*
X129972391Y-135908875D01*
X129972391Y-136194589D02*
X128972391Y-136194589D01*
X128972391Y-136194589D02*
X129115248Y-136099351D01*
X129115248Y-136099351D02*
X129210486Y-136004113D01*
X129210486Y-136004113D02*
X129258105Y-135908875D01*
X129972391Y-137432684D02*
X129972391Y-136861256D01*
X129972391Y-137146970D02*
X128972391Y-137146970D01*
X128972391Y-137146970D02*
X129115248Y-137051732D01*
X129115248Y-137051732D02*
X129210486Y-136956494D01*
X129210486Y-136956494D02*
X129258105Y-136861256D01*
X129652391Y-139718875D02*
X128652391Y-139718875D01*
X129652391Y-140290303D02*
X129080962Y-139861732D01*
X128652391Y-140290303D02*
X129223819Y-139718875D01*
X91728663Y-154067418D02*
X90728663Y-154067418D01*
X90728663Y-154067418D02*
X90728663Y-154305513D01*
X90728663Y-154305513D02*
X90776282Y-154448370D01*
X90776282Y-154448370D02*
X90871520Y-154543608D01*
X90871520Y-154543608D02*
X90966758Y-154591227D01*
X90966758Y-154591227D02*
X91157234Y-154638846D01*
X91157234Y-154638846D02*
X91300091Y-154638846D01*
X91300091Y-154638846D02*
X91490567Y-154591227D01*
X91490567Y-154591227D02*
X91585805Y-154543608D01*
X91585805Y-154543608D02*
X91681044Y-154448370D01*
X91681044Y-154448370D02*
X91728663Y-154305513D01*
X91728663Y-154305513D02*
X91728663Y-154067418D01*
X91728663Y-155591227D02*
X91728663Y-155019799D01*
X91728663Y-155305513D02*
X90728663Y-155305513D01*
X90728663Y-155305513D02*
X90871520Y-155210275D01*
X90871520Y-155210275D02*
X90966758Y-155115037D01*
X90966758Y-155115037D02*
X91014377Y-155019799D01*
X90728663Y-155924561D02*
X90728663Y-156543608D01*
X90728663Y-156543608D02*
X91109615Y-156210275D01*
X91109615Y-156210275D02*
X91109615Y-156353132D01*
X91109615Y-156353132D02*
X91157234Y-156448370D01*
X91157234Y-156448370D02*
X91204853Y-156495989D01*
X91204853Y-156495989D02*
X91300091Y-156543608D01*
X91300091Y-156543608D02*
X91538186Y-156543608D01*
X91538186Y-156543608D02*
X91633424Y-156495989D01*
X91633424Y-156495989D02*
X91681044Y-156448370D01*
X91681044Y-156448370D02*
X91728663Y-156353132D01*
X91728663Y-156353132D02*
X91728663Y-156067418D01*
X91728663Y-156067418D02*
X91681044Y-155972180D01*
X91681044Y-155972180D02*
X91633424Y-155924561D01*
X91408663Y-158829799D02*
X90408663Y-158829799D01*
X91408663Y-159401227D02*
X90837234Y-158972656D01*
X90408663Y-159401227D02*
X90980091Y-158829799D01*
X110828647Y-154067418D02*
X109828647Y-154067418D01*
X109828647Y-154067418D02*
X109828647Y-154305513D01*
X109828647Y-154305513D02*
X109876266Y-154448370D01*
X109876266Y-154448370D02*
X109971504Y-154543608D01*
X109971504Y-154543608D02*
X110066742Y-154591227D01*
X110066742Y-154591227D02*
X110257218Y-154638846D01*
X110257218Y-154638846D02*
X110400075Y-154638846D01*
X110400075Y-154638846D02*
X110590551Y-154591227D01*
X110590551Y-154591227D02*
X110685789Y-154543608D01*
X110685789Y-154543608D02*
X110781028Y-154448370D01*
X110781028Y-154448370D02*
X110828647Y-154305513D01*
X110828647Y-154305513D02*
X110828647Y-154067418D01*
X110828647Y-155591227D02*
X110828647Y-155019799D01*
X110828647Y-155305513D02*
X109828647Y-155305513D01*
X109828647Y-155305513D02*
X109971504Y-155210275D01*
X109971504Y-155210275D02*
X110066742Y-155115037D01*
X110066742Y-155115037D02*
X110114361Y-155019799D01*
X110161980Y-156448370D02*
X110828647Y-156448370D01*
X109781028Y-156210275D02*
X110495313Y-155972180D01*
X110495313Y-155972180D02*
X110495313Y-156591227D01*
X110508647Y-158829799D02*
X109508647Y-158829799D01*
X110508647Y-159401227D02*
X109937218Y-158972656D01*
X109508647Y-159401227D02*
X110080075Y-158829799D01*
X130016151Y-116321761D02*
X129016151Y-116321761D01*
X129016151Y-116321761D02*
X129016151Y-116559856D01*
X129016151Y-116559856D02*
X129063770Y-116702713D01*
X129063770Y-116702713D02*
X129159008Y-116797951D01*
X129159008Y-116797951D02*
X129254246Y-116845570D01*
X129254246Y-116845570D02*
X129444722Y-116893189D01*
X129444722Y-116893189D02*
X129587579Y-116893189D01*
X129587579Y-116893189D02*
X129778055Y-116845570D01*
X129778055Y-116845570D02*
X129873293Y-116797951D01*
X129873293Y-116797951D02*
X129968532Y-116702713D01*
X129968532Y-116702713D02*
X130016151Y-116559856D01*
X130016151Y-116559856D02*
X130016151Y-116321761D01*
X129016151Y-117226523D02*
X129016151Y-117893189D01*
X129016151Y-117893189D02*
X130016151Y-117464618D01*
X129696151Y-120607951D02*
X128696151Y-120607951D01*
X129696151Y-121179379D02*
X129124722Y-120750808D01*
X128696151Y-121179379D02*
X129267579Y-120607951D01*
G04 #@! TO.C,D5*
D11*
X89241364Y-114289856D02*
X89241364Y-114939856D01*
X89241364Y-119829856D02*
X89241364Y-119179856D01*
X90361364Y-118339856D02*
X88121364Y-118339856D01*
X90361364Y-118459856D02*
X88121364Y-118459856D01*
X90361364Y-118579856D02*
X88121364Y-118579856D01*
X88121364Y-114939856D02*
X90361364Y-114939856D01*
X90361364Y-119179856D01*
X88121364Y-119179856D01*
X88121364Y-114939856D01*
G04 #@! TO.C,D12*
X146497556Y-133400780D02*
X146497556Y-134050780D01*
X146497556Y-138940780D02*
X146497556Y-138290780D01*
X147617556Y-137450780D02*
X145377556Y-137450780D01*
X147617556Y-137570780D02*
X145377556Y-137570780D01*
X147617556Y-137690780D02*
X145377556Y-137690780D01*
X145377556Y-134050780D02*
X147617556Y-134050780D01*
X147617556Y-138290780D01*
X145377556Y-138290780D01*
X145377556Y-134050780D01*
G04 #@! TO.C,D3*
X127485092Y-95178932D02*
X127485092Y-95828932D01*
X127485092Y-100718932D02*
X127485092Y-100068932D01*
X128605092Y-99228932D02*
X126365092Y-99228932D01*
X128605092Y-99348932D02*
X126365092Y-99348932D01*
X128605092Y-99468932D02*
X126365092Y-99468932D01*
X126365092Y-95828932D02*
X128605092Y-95828932D01*
X128605092Y-100068932D01*
X126365092Y-100068932D01*
X126365092Y-95828932D01*
G04 #@! TO.C,D4*
X146585076Y-95178932D02*
X146585076Y-95828932D01*
X146585076Y-100718932D02*
X146585076Y-100068932D01*
X147705076Y-99228932D02*
X145465076Y-99228932D01*
X147705076Y-99348932D02*
X145465076Y-99348932D01*
X147705076Y-99468932D02*
X145465076Y-99468932D01*
X145465076Y-95828932D02*
X147705076Y-95828932D01*
X147705076Y-100068932D01*
X145465076Y-100068932D01*
X145465076Y-95828932D01*
G04 #@! TO.C,D15*
X127353812Y-152511704D02*
X127353812Y-153161704D01*
X127353812Y-158051704D02*
X127353812Y-157401704D01*
X128473812Y-156561704D02*
X126233812Y-156561704D01*
X128473812Y-156681704D02*
X126233812Y-156681704D01*
X128473812Y-156801704D02*
X126233812Y-156801704D01*
X126233812Y-153161704D02*
X128473812Y-153161704D01*
X128473812Y-157401704D01*
X126233812Y-157401704D01*
X126233812Y-153161704D01*
G04 #@! TO.C,D9*
X89197604Y-133400780D02*
X89197604Y-134050780D01*
X89197604Y-138940780D02*
X89197604Y-138290780D01*
X90317604Y-137450780D02*
X88077604Y-137450780D01*
X90317604Y-137570780D02*
X88077604Y-137570780D01*
X90317604Y-137690780D02*
X88077604Y-137690780D01*
X88077604Y-134050780D02*
X90317604Y-134050780D01*
X90317604Y-138290780D01*
X88077604Y-138290780D01*
X88077604Y-134050780D01*
G04 #@! TO.C,D16*
X146453796Y-152511704D02*
X146453796Y-153161704D01*
X146453796Y-158051704D02*
X146453796Y-157401704D01*
X147573796Y-156561704D02*
X145333796Y-156561704D01*
X147573796Y-156681704D02*
X145333796Y-156681704D01*
X147573796Y-156801704D02*
X145333796Y-156801704D01*
X145333796Y-153161704D02*
X147573796Y-153161704D01*
X147573796Y-157401704D01*
X145333796Y-157401704D01*
X145333796Y-153161704D01*
G04 #@! TO.C,D10*
X108297588Y-133400780D02*
X108297588Y-134050780D01*
X108297588Y-138940780D02*
X108297588Y-138290780D01*
X109417588Y-137450780D02*
X107177588Y-137450780D01*
X109417588Y-137570780D02*
X107177588Y-137570780D01*
X109417588Y-137690780D02*
X107177588Y-137690780D01*
X107177588Y-134050780D02*
X109417588Y-134050780D01*
X109417588Y-138290780D01*
X107177588Y-138290780D01*
X107177588Y-134050780D01*
G04 #@! TO.C,D2*
X108385108Y-95178932D02*
X108385108Y-95828932D01*
X108385108Y-100718932D02*
X108385108Y-100068932D01*
X109505108Y-99228932D02*
X107265108Y-99228932D01*
X109505108Y-99348932D02*
X107265108Y-99348932D01*
X109505108Y-99468932D02*
X107265108Y-99468932D01*
X107265108Y-95828932D02*
X109505108Y-95828932D01*
X109505108Y-100068932D01*
X107265108Y-100068932D01*
X107265108Y-95828932D01*
G04 #@! TO.C,D6*
X108341348Y-114289856D02*
X108341348Y-114939856D01*
X108341348Y-119829856D02*
X108341348Y-119179856D01*
X109461348Y-118339856D02*
X107221348Y-118339856D01*
X109461348Y-118459856D02*
X107221348Y-118459856D01*
X109461348Y-118579856D02*
X107221348Y-118579856D01*
X107221348Y-114939856D02*
X109461348Y-114939856D01*
X109461348Y-119179856D01*
X107221348Y-119179856D01*
X107221348Y-114939856D01*
G04 #@! TO.C,D1*
X89184267Y-95344894D02*
X89184267Y-95994894D01*
X89184267Y-100884894D02*
X89184267Y-100234894D01*
X90304267Y-99394894D02*
X88064267Y-99394894D01*
X90304267Y-99514894D02*
X88064267Y-99514894D01*
X90304267Y-99634894D02*
X88064267Y-99634894D01*
X88064267Y-95994894D02*
X90304267Y-95994894D01*
X90304267Y-100234894D01*
X88064267Y-100234894D01*
X88064267Y-95994894D01*
G04 #@! TO.C,D8*
X146541316Y-114289856D02*
X146541316Y-114939856D01*
X146541316Y-119829856D02*
X146541316Y-119179856D01*
X147661316Y-118339856D02*
X145421316Y-118339856D01*
X147661316Y-118459856D02*
X145421316Y-118459856D01*
X147661316Y-118579856D02*
X145421316Y-118579856D01*
X145421316Y-114939856D02*
X147661316Y-114939856D01*
X147661316Y-119179856D01*
X145421316Y-119179856D01*
X145421316Y-114939856D01*
G04 #@! TO.C,D11*
X127397572Y-133400780D02*
X127397572Y-134050780D01*
X127397572Y-138940780D02*
X127397572Y-138290780D01*
X128517572Y-137450780D02*
X126277572Y-137450780D01*
X128517572Y-137570780D02*
X126277572Y-137570780D01*
X128517572Y-137690780D02*
X126277572Y-137690780D01*
X126277572Y-134050780D02*
X128517572Y-134050780D01*
X128517572Y-138290780D01*
X126277572Y-138290780D01*
X126277572Y-134050780D01*
G04 #@! TO.C,D13*
X89153844Y-152511704D02*
X89153844Y-153161704D01*
X89153844Y-158051704D02*
X89153844Y-157401704D01*
X90273844Y-156561704D02*
X88033844Y-156561704D01*
X90273844Y-156681704D02*
X88033844Y-156681704D01*
X90273844Y-156801704D02*
X88033844Y-156801704D01*
X88033844Y-153161704D02*
X90273844Y-153161704D01*
X90273844Y-157401704D01*
X88033844Y-157401704D01*
X88033844Y-153161704D01*
G04 #@! TO.C,D14*
X108253828Y-152511704D02*
X108253828Y-153161704D01*
X108253828Y-158051704D02*
X108253828Y-157401704D01*
X109373828Y-156561704D02*
X107133828Y-156561704D01*
X109373828Y-156681704D02*
X107133828Y-156681704D01*
X109373828Y-156801704D02*
X107133828Y-156801704D01*
X107133828Y-153161704D02*
X109373828Y-153161704D01*
X109373828Y-157401704D01*
X107133828Y-157401704D01*
X107133828Y-153161704D01*
G04 #@! TO.C,D7*
X127441332Y-114289856D02*
X127441332Y-114939856D01*
X127441332Y-119829856D02*
X127441332Y-119179856D01*
X128561332Y-118339856D02*
X126321332Y-118339856D01*
X128561332Y-118459856D02*
X126321332Y-118459856D01*
X128561332Y-118579856D02*
X126321332Y-118579856D01*
X126321332Y-114939856D02*
X128561332Y-114939856D01*
X128561332Y-119179856D01*
X126321332Y-119179856D01*
X126321332Y-114939856D01*
G04 #@! TD*
%LPC*%
D12*
G04 #@! TO.C,SW16*
X150867230Y-153949110D03*
D13*
X155947230Y-153949110D03*
D12*
X161027230Y-153949110D03*
D14*
X158487230Y-148869110D03*
X152137230Y-151409110D03*
G04 #@! TD*
D15*
G04 #@! TO.C,J1*
X123786800Y-66024482D03*
D16*
X123786800Y-68564482D03*
X123786800Y-71104482D03*
X123786800Y-73644482D03*
G04 #@! TD*
D12*
G04 #@! TO.C,SW9*
X93717230Y-134899110D03*
D13*
X98797230Y-134899110D03*
D12*
X103877230Y-134899110D03*
D14*
X101337230Y-129819110D03*
X94987230Y-132359110D03*
G04 #@! TD*
D12*
G04 #@! TO.C,SW12*
X150867230Y-134899110D03*
D13*
X155947230Y-134899110D03*
D12*
X161027230Y-134899110D03*
D14*
X158487230Y-129819110D03*
X152137230Y-132359110D03*
G04 #@! TD*
D12*
G04 #@! TO.C,SW1*
X93717230Y-96799110D03*
D13*
X98797230Y-96799110D03*
D12*
X103877230Y-96799110D03*
D14*
X101337230Y-91719110D03*
X94987230Y-94259110D03*
G04 #@! TD*
D12*
G04 #@! TO.C,SW2*
X112767230Y-96799110D03*
D13*
X117847230Y-96799110D03*
D12*
X122927230Y-96799110D03*
D14*
X120387230Y-91719110D03*
X114037230Y-94259110D03*
G04 #@! TD*
D12*
G04 #@! TO.C,SW13*
X93717230Y-153949110D03*
D13*
X98797230Y-153949110D03*
D12*
X103877230Y-153949110D03*
D14*
X101337230Y-148869110D03*
X94987230Y-151409110D03*
G04 #@! TD*
D12*
G04 #@! TO.C,SW8*
X150867230Y-115849110D03*
D13*
X155947230Y-115849110D03*
D12*
X161027230Y-115849110D03*
D14*
X158487230Y-110769110D03*
X152137230Y-113309110D03*
G04 #@! TD*
D12*
G04 #@! TO.C,SW7*
X131817230Y-115849110D03*
D13*
X136897230Y-115849110D03*
D12*
X141977230Y-115849110D03*
D14*
X139437230Y-110769110D03*
X133087230Y-113309110D03*
G04 #@! TD*
D12*
G04 #@! TO.C,SW4*
X150867230Y-96799110D03*
D13*
X155947230Y-96799110D03*
D12*
X161027230Y-96799110D03*
D14*
X158487230Y-91719110D03*
X152137230Y-94259110D03*
G04 #@! TD*
D12*
G04 #@! TO.C,SW15*
X131817230Y-153949110D03*
D13*
X136897230Y-153949110D03*
D12*
X141977230Y-153949110D03*
D14*
X139437230Y-148869110D03*
X133087230Y-151409110D03*
G04 #@! TD*
D12*
G04 #@! TO.C,SW3*
X131817230Y-96799110D03*
D13*
X136897230Y-96799110D03*
D12*
X141977230Y-96799110D03*
D14*
X139437230Y-91719110D03*
X133087230Y-94259110D03*
G04 #@! TD*
D12*
G04 #@! TO.C,SW10*
X112767230Y-134899110D03*
D13*
X117847230Y-134899110D03*
D12*
X122927230Y-134899110D03*
D14*
X120387230Y-129819110D03*
X114037230Y-132359110D03*
G04 #@! TD*
D12*
G04 #@! TO.C,SW5*
X93717230Y-115849110D03*
D13*
X98797230Y-115849110D03*
D12*
X103877230Y-115849110D03*
D14*
X101337230Y-110769110D03*
X94987230Y-113309110D03*
G04 #@! TD*
D12*
G04 #@! TO.C,SW11*
X131817230Y-134899110D03*
D13*
X136897230Y-134899110D03*
D12*
X141977230Y-134899110D03*
D14*
X139437230Y-129819110D03*
X133087230Y-132359110D03*
G04 #@! TD*
D12*
G04 #@! TO.C,SW14*
X112767230Y-153949110D03*
D13*
X117847230Y-153949110D03*
D12*
X122927230Y-153949110D03*
D14*
X120387230Y-148869110D03*
X114037230Y-151409110D03*
G04 #@! TD*
D12*
G04 #@! TO.C,SW6*
X112767230Y-115849110D03*
D13*
X117847230Y-115849110D03*
D12*
X122927230Y-115849110D03*
D14*
X120387230Y-110769110D03*
X114037230Y-113309110D03*
G04 #@! TD*
D17*
G04 #@! TO.C,U1*
X144069418Y-61911508D03*
D18*
X144069418Y-64451508D03*
X144069418Y-66991508D03*
X144069418Y-69531508D03*
X144069418Y-72071508D03*
X144069418Y-74611508D03*
X144069418Y-77151508D03*
X161319418Y-77151508D03*
X161319418Y-74611508D03*
X161319418Y-72071508D03*
D19*
X161319418Y-69531508D03*
X161319418Y-66991508D03*
X161319418Y-64451508D03*
X161319418Y-61911508D03*
G04 #@! TD*
D20*
G04 #@! TO.C,D5*
X89241364Y-120869856D03*
D21*
X89241364Y-113249856D03*
G04 #@! TD*
D20*
G04 #@! TO.C,D12*
X146497556Y-139980780D03*
D21*
X146497556Y-132360780D03*
G04 #@! TD*
D20*
G04 #@! TO.C,D3*
X127485092Y-101758932D03*
D21*
X127485092Y-94138932D03*
G04 #@! TD*
D20*
G04 #@! TO.C,D4*
X146585076Y-101758932D03*
D21*
X146585076Y-94138932D03*
G04 #@! TD*
D20*
G04 #@! TO.C,D15*
X127353812Y-159091704D03*
D21*
X127353812Y-151471704D03*
G04 #@! TD*
D20*
G04 #@! TO.C,D9*
X89197604Y-139980780D03*
D21*
X89197604Y-132360780D03*
G04 #@! TD*
D20*
G04 #@! TO.C,D16*
X146453796Y-159091704D03*
D21*
X146453796Y-151471704D03*
G04 #@! TD*
D20*
G04 #@! TO.C,D10*
X108297588Y-139980780D03*
D21*
X108297588Y-132360780D03*
G04 #@! TD*
D20*
G04 #@! TO.C,D2*
X108385108Y-101758932D03*
D21*
X108385108Y-94138932D03*
G04 #@! TD*
D20*
G04 #@! TO.C,D6*
X108341348Y-120869856D03*
D21*
X108341348Y-113249856D03*
G04 #@! TD*
D20*
G04 #@! TO.C,D1*
X89184267Y-101924894D03*
D21*
X89184267Y-94304894D03*
G04 #@! TD*
D20*
G04 #@! TO.C,D8*
X146541316Y-120869856D03*
D21*
X146541316Y-113249856D03*
G04 #@! TD*
D20*
G04 #@! TO.C,D11*
X127397572Y-139980780D03*
D21*
X127397572Y-132360780D03*
G04 #@! TD*
D20*
G04 #@! TO.C,D13*
X89153844Y-159091704D03*
D21*
X89153844Y-151471704D03*
G04 #@! TD*
D20*
G04 #@! TO.C,D14*
X108253828Y-159091704D03*
D21*
X108253828Y-151471704D03*
G04 #@! TD*
D20*
G04 #@! TO.C,D7*
X127441332Y-120869856D03*
D21*
X127441332Y-113249856D03*
G04 #@! TD*
%LPD*%
M02*
