%TF.GenerationSoftware,KiCad,Pcbnew,10.0.4*%
%TF.CreationDate,2026-08-05T12:58:12-04:00*%
%TF.ProjectId,KiCad Work,4b694361-6420-4576-9f72-6b2e6b696361,rev?*%
%TF.SameCoordinates,Original*%
%TF.FileFunction,Drillmap*%
%TF.FilePolarity,Positive*%
%FSLAX45Y45*%
G04 Gerber Fmt 4.5, Leading zero omitted, Abs format (unit mm)*
G04 Created by KiCad (PCBNEW 10.0.4) date 2026-08-05 12:58:12*
%MOMM*%
%LPD*%
G01*
G04 APERTURE LIST*
%ADD10C,0.050000*%
%ADD11C,0.200000*%
%ADD12C,0.100000*%
%ADD13C,0.150000*%
G04 APERTURE END LIST*
D10*
X7707339Y-7939449D02*
X7707339Y-7939449D01*
G75*
G02*
X9707339Y-5939449I2000000J0D01*
G01*
X15596830Y-5939449D01*
G75*
G02*
X17596830Y-7939449I0J-2000001D01*
G01*
X17596830Y-14945815D01*
G75*
G02*
X15596830Y-16945816I-2000000J-1D01*
G01*
X9707339Y-16945816D01*
G75*
G02*
X7707339Y-14945815I0J2000000D01*
G01*
X7707339Y-7939449D01*
D11*
D12*
X8875384Y-15107170D02*
X8955384Y-15187170D01*
X8955384Y-15107170D02*
X8875384Y-15187170D01*
X8875384Y-15869170D02*
X8955384Y-15949170D01*
X8955384Y-15869170D02*
X8875384Y-15949170D01*
X8878427Y-9390489D02*
X8958427Y-9470489D01*
X8958427Y-9390489D02*
X8878427Y-9470489D01*
X8878427Y-10152489D02*
X8958427Y-10232489D01*
X8958427Y-10152489D02*
X8878427Y-10232489D01*
X8879760Y-13196078D02*
X8959760Y-13276078D01*
X8959760Y-13196078D02*
X8879760Y-13276078D01*
X8879760Y-13958078D02*
X8959760Y-14038078D01*
X8959760Y-13958078D02*
X8879760Y-14038078D01*
X8884136Y-11284986D02*
X8964136Y-11364986D01*
X8964136Y-11284986D02*
X8884136Y-11364986D01*
X8884136Y-12046986D02*
X8964136Y-12126986D01*
X8964136Y-12046986D02*
X8884136Y-12126986D01*
X10785383Y-15107170D02*
X10865383Y-15187170D01*
X10865383Y-15107170D02*
X10785383Y-15187170D01*
X10785383Y-15869170D02*
X10865383Y-15949170D01*
X10865383Y-15869170D02*
X10785383Y-15949170D01*
X10789759Y-13196078D02*
X10869759Y-13276078D01*
X10869759Y-13196078D02*
X10789759Y-13276078D01*
X10789759Y-13958078D02*
X10869759Y-14038078D01*
X10869759Y-13958078D02*
X10789759Y-14038078D01*
X10794135Y-11284986D02*
X10874135Y-11364986D01*
X10874135Y-11284986D02*
X10794135Y-11364986D01*
X10794135Y-12046986D02*
X10874135Y-12126986D01*
X10874135Y-12046986D02*
X10794135Y-12126986D01*
X10798511Y-9373893D02*
X10878511Y-9453893D01*
X10878511Y-9373893D02*
X10798511Y-9453893D01*
X10798511Y-10135893D02*
X10878511Y-10215893D01*
X10878511Y-10135893D02*
X10798511Y-10215893D01*
X12695381Y-15107170D02*
X12775381Y-15187170D01*
X12775381Y-15107170D02*
X12695381Y-15187170D01*
X12695381Y-15869170D02*
X12775381Y-15949170D01*
X12775381Y-15869170D02*
X12695381Y-15949170D01*
X12699757Y-13196078D02*
X12779757Y-13276078D01*
X12779757Y-13196078D02*
X12699757Y-13276078D01*
X12699757Y-13958078D02*
X12779757Y-14038078D01*
X12779757Y-13958078D02*
X12699757Y-14038078D01*
X12704133Y-11284986D02*
X12784133Y-11364986D01*
X12784133Y-11284986D02*
X12704133Y-11364986D01*
X12704133Y-12046986D02*
X12784133Y-12126986D01*
X12784133Y-12046986D02*
X12704133Y-12126986D01*
X12708509Y-9373893D02*
X12788509Y-9453893D01*
X12788509Y-9373893D02*
X12708509Y-9453893D01*
X12708509Y-10135893D02*
X12788509Y-10215893D01*
X12788509Y-10135893D02*
X12708509Y-10215893D01*
X14605380Y-15107170D02*
X14685380Y-15187170D01*
X14685380Y-15107170D02*
X14605380Y-15187170D01*
X14605380Y-15869170D02*
X14685380Y-15949170D01*
X14685380Y-15869170D02*
X14605380Y-15949170D01*
X14609756Y-13196078D02*
X14689756Y-13276078D01*
X14689756Y-13196078D02*
X14609756Y-13276078D01*
X14609756Y-13958078D02*
X14689756Y-14038078D01*
X14689756Y-13958078D02*
X14609756Y-14038078D01*
X14614132Y-11284986D02*
X14694132Y-11364986D01*
X14694132Y-11284986D02*
X14614132Y-11364986D01*
X14614132Y-12046986D02*
X14694132Y-12126986D01*
X14694132Y-12046986D02*
X14614132Y-12126986D01*
X14618508Y-9373893D02*
X14698508Y-9453893D01*
X14698508Y-9373893D02*
X14618508Y-9453893D01*
X14618508Y-10135893D02*
X14698508Y-10215893D01*
X14698508Y-10135893D02*
X14618508Y-10215893D01*
X12428680Y-6602448D02*
G75*
G02*
X12328680Y-6602448I-50000J0D01*
G01*
X12328680Y-6602448D02*
G75*
G02*
X12428680Y-6602448I50000J0D01*
G01*
X12428680Y-6856448D02*
G75*
G02*
X12328680Y-6856448I-50000J0D01*
G01*
X12328680Y-6856448D02*
G75*
G02*
X12428680Y-6856448I50000J0D01*
G01*
X12428680Y-7110448D02*
G75*
G02*
X12328680Y-7110448I-50000J0D01*
G01*
X12328680Y-7110448D02*
G75*
G02*
X12428680Y-7110448I50000J0D01*
G01*
X12428680Y-7364448D02*
G75*
G02*
X12328680Y-7364448I-50000J0D01*
G01*
X12328680Y-7364448D02*
G75*
G02*
X12428680Y-7364448I50000J0D01*
G01*
X14556942Y-6191151D02*
G75*
G02*
X14456942Y-6191151I-50000J0D01*
G01*
X14456942Y-6191151D02*
G75*
G02*
X14556942Y-6191151I50000J0D01*
G01*
X14556942Y-6445151D02*
G75*
G02*
X14456942Y-6445151I-50000J0D01*
G01*
X14456942Y-6445151D02*
G75*
G02*
X14556942Y-6445151I50000J0D01*
G01*
X14556942Y-6699151D02*
G75*
G02*
X14456942Y-6699151I-50000J0D01*
G01*
X14456942Y-6699151D02*
G75*
G02*
X14556942Y-6699151I50000J0D01*
G01*
X14556942Y-6953151D02*
G75*
G02*
X14456942Y-6953151I-50000J0D01*
G01*
X14456942Y-6953151D02*
G75*
G02*
X14556942Y-6953151I50000J0D01*
G01*
X14556942Y-7207151D02*
G75*
G02*
X14456942Y-7207151I-50000J0D01*
G01*
X14456942Y-7207151D02*
G75*
G02*
X14556942Y-7207151I50000J0D01*
G01*
X14556942Y-7461151D02*
G75*
G02*
X14456942Y-7461151I-50000J0D01*
G01*
X14456942Y-7461151D02*
G75*
G02*
X14556942Y-7461151I50000J0D01*
G01*
X14556942Y-7715151D02*
G75*
G02*
X14456942Y-7715151I-50000J0D01*
G01*
X14456942Y-7715151D02*
G75*
G02*
X14556942Y-7715151I50000J0D01*
G01*
X16081942Y-6191151D02*
G75*
G02*
X15981942Y-6191151I-50000J0D01*
G01*
X15981942Y-6191151D02*
G75*
G02*
X16081942Y-6191151I50000J0D01*
G01*
X16081942Y-6445151D02*
G75*
G02*
X15981942Y-6445151I-50000J0D01*
G01*
X15981942Y-6445151D02*
G75*
G02*
X16081942Y-6445151I50000J0D01*
G01*
X16081942Y-6699151D02*
G75*
G02*
X15981942Y-6699151I-50000J0D01*
G01*
X15981942Y-6699151D02*
G75*
G02*
X16081942Y-6699151I50000J0D01*
G01*
X16081942Y-6953151D02*
G75*
G02*
X15981942Y-6953151I-50000J0D01*
G01*
X15981942Y-6953151D02*
G75*
G02*
X16081942Y-6953151I50000J0D01*
G01*
X16081942Y-7207151D02*
G75*
G02*
X15981942Y-7207151I-50000J0D01*
G01*
X15981942Y-7207151D02*
G75*
G02*
X16081942Y-7207151I50000J0D01*
G01*
X16081942Y-7461151D02*
G75*
G02*
X15981942Y-7461151I-50000J0D01*
G01*
X15981942Y-7461151D02*
G75*
G02*
X16081942Y-7461151I50000J0D01*
G01*
X16081942Y-7715151D02*
G75*
G02*
X15981942Y-7715151I-50000J0D01*
G01*
X15981942Y-7715151D02*
G75*
G02*
X16081942Y-7715151I50000J0D01*
G01*
D13*
X9498723Y-9350911D02*
X9498723Y-9500911D01*
X9423723Y-9425911D02*
X9573723Y-9425911D01*
X9498723Y-11255911D02*
X9498723Y-11405911D01*
X9423723Y-11330911D02*
X9573723Y-11330911D01*
X9498723Y-13160911D02*
X9498723Y-13310911D01*
X9423723Y-13235911D02*
X9573723Y-13235911D01*
X9498723Y-15065911D02*
X9498723Y-15215911D01*
X9423723Y-15140911D02*
X9573723Y-15140911D01*
X10133723Y-9096911D02*
X10133723Y-9246911D01*
X10058723Y-9171911D02*
X10208723Y-9171911D01*
X10133723Y-11001911D02*
X10133723Y-11151911D01*
X10058723Y-11076911D02*
X10208723Y-11076911D01*
X10133723Y-12906911D02*
X10133723Y-13056911D01*
X10058723Y-12981911D02*
X10208723Y-12981911D01*
X10133723Y-14811911D02*
X10133723Y-14961911D01*
X10058723Y-14886911D02*
X10208723Y-14886911D01*
X11403723Y-9350911D02*
X11403723Y-9500911D01*
X11328723Y-9425911D02*
X11478723Y-9425911D01*
X11403723Y-11255911D02*
X11403723Y-11405911D01*
X11328723Y-11330911D02*
X11478723Y-11330911D01*
X11403723Y-13160911D02*
X11403723Y-13310911D01*
X11328723Y-13235911D02*
X11478723Y-13235911D01*
X11403723Y-15065911D02*
X11403723Y-15215911D01*
X11328723Y-15140911D02*
X11478723Y-15140911D01*
X12038723Y-9096911D02*
X12038723Y-9246911D01*
X11963723Y-9171911D02*
X12113723Y-9171911D01*
X12038723Y-11001911D02*
X12038723Y-11151911D01*
X11963723Y-11076911D02*
X12113723Y-11076911D01*
X12038723Y-12906911D02*
X12038723Y-13056911D01*
X11963723Y-12981911D02*
X12113723Y-12981911D01*
X12038723Y-14811911D02*
X12038723Y-14961911D01*
X11963723Y-14886911D02*
X12113723Y-14886911D01*
X13308723Y-9350911D02*
X13308723Y-9500911D01*
X13233723Y-9425911D02*
X13383723Y-9425911D01*
X13308723Y-11255911D02*
X13308723Y-11405911D01*
X13233723Y-11330911D02*
X13383723Y-11330911D01*
X13308723Y-13160911D02*
X13308723Y-13310911D01*
X13233723Y-13235911D02*
X13383723Y-13235911D01*
X13308723Y-15065911D02*
X13308723Y-15215911D01*
X13233723Y-15140911D02*
X13383723Y-15140911D01*
X13943723Y-9096911D02*
X13943723Y-9246911D01*
X13868723Y-9171911D02*
X14018723Y-9171911D01*
X13943723Y-11001911D02*
X13943723Y-11151911D01*
X13868723Y-11076911D02*
X14018723Y-11076911D01*
X13943723Y-12906911D02*
X13943723Y-13056911D01*
X13868723Y-12981911D02*
X14018723Y-12981911D01*
X13943723Y-14811911D02*
X13943723Y-14961911D01*
X13868723Y-14886911D02*
X14018723Y-14886911D01*
X15213723Y-9350911D02*
X15213723Y-9500911D01*
X15138723Y-9425911D02*
X15288723Y-9425911D01*
X15213723Y-11255911D02*
X15213723Y-11405911D01*
X15138723Y-11330911D02*
X15288723Y-11330911D01*
X15213723Y-13160911D02*
X15213723Y-13310911D01*
X15138723Y-13235911D02*
X15288723Y-13235911D01*
X15213723Y-15065911D02*
X15213723Y-15215911D01*
X15138723Y-15140911D02*
X15288723Y-15140911D01*
X15848723Y-9096911D02*
X15848723Y-9246911D01*
X15773723Y-9171911D02*
X15923723Y-9171911D01*
X15848723Y-11001911D02*
X15848723Y-11151911D01*
X15773723Y-11076911D02*
X15923723Y-11076911D01*
X15848723Y-12906911D02*
X15848723Y-13056911D01*
X15773723Y-12981911D02*
X15923723Y-12981911D01*
X15848723Y-14811911D02*
X15848723Y-14961911D01*
X15773723Y-14886911D02*
X15923723Y-14886911D01*
D11*
X7965616Y-17259799D02*
X7965616Y-17059799D01*
X7965616Y-17059799D02*
X8013235Y-17059799D01*
X8013235Y-17059799D02*
X8041806Y-17069323D01*
X8041806Y-17069323D02*
X8060854Y-17088371D01*
X8060854Y-17088371D02*
X8070377Y-17107418D01*
X8070377Y-17107418D02*
X8079901Y-17145514D01*
X8079901Y-17145514D02*
X8079901Y-17174085D01*
X8079901Y-17174085D02*
X8070377Y-17212180D01*
X8070377Y-17212180D02*
X8060854Y-17231228D01*
X8060854Y-17231228D02*
X8041806Y-17250276D01*
X8041806Y-17250276D02*
X8013235Y-17259799D01*
X8013235Y-17259799D02*
X7965616Y-17259799D01*
X8165616Y-17259799D02*
X8165616Y-17126466D01*
X8165616Y-17164561D02*
X8175139Y-17145514D01*
X8175139Y-17145514D02*
X8184663Y-17135990D01*
X8184663Y-17135990D02*
X8203711Y-17126466D01*
X8203711Y-17126466D02*
X8222758Y-17126466D01*
X8289425Y-17259799D02*
X8289425Y-17126466D01*
X8289425Y-17059799D02*
X8279901Y-17069323D01*
X8279901Y-17069323D02*
X8289425Y-17078847D01*
X8289425Y-17078847D02*
X8298949Y-17069323D01*
X8298949Y-17069323D02*
X8289425Y-17059799D01*
X8289425Y-17059799D02*
X8289425Y-17078847D01*
X8413235Y-17259799D02*
X8394187Y-17250276D01*
X8394187Y-17250276D02*
X8384663Y-17231228D01*
X8384663Y-17231228D02*
X8384663Y-17059799D01*
X8517997Y-17259799D02*
X8498949Y-17250276D01*
X8498949Y-17250276D02*
X8489425Y-17231228D01*
X8489425Y-17231228D02*
X8489425Y-17059799D01*
X8746568Y-17259799D02*
X8746568Y-17059799D01*
X8746568Y-17059799D02*
X8813235Y-17202656D01*
X8813235Y-17202656D02*
X8879901Y-17059799D01*
X8879901Y-17059799D02*
X8879901Y-17259799D01*
X9060854Y-17259799D02*
X9060854Y-17155037D01*
X9060854Y-17155037D02*
X9051330Y-17135990D01*
X9051330Y-17135990D02*
X9032282Y-17126466D01*
X9032282Y-17126466D02*
X8994187Y-17126466D01*
X8994187Y-17126466D02*
X8975139Y-17135990D01*
X9060854Y-17250276D02*
X9041806Y-17259799D01*
X9041806Y-17259799D02*
X8994187Y-17259799D01*
X8994187Y-17259799D02*
X8975139Y-17250276D01*
X8975139Y-17250276D02*
X8965616Y-17231228D01*
X8965616Y-17231228D02*
X8965616Y-17212180D01*
X8965616Y-17212180D02*
X8975139Y-17193133D01*
X8975139Y-17193133D02*
X8994187Y-17183609D01*
X8994187Y-17183609D02*
X9041806Y-17183609D01*
X9041806Y-17183609D02*
X9060854Y-17174085D01*
X9156092Y-17126466D02*
X9156092Y-17326466D01*
X9156092Y-17135990D02*
X9175139Y-17126466D01*
X9175139Y-17126466D02*
X9213235Y-17126466D01*
X9213235Y-17126466D02*
X9232282Y-17135990D01*
X9232282Y-17135990D02*
X9241806Y-17145514D01*
X9241806Y-17145514D02*
X9251330Y-17164561D01*
X9251330Y-17164561D02*
X9251330Y-17221704D01*
X9251330Y-17221704D02*
X9241806Y-17240752D01*
X9241806Y-17240752D02*
X9232282Y-17250276D01*
X9232282Y-17250276D02*
X9213235Y-17259799D01*
X9213235Y-17259799D02*
X9175139Y-17259799D01*
X9175139Y-17259799D02*
X9156092Y-17250276D01*
X9337044Y-17240752D02*
X9346568Y-17250276D01*
X9346568Y-17250276D02*
X9337044Y-17259799D01*
X9337044Y-17259799D02*
X9327520Y-17250276D01*
X9327520Y-17250276D02*
X9337044Y-17240752D01*
X9337044Y-17240752D02*
X9337044Y-17259799D01*
X9337044Y-17135990D02*
X9346568Y-17145514D01*
X9346568Y-17145514D02*
X9337044Y-17155037D01*
X9337044Y-17155037D02*
X9327520Y-17145514D01*
X9327520Y-17145514D02*
X9337044Y-17135990D01*
X9337044Y-17135990D02*
X9337044Y-17155037D01*
D12*
X7624839Y-17548316D02*
X7704839Y-17628316D01*
X7704839Y-17548316D02*
X7624839Y-17628316D01*
D11*
X8003711Y-17479799D02*
X8022758Y-17479799D01*
X8022758Y-17479799D02*
X8041806Y-17489323D01*
X8041806Y-17489323D02*
X8051330Y-17498847D01*
X8051330Y-17498847D02*
X8060854Y-17517895D01*
X8060854Y-17517895D02*
X8070377Y-17555990D01*
X8070377Y-17555990D02*
X8070377Y-17603609D01*
X8070377Y-17603609D02*
X8060854Y-17641704D01*
X8060854Y-17641704D02*
X8051330Y-17660752D01*
X8051330Y-17660752D02*
X8041806Y-17670276D01*
X8041806Y-17670276D02*
X8022758Y-17679799D01*
X8022758Y-17679799D02*
X8003711Y-17679799D01*
X8003711Y-17679799D02*
X7984663Y-17670276D01*
X7984663Y-17670276D02*
X7975139Y-17660752D01*
X7975139Y-17660752D02*
X7965616Y-17641704D01*
X7965616Y-17641704D02*
X7956092Y-17603609D01*
X7956092Y-17603609D02*
X7956092Y-17555990D01*
X7956092Y-17555990D02*
X7965616Y-17517895D01*
X7965616Y-17517895D02*
X7975139Y-17498847D01*
X7975139Y-17498847D02*
X7984663Y-17489323D01*
X7984663Y-17489323D02*
X8003711Y-17479799D01*
X8156092Y-17660752D02*
X8165616Y-17670276D01*
X8165616Y-17670276D02*
X8156092Y-17679799D01*
X8156092Y-17679799D02*
X8146568Y-17670276D01*
X8146568Y-17670276D02*
X8156092Y-17660752D01*
X8156092Y-17660752D02*
X8156092Y-17679799D01*
X8279901Y-17565514D02*
X8260854Y-17555990D01*
X8260854Y-17555990D02*
X8251330Y-17546466D01*
X8251330Y-17546466D02*
X8241806Y-17527418D01*
X8241806Y-17527418D02*
X8241806Y-17517895D01*
X8241806Y-17517895D02*
X8251330Y-17498847D01*
X8251330Y-17498847D02*
X8260854Y-17489323D01*
X8260854Y-17489323D02*
X8279901Y-17479799D01*
X8279901Y-17479799D02*
X8317997Y-17479799D01*
X8317997Y-17479799D02*
X8337044Y-17489323D01*
X8337044Y-17489323D02*
X8346568Y-17498847D01*
X8346568Y-17498847D02*
X8356092Y-17517895D01*
X8356092Y-17517895D02*
X8356092Y-17527418D01*
X8356092Y-17527418D02*
X8346568Y-17546466D01*
X8346568Y-17546466D02*
X8337044Y-17555990D01*
X8337044Y-17555990D02*
X8317997Y-17565514D01*
X8317997Y-17565514D02*
X8279901Y-17565514D01*
X8279901Y-17565514D02*
X8260854Y-17575037D01*
X8260854Y-17575037D02*
X8251330Y-17584561D01*
X8251330Y-17584561D02*
X8241806Y-17603609D01*
X8241806Y-17603609D02*
X8241806Y-17641704D01*
X8241806Y-17641704D02*
X8251330Y-17660752D01*
X8251330Y-17660752D02*
X8260854Y-17670276D01*
X8260854Y-17670276D02*
X8279901Y-17679799D01*
X8279901Y-17679799D02*
X8317997Y-17679799D01*
X8317997Y-17679799D02*
X8337044Y-17670276D01*
X8337044Y-17670276D02*
X8346568Y-17660752D01*
X8346568Y-17660752D02*
X8356092Y-17641704D01*
X8356092Y-17641704D02*
X8356092Y-17603609D01*
X8356092Y-17603609D02*
X8346568Y-17584561D01*
X8346568Y-17584561D02*
X8337044Y-17575037D01*
X8337044Y-17575037D02*
X8317997Y-17565514D01*
X8479901Y-17479799D02*
X8498949Y-17479799D01*
X8498949Y-17479799D02*
X8517997Y-17489323D01*
X8517997Y-17489323D02*
X8527520Y-17498847D01*
X8527520Y-17498847D02*
X8537044Y-17517895D01*
X8537044Y-17517895D02*
X8546568Y-17555990D01*
X8546568Y-17555990D02*
X8546568Y-17603609D01*
X8546568Y-17603609D02*
X8537044Y-17641704D01*
X8537044Y-17641704D02*
X8527520Y-17660752D01*
X8527520Y-17660752D02*
X8517997Y-17670276D01*
X8517997Y-17670276D02*
X8498949Y-17679799D01*
X8498949Y-17679799D02*
X8479901Y-17679799D01*
X8479901Y-17679799D02*
X8460854Y-17670276D01*
X8460854Y-17670276D02*
X8451330Y-17660752D01*
X8451330Y-17660752D02*
X8441806Y-17641704D01*
X8441806Y-17641704D02*
X8432282Y-17603609D01*
X8432282Y-17603609D02*
X8432282Y-17555990D01*
X8432282Y-17555990D02*
X8441806Y-17517895D01*
X8441806Y-17517895D02*
X8451330Y-17498847D01*
X8451330Y-17498847D02*
X8460854Y-17489323D01*
X8460854Y-17489323D02*
X8479901Y-17479799D01*
X8670378Y-17479799D02*
X8689425Y-17479799D01*
X8689425Y-17479799D02*
X8708473Y-17489323D01*
X8708473Y-17489323D02*
X8717997Y-17498847D01*
X8717997Y-17498847D02*
X8727520Y-17517895D01*
X8727520Y-17517895D02*
X8737044Y-17555990D01*
X8737044Y-17555990D02*
X8737044Y-17603609D01*
X8737044Y-17603609D02*
X8727520Y-17641704D01*
X8727520Y-17641704D02*
X8717997Y-17660752D01*
X8717997Y-17660752D02*
X8708473Y-17670276D01*
X8708473Y-17670276D02*
X8689425Y-17679799D01*
X8689425Y-17679799D02*
X8670378Y-17679799D01*
X8670378Y-17679799D02*
X8651330Y-17670276D01*
X8651330Y-17670276D02*
X8641806Y-17660752D01*
X8641806Y-17660752D02*
X8632282Y-17641704D01*
X8632282Y-17641704D02*
X8622759Y-17603609D01*
X8622759Y-17603609D02*
X8622759Y-17555990D01*
X8622759Y-17555990D02*
X8632282Y-17517895D01*
X8632282Y-17517895D02*
X8641806Y-17498847D01*
X8641806Y-17498847D02*
X8651330Y-17489323D01*
X8651330Y-17489323D02*
X8670378Y-17479799D01*
X8822759Y-17679799D02*
X8822759Y-17546466D01*
X8822759Y-17565514D02*
X8832282Y-17555990D01*
X8832282Y-17555990D02*
X8851330Y-17546466D01*
X8851330Y-17546466D02*
X8879901Y-17546466D01*
X8879901Y-17546466D02*
X8898949Y-17555990D01*
X8898949Y-17555990D02*
X8908473Y-17575037D01*
X8908473Y-17575037D02*
X8908473Y-17679799D01*
X8908473Y-17575037D02*
X8917997Y-17555990D01*
X8917997Y-17555990D02*
X8937044Y-17546466D01*
X8937044Y-17546466D02*
X8965616Y-17546466D01*
X8965616Y-17546466D02*
X8984663Y-17555990D01*
X8984663Y-17555990D02*
X8994187Y-17575037D01*
X8994187Y-17575037D02*
X8994187Y-17679799D01*
X9089425Y-17679799D02*
X9089425Y-17546466D01*
X9089425Y-17565514D02*
X9098949Y-17555990D01*
X9098949Y-17555990D02*
X9117997Y-17546466D01*
X9117997Y-17546466D02*
X9146568Y-17546466D01*
X9146568Y-17546466D02*
X9165616Y-17555990D01*
X9165616Y-17555990D02*
X9175140Y-17575037D01*
X9175140Y-17575037D02*
X9175140Y-17679799D01*
X9175140Y-17575037D02*
X9184663Y-17555990D01*
X9184663Y-17555990D02*
X9203711Y-17546466D01*
X9203711Y-17546466D02*
X9232282Y-17546466D01*
X9232282Y-17546466D02*
X9251330Y-17555990D01*
X9251330Y-17555990D02*
X9260854Y-17575037D01*
X9260854Y-17575037D02*
X9260854Y-17679799D01*
X9651330Y-17470276D02*
X9479902Y-17727418D01*
X9908473Y-17479799D02*
X9927521Y-17479799D01*
X9927521Y-17479799D02*
X9946568Y-17489323D01*
X9946568Y-17489323D02*
X9956092Y-17498847D01*
X9956092Y-17498847D02*
X9965616Y-17517895D01*
X9965616Y-17517895D02*
X9975140Y-17555990D01*
X9975140Y-17555990D02*
X9975140Y-17603609D01*
X9975140Y-17603609D02*
X9965616Y-17641704D01*
X9965616Y-17641704D02*
X9956092Y-17660752D01*
X9956092Y-17660752D02*
X9946568Y-17670276D01*
X9946568Y-17670276D02*
X9927521Y-17679799D01*
X9927521Y-17679799D02*
X9908473Y-17679799D01*
X9908473Y-17679799D02*
X9889425Y-17670276D01*
X9889425Y-17670276D02*
X9879902Y-17660752D01*
X9879902Y-17660752D02*
X9870378Y-17641704D01*
X9870378Y-17641704D02*
X9860854Y-17603609D01*
X9860854Y-17603609D02*
X9860854Y-17555990D01*
X9860854Y-17555990D02*
X9870378Y-17517895D01*
X9870378Y-17517895D02*
X9879902Y-17498847D01*
X9879902Y-17498847D02*
X9889425Y-17489323D01*
X9889425Y-17489323D02*
X9908473Y-17479799D01*
X10060854Y-17660752D02*
X10070378Y-17670276D01*
X10070378Y-17670276D02*
X10060854Y-17679799D01*
X10060854Y-17679799D02*
X10051330Y-17670276D01*
X10051330Y-17670276D02*
X10060854Y-17660752D01*
X10060854Y-17660752D02*
X10060854Y-17679799D01*
X10194187Y-17479799D02*
X10213235Y-17479799D01*
X10213235Y-17479799D02*
X10232283Y-17489323D01*
X10232283Y-17489323D02*
X10241806Y-17498847D01*
X10241806Y-17498847D02*
X10251330Y-17517895D01*
X10251330Y-17517895D02*
X10260854Y-17555990D01*
X10260854Y-17555990D02*
X10260854Y-17603609D01*
X10260854Y-17603609D02*
X10251330Y-17641704D01*
X10251330Y-17641704D02*
X10241806Y-17660752D01*
X10241806Y-17660752D02*
X10232283Y-17670276D01*
X10232283Y-17670276D02*
X10213235Y-17679799D01*
X10213235Y-17679799D02*
X10194187Y-17679799D01*
X10194187Y-17679799D02*
X10175140Y-17670276D01*
X10175140Y-17670276D02*
X10165616Y-17660752D01*
X10165616Y-17660752D02*
X10156092Y-17641704D01*
X10156092Y-17641704D02*
X10146568Y-17603609D01*
X10146568Y-17603609D02*
X10146568Y-17555990D01*
X10146568Y-17555990D02*
X10156092Y-17517895D01*
X10156092Y-17517895D02*
X10165616Y-17498847D01*
X10165616Y-17498847D02*
X10175140Y-17489323D01*
X10175140Y-17489323D02*
X10194187Y-17479799D01*
X10327521Y-17479799D02*
X10451330Y-17479799D01*
X10451330Y-17479799D02*
X10384663Y-17555990D01*
X10384663Y-17555990D02*
X10413235Y-17555990D01*
X10413235Y-17555990D02*
X10432283Y-17565514D01*
X10432283Y-17565514D02*
X10441806Y-17575037D01*
X10441806Y-17575037D02*
X10451330Y-17594085D01*
X10451330Y-17594085D02*
X10451330Y-17641704D01*
X10451330Y-17641704D02*
X10441806Y-17660752D01*
X10441806Y-17660752D02*
X10432283Y-17670276D01*
X10432283Y-17670276D02*
X10413235Y-17679799D01*
X10413235Y-17679799D02*
X10356092Y-17679799D01*
X10356092Y-17679799D02*
X10337044Y-17670276D01*
X10337044Y-17670276D02*
X10327521Y-17660752D01*
X10641806Y-17679799D02*
X10527521Y-17679799D01*
X10584663Y-17679799D02*
X10584663Y-17479799D01*
X10584663Y-17479799D02*
X10565616Y-17508371D01*
X10565616Y-17508371D02*
X10546568Y-17527418D01*
X10546568Y-17527418D02*
X10527521Y-17536942D01*
X10822759Y-17479799D02*
X10727521Y-17479799D01*
X10727521Y-17479799D02*
X10717997Y-17575037D01*
X10717997Y-17575037D02*
X10727521Y-17565514D01*
X10727521Y-17565514D02*
X10746568Y-17555990D01*
X10746568Y-17555990D02*
X10794187Y-17555990D01*
X10794187Y-17555990D02*
X10813235Y-17565514D01*
X10813235Y-17565514D02*
X10822759Y-17575037D01*
X10822759Y-17575037D02*
X10832283Y-17594085D01*
X10832283Y-17594085D02*
X10832283Y-17641704D01*
X10832283Y-17641704D02*
X10822759Y-17660752D01*
X10822759Y-17660752D02*
X10813235Y-17670276D01*
X10813235Y-17670276D02*
X10794187Y-17679799D01*
X10794187Y-17679799D02*
X10746568Y-17679799D01*
X10746568Y-17679799D02*
X10727521Y-17670276D01*
X10727521Y-17670276D02*
X10717997Y-17660752D01*
X10908473Y-17479799D02*
X10908473Y-17517895D01*
X10984664Y-17479799D02*
X10984664Y-17517895D01*
X11279902Y-17755990D02*
X11270378Y-17746466D01*
X11270378Y-17746466D02*
X11251330Y-17717895D01*
X11251330Y-17717895D02*
X11241806Y-17698847D01*
X11241806Y-17698847D02*
X11232283Y-17670276D01*
X11232283Y-17670276D02*
X11222759Y-17622656D01*
X11222759Y-17622656D02*
X11222759Y-17584561D01*
X11222759Y-17584561D02*
X11232283Y-17536942D01*
X11232283Y-17536942D02*
X11241806Y-17508371D01*
X11241806Y-17508371D02*
X11251330Y-17489323D01*
X11251330Y-17489323D02*
X11270378Y-17460752D01*
X11270378Y-17460752D02*
X11279902Y-17451228D01*
X11337044Y-17479799D02*
X11460854Y-17479799D01*
X11460854Y-17479799D02*
X11394187Y-17555990D01*
X11394187Y-17555990D02*
X11422759Y-17555990D01*
X11422759Y-17555990D02*
X11441806Y-17565514D01*
X11441806Y-17565514D02*
X11451330Y-17575037D01*
X11451330Y-17575037D02*
X11460854Y-17594085D01*
X11460854Y-17594085D02*
X11460854Y-17641704D01*
X11460854Y-17641704D02*
X11451330Y-17660752D01*
X11451330Y-17660752D02*
X11441806Y-17670276D01*
X11441806Y-17670276D02*
X11422759Y-17679799D01*
X11422759Y-17679799D02*
X11365616Y-17679799D01*
X11365616Y-17679799D02*
X11346568Y-17670276D01*
X11346568Y-17670276D02*
X11337044Y-17660752D01*
X11537044Y-17498847D02*
X11546568Y-17489323D01*
X11546568Y-17489323D02*
X11565616Y-17479799D01*
X11565616Y-17479799D02*
X11613235Y-17479799D01*
X11613235Y-17479799D02*
X11632283Y-17489323D01*
X11632283Y-17489323D02*
X11641806Y-17498847D01*
X11641806Y-17498847D02*
X11651330Y-17517895D01*
X11651330Y-17517895D02*
X11651330Y-17536942D01*
X11651330Y-17536942D02*
X11641806Y-17565514D01*
X11641806Y-17565514D02*
X11527521Y-17679799D01*
X11527521Y-17679799D02*
X11651330Y-17679799D01*
X11889425Y-17679799D02*
X11889425Y-17479799D01*
X11975140Y-17679799D02*
X11975140Y-17575037D01*
X11975140Y-17575037D02*
X11965616Y-17555990D01*
X11965616Y-17555990D02*
X11946568Y-17546466D01*
X11946568Y-17546466D02*
X11917997Y-17546466D01*
X11917997Y-17546466D02*
X11898949Y-17555990D01*
X11898949Y-17555990D02*
X11889425Y-17565514D01*
X12098949Y-17679799D02*
X12079902Y-17670276D01*
X12079902Y-17670276D02*
X12070378Y-17660752D01*
X12070378Y-17660752D02*
X12060854Y-17641704D01*
X12060854Y-17641704D02*
X12060854Y-17584561D01*
X12060854Y-17584561D02*
X12070378Y-17565514D01*
X12070378Y-17565514D02*
X12079902Y-17555990D01*
X12079902Y-17555990D02*
X12098949Y-17546466D01*
X12098949Y-17546466D02*
X12127521Y-17546466D01*
X12127521Y-17546466D02*
X12146568Y-17555990D01*
X12146568Y-17555990D02*
X12156092Y-17565514D01*
X12156092Y-17565514D02*
X12165616Y-17584561D01*
X12165616Y-17584561D02*
X12165616Y-17641704D01*
X12165616Y-17641704D02*
X12156092Y-17660752D01*
X12156092Y-17660752D02*
X12146568Y-17670276D01*
X12146568Y-17670276D02*
X12127521Y-17679799D01*
X12127521Y-17679799D02*
X12098949Y-17679799D01*
X12279902Y-17679799D02*
X12260854Y-17670276D01*
X12260854Y-17670276D02*
X12251330Y-17651228D01*
X12251330Y-17651228D02*
X12251330Y-17479799D01*
X12432283Y-17670276D02*
X12413235Y-17679799D01*
X12413235Y-17679799D02*
X12375140Y-17679799D01*
X12375140Y-17679799D02*
X12356092Y-17670276D01*
X12356092Y-17670276D02*
X12346568Y-17651228D01*
X12346568Y-17651228D02*
X12346568Y-17575037D01*
X12346568Y-17575037D02*
X12356092Y-17555990D01*
X12356092Y-17555990D02*
X12375140Y-17546466D01*
X12375140Y-17546466D02*
X12413235Y-17546466D01*
X12413235Y-17546466D02*
X12432283Y-17555990D01*
X12432283Y-17555990D02*
X12441806Y-17575037D01*
X12441806Y-17575037D02*
X12441806Y-17594085D01*
X12441806Y-17594085D02*
X12346568Y-17613133D01*
X12517997Y-17670276D02*
X12537045Y-17679799D01*
X12537045Y-17679799D02*
X12575140Y-17679799D01*
X12575140Y-17679799D02*
X12594187Y-17670276D01*
X12594187Y-17670276D02*
X12603711Y-17651228D01*
X12603711Y-17651228D02*
X12603711Y-17641704D01*
X12603711Y-17641704D02*
X12594187Y-17622656D01*
X12594187Y-17622656D02*
X12575140Y-17613133D01*
X12575140Y-17613133D02*
X12546568Y-17613133D01*
X12546568Y-17613133D02*
X12527521Y-17603609D01*
X12527521Y-17603609D02*
X12517997Y-17584561D01*
X12517997Y-17584561D02*
X12517997Y-17575037D01*
X12517997Y-17575037D02*
X12527521Y-17555990D01*
X12527521Y-17555990D02*
X12546568Y-17546466D01*
X12546568Y-17546466D02*
X12575140Y-17546466D01*
X12575140Y-17546466D02*
X12594187Y-17555990D01*
X12670378Y-17755990D02*
X12679902Y-17746466D01*
X12679902Y-17746466D02*
X12698949Y-17717895D01*
X12698949Y-17717895D02*
X12708473Y-17698847D01*
X12708473Y-17698847D02*
X12717997Y-17670276D01*
X12717997Y-17670276D02*
X12727521Y-17622656D01*
X12727521Y-17622656D02*
X12727521Y-17584561D01*
X12727521Y-17584561D02*
X12717997Y-17536942D01*
X12717997Y-17536942D02*
X12708473Y-17508371D01*
X12708473Y-17508371D02*
X12698949Y-17489323D01*
X12698949Y-17489323D02*
X12679902Y-17460752D01*
X12679902Y-17460752D02*
X12670378Y-17451228D01*
D12*
X7704839Y-17852316D02*
G75*
G02*
X7604839Y-17852316I-50000J0D01*
G01*
X7604839Y-17852316D02*
G75*
G02*
X7704839Y-17852316I50000J0D01*
G01*
D11*
X8070377Y-17943799D02*
X7956092Y-17943799D01*
X8013235Y-17943799D02*
X8013235Y-17743799D01*
X8013235Y-17743799D02*
X7994187Y-17772371D01*
X7994187Y-17772371D02*
X7975139Y-17791418D01*
X7975139Y-17791418D02*
X7956092Y-17800942D01*
X8156092Y-17924752D02*
X8165616Y-17934276D01*
X8165616Y-17934276D02*
X8156092Y-17943799D01*
X8156092Y-17943799D02*
X8146568Y-17934276D01*
X8146568Y-17934276D02*
X8156092Y-17924752D01*
X8156092Y-17924752D02*
X8156092Y-17943799D01*
X8289425Y-17743799D02*
X8308473Y-17743799D01*
X8308473Y-17743799D02*
X8327520Y-17753323D01*
X8327520Y-17753323D02*
X8337044Y-17762847D01*
X8337044Y-17762847D02*
X8346568Y-17781895D01*
X8346568Y-17781895D02*
X8356092Y-17819990D01*
X8356092Y-17819990D02*
X8356092Y-17867609D01*
X8356092Y-17867609D02*
X8346568Y-17905704D01*
X8346568Y-17905704D02*
X8337044Y-17924752D01*
X8337044Y-17924752D02*
X8327520Y-17934276D01*
X8327520Y-17934276D02*
X8308473Y-17943799D01*
X8308473Y-17943799D02*
X8289425Y-17943799D01*
X8289425Y-17943799D02*
X8270377Y-17934276D01*
X8270377Y-17934276D02*
X8260854Y-17924752D01*
X8260854Y-17924752D02*
X8251330Y-17905704D01*
X8251330Y-17905704D02*
X8241806Y-17867609D01*
X8241806Y-17867609D02*
X8241806Y-17819990D01*
X8241806Y-17819990D02*
X8251330Y-17781895D01*
X8251330Y-17781895D02*
X8260854Y-17762847D01*
X8260854Y-17762847D02*
X8270377Y-17753323D01*
X8270377Y-17753323D02*
X8289425Y-17743799D01*
X8479901Y-17743799D02*
X8498949Y-17743799D01*
X8498949Y-17743799D02*
X8517997Y-17753323D01*
X8517997Y-17753323D02*
X8527520Y-17762847D01*
X8527520Y-17762847D02*
X8537044Y-17781895D01*
X8537044Y-17781895D02*
X8546568Y-17819990D01*
X8546568Y-17819990D02*
X8546568Y-17867609D01*
X8546568Y-17867609D02*
X8537044Y-17905704D01*
X8537044Y-17905704D02*
X8527520Y-17924752D01*
X8527520Y-17924752D02*
X8517997Y-17934276D01*
X8517997Y-17934276D02*
X8498949Y-17943799D01*
X8498949Y-17943799D02*
X8479901Y-17943799D01*
X8479901Y-17943799D02*
X8460854Y-17934276D01*
X8460854Y-17934276D02*
X8451330Y-17924752D01*
X8451330Y-17924752D02*
X8441806Y-17905704D01*
X8441806Y-17905704D02*
X8432282Y-17867609D01*
X8432282Y-17867609D02*
X8432282Y-17819990D01*
X8432282Y-17819990D02*
X8441806Y-17781895D01*
X8441806Y-17781895D02*
X8451330Y-17762847D01*
X8451330Y-17762847D02*
X8460854Y-17753323D01*
X8460854Y-17753323D02*
X8479901Y-17743799D01*
X8670378Y-17743799D02*
X8689425Y-17743799D01*
X8689425Y-17743799D02*
X8708473Y-17753323D01*
X8708473Y-17753323D02*
X8717997Y-17762847D01*
X8717997Y-17762847D02*
X8727520Y-17781895D01*
X8727520Y-17781895D02*
X8737044Y-17819990D01*
X8737044Y-17819990D02*
X8737044Y-17867609D01*
X8737044Y-17867609D02*
X8727520Y-17905704D01*
X8727520Y-17905704D02*
X8717997Y-17924752D01*
X8717997Y-17924752D02*
X8708473Y-17934276D01*
X8708473Y-17934276D02*
X8689425Y-17943799D01*
X8689425Y-17943799D02*
X8670378Y-17943799D01*
X8670378Y-17943799D02*
X8651330Y-17934276D01*
X8651330Y-17934276D02*
X8641806Y-17924752D01*
X8641806Y-17924752D02*
X8632282Y-17905704D01*
X8632282Y-17905704D02*
X8622759Y-17867609D01*
X8622759Y-17867609D02*
X8622759Y-17819990D01*
X8622759Y-17819990D02*
X8632282Y-17781895D01*
X8632282Y-17781895D02*
X8641806Y-17762847D01*
X8641806Y-17762847D02*
X8651330Y-17753323D01*
X8651330Y-17753323D02*
X8670378Y-17743799D01*
X8822759Y-17943799D02*
X8822759Y-17810466D01*
X8822759Y-17829514D02*
X8832282Y-17819990D01*
X8832282Y-17819990D02*
X8851330Y-17810466D01*
X8851330Y-17810466D02*
X8879901Y-17810466D01*
X8879901Y-17810466D02*
X8898949Y-17819990D01*
X8898949Y-17819990D02*
X8908473Y-17839037D01*
X8908473Y-17839037D02*
X8908473Y-17943799D01*
X8908473Y-17839037D02*
X8917997Y-17819990D01*
X8917997Y-17819990D02*
X8937044Y-17810466D01*
X8937044Y-17810466D02*
X8965616Y-17810466D01*
X8965616Y-17810466D02*
X8984663Y-17819990D01*
X8984663Y-17819990D02*
X8994187Y-17839037D01*
X8994187Y-17839037D02*
X8994187Y-17943799D01*
X9089425Y-17943799D02*
X9089425Y-17810466D01*
X9089425Y-17829514D02*
X9098949Y-17819990D01*
X9098949Y-17819990D02*
X9117997Y-17810466D01*
X9117997Y-17810466D02*
X9146568Y-17810466D01*
X9146568Y-17810466D02*
X9165616Y-17819990D01*
X9165616Y-17819990D02*
X9175140Y-17839037D01*
X9175140Y-17839037D02*
X9175140Y-17943799D01*
X9175140Y-17839037D02*
X9184663Y-17819990D01*
X9184663Y-17819990D02*
X9203711Y-17810466D01*
X9203711Y-17810466D02*
X9232282Y-17810466D01*
X9232282Y-17810466D02*
X9251330Y-17819990D01*
X9251330Y-17819990D02*
X9260854Y-17839037D01*
X9260854Y-17839037D02*
X9260854Y-17943799D01*
X9651330Y-17734276D02*
X9479902Y-17991418D01*
X9908473Y-17743799D02*
X9927521Y-17743799D01*
X9927521Y-17743799D02*
X9946568Y-17753323D01*
X9946568Y-17753323D02*
X9956092Y-17762847D01*
X9956092Y-17762847D02*
X9965616Y-17781895D01*
X9965616Y-17781895D02*
X9975140Y-17819990D01*
X9975140Y-17819990D02*
X9975140Y-17867609D01*
X9975140Y-17867609D02*
X9965616Y-17905704D01*
X9965616Y-17905704D02*
X9956092Y-17924752D01*
X9956092Y-17924752D02*
X9946568Y-17934276D01*
X9946568Y-17934276D02*
X9927521Y-17943799D01*
X9927521Y-17943799D02*
X9908473Y-17943799D01*
X9908473Y-17943799D02*
X9889425Y-17934276D01*
X9889425Y-17934276D02*
X9879902Y-17924752D01*
X9879902Y-17924752D02*
X9870378Y-17905704D01*
X9870378Y-17905704D02*
X9860854Y-17867609D01*
X9860854Y-17867609D02*
X9860854Y-17819990D01*
X9860854Y-17819990D02*
X9870378Y-17781895D01*
X9870378Y-17781895D02*
X9879902Y-17762847D01*
X9879902Y-17762847D02*
X9889425Y-17753323D01*
X9889425Y-17753323D02*
X9908473Y-17743799D01*
X10060854Y-17924752D02*
X10070378Y-17934276D01*
X10070378Y-17934276D02*
X10060854Y-17943799D01*
X10060854Y-17943799D02*
X10051330Y-17934276D01*
X10051330Y-17934276D02*
X10060854Y-17924752D01*
X10060854Y-17924752D02*
X10060854Y-17943799D01*
X10194187Y-17743799D02*
X10213235Y-17743799D01*
X10213235Y-17743799D02*
X10232283Y-17753323D01*
X10232283Y-17753323D02*
X10241806Y-17762847D01*
X10241806Y-17762847D02*
X10251330Y-17781895D01*
X10251330Y-17781895D02*
X10260854Y-17819990D01*
X10260854Y-17819990D02*
X10260854Y-17867609D01*
X10260854Y-17867609D02*
X10251330Y-17905704D01*
X10251330Y-17905704D02*
X10241806Y-17924752D01*
X10241806Y-17924752D02*
X10232283Y-17934276D01*
X10232283Y-17934276D02*
X10213235Y-17943799D01*
X10213235Y-17943799D02*
X10194187Y-17943799D01*
X10194187Y-17943799D02*
X10175140Y-17934276D01*
X10175140Y-17934276D02*
X10165616Y-17924752D01*
X10165616Y-17924752D02*
X10156092Y-17905704D01*
X10156092Y-17905704D02*
X10146568Y-17867609D01*
X10146568Y-17867609D02*
X10146568Y-17819990D01*
X10146568Y-17819990D02*
X10156092Y-17781895D01*
X10156092Y-17781895D02*
X10165616Y-17762847D01*
X10165616Y-17762847D02*
X10175140Y-17753323D01*
X10175140Y-17753323D02*
X10194187Y-17743799D01*
X10327521Y-17743799D02*
X10451330Y-17743799D01*
X10451330Y-17743799D02*
X10384663Y-17819990D01*
X10384663Y-17819990D02*
X10413235Y-17819990D01*
X10413235Y-17819990D02*
X10432283Y-17829514D01*
X10432283Y-17829514D02*
X10441806Y-17839037D01*
X10441806Y-17839037D02*
X10451330Y-17858085D01*
X10451330Y-17858085D02*
X10451330Y-17905704D01*
X10451330Y-17905704D02*
X10441806Y-17924752D01*
X10441806Y-17924752D02*
X10432283Y-17934276D01*
X10432283Y-17934276D02*
X10413235Y-17943799D01*
X10413235Y-17943799D02*
X10356092Y-17943799D01*
X10356092Y-17943799D02*
X10337044Y-17934276D01*
X10337044Y-17934276D02*
X10327521Y-17924752D01*
X10546568Y-17943799D02*
X10584663Y-17943799D01*
X10584663Y-17943799D02*
X10603711Y-17934276D01*
X10603711Y-17934276D02*
X10613235Y-17924752D01*
X10613235Y-17924752D02*
X10632283Y-17896180D01*
X10632283Y-17896180D02*
X10641806Y-17858085D01*
X10641806Y-17858085D02*
X10641806Y-17781895D01*
X10641806Y-17781895D02*
X10632283Y-17762847D01*
X10632283Y-17762847D02*
X10622759Y-17753323D01*
X10622759Y-17753323D02*
X10603711Y-17743799D01*
X10603711Y-17743799D02*
X10565616Y-17743799D01*
X10565616Y-17743799D02*
X10546568Y-17753323D01*
X10546568Y-17753323D02*
X10537044Y-17762847D01*
X10537044Y-17762847D02*
X10527521Y-17781895D01*
X10527521Y-17781895D02*
X10527521Y-17829514D01*
X10527521Y-17829514D02*
X10537044Y-17848561D01*
X10537044Y-17848561D02*
X10546568Y-17858085D01*
X10546568Y-17858085D02*
X10565616Y-17867609D01*
X10565616Y-17867609D02*
X10603711Y-17867609D01*
X10603711Y-17867609D02*
X10622759Y-17858085D01*
X10622759Y-17858085D02*
X10632283Y-17848561D01*
X10632283Y-17848561D02*
X10641806Y-17829514D01*
X10813235Y-17810466D02*
X10813235Y-17943799D01*
X10765616Y-17734276D02*
X10717997Y-17877133D01*
X10717997Y-17877133D02*
X10841806Y-17877133D01*
X10908473Y-17743799D02*
X10908473Y-17781895D01*
X10984664Y-17743799D02*
X10984664Y-17781895D01*
X11279902Y-18019990D02*
X11270378Y-18010466D01*
X11270378Y-18010466D02*
X11251330Y-17981895D01*
X11251330Y-17981895D02*
X11241806Y-17962847D01*
X11241806Y-17962847D02*
X11232283Y-17934276D01*
X11232283Y-17934276D02*
X11222759Y-17886656D01*
X11222759Y-17886656D02*
X11222759Y-17848561D01*
X11222759Y-17848561D02*
X11232283Y-17800942D01*
X11232283Y-17800942D02*
X11241806Y-17772371D01*
X11241806Y-17772371D02*
X11251330Y-17753323D01*
X11251330Y-17753323D02*
X11270378Y-17724752D01*
X11270378Y-17724752D02*
X11279902Y-17715228D01*
X11460854Y-17943799D02*
X11346568Y-17943799D01*
X11403711Y-17943799D02*
X11403711Y-17743799D01*
X11403711Y-17743799D02*
X11384663Y-17772371D01*
X11384663Y-17772371D02*
X11365616Y-17791418D01*
X11365616Y-17791418D02*
X11346568Y-17800942D01*
X11575140Y-17829514D02*
X11556092Y-17819990D01*
X11556092Y-17819990D02*
X11546568Y-17810466D01*
X11546568Y-17810466D02*
X11537044Y-17791418D01*
X11537044Y-17791418D02*
X11537044Y-17781895D01*
X11537044Y-17781895D02*
X11546568Y-17762847D01*
X11546568Y-17762847D02*
X11556092Y-17753323D01*
X11556092Y-17753323D02*
X11575140Y-17743799D01*
X11575140Y-17743799D02*
X11613235Y-17743799D01*
X11613235Y-17743799D02*
X11632283Y-17753323D01*
X11632283Y-17753323D02*
X11641806Y-17762847D01*
X11641806Y-17762847D02*
X11651330Y-17781895D01*
X11651330Y-17781895D02*
X11651330Y-17791418D01*
X11651330Y-17791418D02*
X11641806Y-17810466D01*
X11641806Y-17810466D02*
X11632283Y-17819990D01*
X11632283Y-17819990D02*
X11613235Y-17829514D01*
X11613235Y-17829514D02*
X11575140Y-17829514D01*
X11575140Y-17829514D02*
X11556092Y-17839037D01*
X11556092Y-17839037D02*
X11546568Y-17848561D01*
X11546568Y-17848561D02*
X11537044Y-17867609D01*
X11537044Y-17867609D02*
X11537044Y-17905704D01*
X11537044Y-17905704D02*
X11546568Y-17924752D01*
X11546568Y-17924752D02*
X11556092Y-17934276D01*
X11556092Y-17934276D02*
X11575140Y-17943799D01*
X11575140Y-17943799D02*
X11613235Y-17943799D01*
X11613235Y-17943799D02*
X11632283Y-17934276D01*
X11632283Y-17934276D02*
X11641806Y-17924752D01*
X11641806Y-17924752D02*
X11651330Y-17905704D01*
X11651330Y-17905704D02*
X11651330Y-17867609D01*
X11651330Y-17867609D02*
X11641806Y-17848561D01*
X11641806Y-17848561D02*
X11632283Y-17839037D01*
X11632283Y-17839037D02*
X11613235Y-17829514D01*
X11889425Y-17943799D02*
X11889425Y-17743799D01*
X11975140Y-17943799D02*
X11975140Y-17839037D01*
X11975140Y-17839037D02*
X11965616Y-17819990D01*
X11965616Y-17819990D02*
X11946568Y-17810466D01*
X11946568Y-17810466D02*
X11917997Y-17810466D01*
X11917997Y-17810466D02*
X11898949Y-17819990D01*
X11898949Y-17819990D02*
X11889425Y-17829514D01*
X12098949Y-17943799D02*
X12079902Y-17934276D01*
X12079902Y-17934276D02*
X12070378Y-17924752D01*
X12070378Y-17924752D02*
X12060854Y-17905704D01*
X12060854Y-17905704D02*
X12060854Y-17848561D01*
X12060854Y-17848561D02*
X12070378Y-17829514D01*
X12070378Y-17829514D02*
X12079902Y-17819990D01*
X12079902Y-17819990D02*
X12098949Y-17810466D01*
X12098949Y-17810466D02*
X12127521Y-17810466D01*
X12127521Y-17810466D02*
X12146568Y-17819990D01*
X12146568Y-17819990D02*
X12156092Y-17829514D01*
X12156092Y-17829514D02*
X12165616Y-17848561D01*
X12165616Y-17848561D02*
X12165616Y-17905704D01*
X12165616Y-17905704D02*
X12156092Y-17924752D01*
X12156092Y-17924752D02*
X12146568Y-17934276D01*
X12146568Y-17934276D02*
X12127521Y-17943799D01*
X12127521Y-17943799D02*
X12098949Y-17943799D01*
X12279902Y-17943799D02*
X12260854Y-17934276D01*
X12260854Y-17934276D02*
X12251330Y-17915228D01*
X12251330Y-17915228D02*
X12251330Y-17743799D01*
X12432283Y-17934276D02*
X12413235Y-17943799D01*
X12413235Y-17943799D02*
X12375140Y-17943799D01*
X12375140Y-17943799D02*
X12356092Y-17934276D01*
X12356092Y-17934276D02*
X12346568Y-17915228D01*
X12346568Y-17915228D02*
X12346568Y-17839037D01*
X12346568Y-17839037D02*
X12356092Y-17819990D01*
X12356092Y-17819990D02*
X12375140Y-17810466D01*
X12375140Y-17810466D02*
X12413235Y-17810466D01*
X12413235Y-17810466D02*
X12432283Y-17819990D01*
X12432283Y-17819990D02*
X12441806Y-17839037D01*
X12441806Y-17839037D02*
X12441806Y-17858085D01*
X12441806Y-17858085D02*
X12346568Y-17877133D01*
X12517997Y-17934276D02*
X12537045Y-17943799D01*
X12537045Y-17943799D02*
X12575140Y-17943799D01*
X12575140Y-17943799D02*
X12594187Y-17934276D01*
X12594187Y-17934276D02*
X12603711Y-17915228D01*
X12603711Y-17915228D02*
X12603711Y-17905704D01*
X12603711Y-17905704D02*
X12594187Y-17886656D01*
X12594187Y-17886656D02*
X12575140Y-17877133D01*
X12575140Y-17877133D02*
X12546568Y-17877133D01*
X12546568Y-17877133D02*
X12527521Y-17867609D01*
X12527521Y-17867609D02*
X12517997Y-17848561D01*
X12517997Y-17848561D02*
X12517997Y-17839037D01*
X12517997Y-17839037D02*
X12527521Y-17819990D01*
X12527521Y-17819990D02*
X12546568Y-17810466D01*
X12546568Y-17810466D02*
X12575140Y-17810466D01*
X12575140Y-17810466D02*
X12594187Y-17819990D01*
X12670378Y-18019990D02*
X12679902Y-18010466D01*
X12679902Y-18010466D02*
X12698949Y-17981895D01*
X12698949Y-17981895D02*
X12708473Y-17962847D01*
X12708473Y-17962847D02*
X12717997Y-17934276D01*
X12717997Y-17934276D02*
X12727521Y-17886656D01*
X12727521Y-17886656D02*
X12727521Y-17848561D01*
X12727521Y-17848561D02*
X12717997Y-17800942D01*
X12717997Y-17800942D02*
X12708473Y-17772371D01*
X12708473Y-17772371D02*
X12698949Y-17753323D01*
X12698949Y-17753323D02*
X12679902Y-17724752D01*
X12679902Y-17724752D02*
X12670378Y-17715228D01*
D13*
X7629839Y-18041316D02*
X7629839Y-18191316D01*
X7554839Y-18116316D02*
X7704839Y-18116316D01*
D11*
X8070377Y-18207799D02*
X7956092Y-18207799D01*
X8013235Y-18207799D02*
X8013235Y-18007799D01*
X8013235Y-18007799D02*
X7994187Y-18036371D01*
X7994187Y-18036371D02*
X7975139Y-18055418D01*
X7975139Y-18055418D02*
X7956092Y-18064942D01*
X8156092Y-18188752D02*
X8165616Y-18198276D01*
X8165616Y-18198276D02*
X8156092Y-18207799D01*
X8156092Y-18207799D02*
X8146568Y-18198276D01*
X8146568Y-18198276D02*
X8156092Y-18188752D01*
X8156092Y-18188752D02*
X8156092Y-18207799D01*
X8346568Y-18007799D02*
X8251330Y-18007799D01*
X8251330Y-18007799D02*
X8241806Y-18103037D01*
X8241806Y-18103037D02*
X8251330Y-18093514D01*
X8251330Y-18093514D02*
X8270377Y-18083990D01*
X8270377Y-18083990D02*
X8317997Y-18083990D01*
X8317997Y-18083990D02*
X8337044Y-18093514D01*
X8337044Y-18093514D02*
X8346568Y-18103037D01*
X8346568Y-18103037D02*
X8356092Y-18122085D01*
X8356092Y-18122085D02*
X8356092Y-18169704D01*
X8356092Y-18169704D02*
X8346568Y-18188752D01*
X8346568Y-18188752D02*
X8337044Y-18198276D01*
X8337044Y-18198276D02*
X8317997Y-18207799D01*
X8317997Y-18207799D02*
X8270377Y-18207799D01*
X8270377Y-18207799D02*
X8251330Y-18198276D01*
X8251330Y-18198276D02*
X8241806Y-18188752D01*
X8479901Y-18007799D02*
X8498949Y-18007799D01*
X8498949Y-18007799D02*
X8517997Y-18017323D01*
X8517997Y-18017323D02*
X8527520Y-18026847D01*
X8527520Y-18026847D02*
X8537044Y-18045895D01*
X8537044Y-18045895D02*
X8546568Y-18083990D01*
X8546568Y-18083990D02*
X8546568Y-18131609D01*
X8546568Y-18131609D02*
X8537044Y-18169704D01*
X8537044Y-18169704D02*
X8527520Y-18188752D01*
X8527520Y-18188752D02*
X8517997Y-18198276D01*
X8517997Y-18198276D02*
X8498949Y-18207799D01*
X8498949Y-18207799D02*
X8479901Y-18207799D01*
X8479901Y-18207799D02*
X8460854Y-18198276D01*
X8460854Y-18198276D02*
X8451330Y-18188752D01*
X8451330Y-18188752D02*
X8441806Y-18169704D01*
X8441806Y-18169704D02*
X8432282Y-18131609D01*
X8432282Y-18131609D02*
X8432282Y-18083990D01*
X8432282Y-18083990D02*
X8441806Y-18045895D01*
X8441806Y-18045895D02*
X8451330Y-18026847D01*
X8451330Y-18026847D02*
X8460854Y-18017323D01*
X8460854Y-18017323D02*
X8479901Y-18007799D01*
X8670378Y-18007799D02*
X8689425Y-18007799D01*
X8689425Y-18007799D02*
X8708473Y-18017323D01*
X8708473Y-18017323D02*
X8717997Y-18026847D01*
X8717997Y-18026847D02*
X8727520Y-18045895D01*
X8727520Y-18045895D02*
X8737044Y-18083990D01*
X8737044Y-18083990D02*
X8737044Y-18131609D01*
X8737044Y-18131609D02*
X8727520Y-18169704D01*
X8727520Y-18169704D02*
X8717997Y-18188752D01*
X8717997Y-18188752D02*
X8708473Y-18198276D01*
X8708473Y-18198276D02*
X8689425Y-18207799D01*
X8689425Y-18207799D02*
X8670378Y-18207799D01*
X8670378Y-18207799D02*
X8651330Y-18198276D01*
X8651330Y-18198276D02*
X8641806Y-18188752D01*
X8641806Y-18188752D02*
X8632282Y-18169704D01*
X8632282Y-18169704D02*
X8622759Y-18131609D01*
X8622759Y-18131609D02*
X8622759Y-18083990D01*
X8622759Y-18083990D02*
X8632282Y-18045895D01*
X8632282Y-18045895D02*
X8641806Y-18026847D01*
X8641806Y-18026847D02*
X8651330Y-18017323D01*
X8651330Y-18017323D02*
X8670378Y-18007799D01*
X8822759Y-18207799D02*
X8822759Y-18074466D01*
X8822759Y-18093514D02*
X8832282Y-18083990D01*
X8832282Y-18083990D02*
X8851330Y-18074466D01*
X8851330Y-18074466D02*
X8879901Y-18074466D01*
X8879901Y-18074466D02*
X8898949Y-18083990D01*
X8898949Y-18083990D02*
X8908473Y-18103037D01*
X8908473Y-18103037D02*
X8908473Y-18207799D01*
X8908473Y-18103037D02*
X8917997Y-18083990D01*
X8917997Y-18083990D02*
X8937044Y-18074466D01*
X8937044Y-18074466D02*
X8965616Y-18074466D01*
X8965616Y-18074466D02*
X8984663Y-18083990D01*
X8984663Y-18083990D02*
X8994187Y-18103037D01*
X8994187Y-18103037D02*
X8994187Y-18207799D01*
X9089425Y-18207799D02*
X9089425Y-18074466D01*
X9089425Y-18093514D02*
X9098949Y-18083990D01*
X9098949Y-18083990D02*
X9117997Y-18074466D01*
X9117997Y-18074466D02*
X9146568Y-18074466D01*
X9146568Y-18074466D02*
X9165616Y-18083990D01*
X9165616Y-18083990D02*
X9175140Y-18103037D01*
X9175140Y-18103037D02*
X9175140Y-18207799D01*
X9175140Y-18103037D02*
X9184663Y-18083990D01*
X9184663Y-18083990D02*
X9203711Y-18074466D01*
X9203711Y-18074466D02*
X9232282Y-18074466D01*
X9232282Y-18074466D02*
X9251330Y-18083990D01*
X9251330Y-18083990D02*
X9260854Y-18103037D01*
X9260854Y-18103037D02*
X9260854Y-18207799D01*
X9651330Y-17998276D02*
X9479902Y-18255418D01*
X9908473Y-18007799D02*
X9927521Y-18007799D01*
X9927521Y-18007799D02*
X9946568Y-18017323D01*
X9946568Y-18017323D02*
X9956092Y-18026847D01*
X9956092Y-18026847D02*
X9965616Y-18045895D01*
X9965616Y-18045895D02*
X9975140Y-18083990D01*
X9975140Y-18083990D02*
X9975140Y-18131609D01*
X9975140Y-18131609D02*
X9965616Y-18169704D01*
X9965616Y-18169704D02*
X9956092Y-18188752D01*
X9956092Y-18188752D02*
X9946568Y-18198276D01*
X9946568Y-18198276D02*
X9927521Y-18207799D01*
X9927521Y-18207799D02*
X9908473Y-18207799D01*
X9908473Y-18207799D02*
X9889425Y-18198276D01*
X9889425Y-18198276D02*
X9879902Y-18188752D01*
X9879902Y-18188752D02*
X9870378Y-18169704D01*
X9870378Y-18169704D02*
X9860854Y-18131609D01*
X9860854Y-18131609D02*
X9860854Y-18083990D01*
X9860854Y-18083990D02*
X9870378Y-18045895D01*
X9870378Y-18045895D02*
X9879902Y-18026847D01*
X9879902Y-18026847D02*
X9889425Y-18017323D01*
X9889425Y-18017323D02*
X9908473Y-18007799D01*
X10060854Y-18188752D02*
X10070378Y-18198276D01*
X10070378Y-18198276D02*
X10060854Y-18207799D01*
X10060854Y-18207799D02*
X10051330Y-18198276D01*
X10051330Y-18198276D02*
X10060854Y-18188752D01*
X10060854Y-18188752D02*
X10060854Y-18207799D01*
X10194187Y-18007799D02*
X10213235Y-18007799D01*
X10213235Y-18007799D02*
X10232283Y-18017323D01*
X10232283Y-18017323D02*
X10241806Y-18026847D01*
X10241806Y-18026847D02*
X10251330Y-18045895D01*
X10251330Y-18045895D02*
X10260854Y-18083990D01*
X10260854Y-18083990D02*
X10260854Y-18131609D01*
X10260854Y-18131609D02*
X10251330Y-18169704D01*
X10251330Y-18169704D02*
X10241806Y-18188752D01*
X10241806Y-18188752D02*
X10232283Y-18198276D01*
X10232283Y-18198276D02*
X10213235Y-18207799D01*
X10213235Y-18207799D02*
X10194187Y-18207799D01*
X10194187Y-18207799D02*
X10175140Y-18198276D01*
X10175140Y-18198276D02*
X10165616Y-18188752D01*
X10165616Y-18188752D02*
X10156092Y-18169704D01*
X10156092Y-18169704D02*
X10146568Y-18131609D01*
X10146568Y-18131609D02*
X10146568Y-18083990D01*
X10146568Y-18083990D02*
X10156092Y-18045895D01*
X10156092Y-18045895D02*
X10165616Y-18026847D01*
X10165616Y-18026847D02*
X10175140Y-18017323D01*
X10175140Y-18017323D02*
X10194187Y-18007799D01*
X10441806Y-18007799D02*
X10346568Y-18007799D01*
X10346568Y-18007799D02*
X10337044Y-18103037D01*
X10337044Y-18103037D02*
X10346568Y-18093514D01*
X10346568Y-18093514D02*
X10365616Y-18083990D01*
X10365616Y-18083990D02*
X10413235Y-18083990D01*
X10413235Y-18083990D02*
X10432283Y-18093514D01*
X10432283Y-18093514D02*
X10441806Y-18103037D01*
X10441806Y-18103037D02*
X10451330Y-18122085D01*
X10451330Y-18122085D02*
X10451330Y-18169704D01*
X10451330Y-18169704D02*
X10441806Y-18188752D01*
X10441806Y-18188752D02*
X10432283Y-18198276D01*
X10432283Y-18198276D02*
X10413235Y-18207799D01*
X10413235Y-18207799D02*
X10365616Y-18207799D01*
X10365616Y-18207799D02*
X10346568Y-18198276D01*
X10346568Y-18198276D02*
X10337044Y-18188752D01*
X10546568Y-18207799D02*
X10584663Y-18207799D01*
X10584663Y-18207799D02*
X10603711Y-18198276D01*
X10603711Y-18198276D02*
X10613235Y-18188752D01*
X10613235Y-18188752D02*
X10632283Y-18160180D01*
X10632283Y-18160180D02*
X10641806Y-18122085D01*
X10641806Y-18122085D02*
X10641806Y-18045895D01*
X10641806Y-18045895D02*
X10632283Y-18026847D01*
X10632283Y-18026847D02*
X10622759Y-18017323D01*
X10622759Y-18017323D02*
X10603711Y-18007799D01*
X10603711Y-18007799D02*
X10565616Y-18007799D01*
X10565616Y-18007799D02*
X10546568Y-18017323D01*
X10546568Y-18017323D02*
X10537044Y-18026847D01*
X10537044Y-18026847D02*
X10527521Y-18045895D01*
X10527521Y-18045895D02*
X10527521Y-18093514D01*
X10527521Y-18093514D02*
X10537044Y-18112561D01*
X10537044Y-18112561D02*
X10546568Y-18122085D01*
X10546568Y-18122085D02*
X10565616Y-18131609D01*
X10565616Y-18131609D02*
X10603711Y-18131609D01*
X10603711Y-18131609D02*
X10622759Y-18122085D01*
X10622759Y-18122085D02*
X10632283Y-18112561D01*
X10632283Y-18112561D02*
X10641806Y-18093514D01*
X10832283Y-18207799D02*
X10717997Y-18207799D01*
X10775140Y-18207799D02*
X10775140Y-18007799D01*
X10775140Y-18007799D02*
X10756092Y-18036371D01*
X10756092Y-18036371D02*
X10737044Y-18055418D01*
X10737044Y-18055418D02*
X10717997Y-18064942D01*
X10908473Y-18007799D02*
X10908473Y-18045895D01*
X10984664Y-18007799D02*
X10984664Y-18045895D01*
X11279902Y-18283990D02*
X11270378Y-18274466D01*
X11270378Y-18274466D02*
X11251330Y-18245895D01*
X11251330Y-18245895D02*
X11241806Y-18226847D01*
X11241806Y-18226847D02*
X11232283Y-18198276D01*
X11232283Y-18198276D02*
X11222759Y-18150656D01*
X11222759Y-18150656D02*
X11222759Y-18112561D01*
X11222759Y-18112561D02*
X11232283Y-18064942D01*
X11232283Y-18064942D02*
X11241806Y-18036371D01*
X11241806Y-18036371D02*
X11251330Y-18017323D01*
X11251330Y-18017323D02*
X11270378Y-17988752D01*
X11270378Y-17988752D02*
X11279902Y-17979228D01*
X11337044Y-18007799D02*
X11460854Y-18007799D01*
X11460854Y-18007799D02*
X11394187Y-18083990D01*
X11394187Y-18083990D02*
X11422759Y-18083990D01*
X11422759Y-18083990D02*
X11441806Y-18093514D01*
X11441806Y-18093514D02*
X11451330Y-18103037D01*
X11451330Y-18103037D02*
X11460854Y-18122085D01*
X11460854Y-18122085D02*
X11460854Y-18169704D01*
X11460854Y-18169704D02*
X11451330Y-18188752D01*
X11451330Y-18188752D02*
X11441806Y-18198276D01*
X11441806Y-18198276D02*
X11422759Y-18207799D01*
X11422759Y-18207799D02*
X11365616Y-18207799D01*
X11365616Y-18207799D02*
X11346568Y-18198276D01*
X11346568Y-18198276D02*
X11337044Y-18188752D01*
X11537044Y-18026847D02*
X11546568Y-18017323D01*
X11546568Y-18017323D02*
X11565616Y-18007799D01*
X11565616Y-18007799D02*
X11613235Y-18007799D01*
X11613235Y-18007799D02*
X11632283Y-18017323D01*
X11632283Y-18017323D02*
X11641806Y-18026847D01*
X11641806Y-18026847D02*
X11651330Y-18045895D01*
X11651330Y-18045895D02*
X11651330Y-18064942D01*
X11651330Y-18064942D02*
X11641806Y-18093514D01*
X11641806Y-18093514D02*
X11527521Y-18207799D01*
X11527521Y-18207799D02*
X11651330Y-18207799D01*
X11889425Y-18207799D02*
X11889425Y-18007799D01*
X11975140Y-18207799D02*
X11975140Y-18103037D01*
X11975140Y-18103037D02*
X11965616Y-18083990D01*
X11965616Y-18083990D02*
X11946568Y-18074466D01*
X11946568Y-18074466D02*
X11917997Y-18074466D01*
X11917997Y-18074466D02*
X11898949Y-18083990D01*
X11898949Y-18083990D02*
X11889425Y-18093514D01*
X12098949Y-18207799D02*
X12079902Y-18198276D01*
X12079902Y-18198276D02*
X12070378Y-18188752D01*
X12070378Y-18188752D02*
X12060854Y-18169704D01*
X12060854Y-18169704D02*
X12060854Y-18112561D01*
X12060854Y-18112561D02*
X12070378Y-18093514D01*
X12070378Y-18093514D02*
X12079902Y-18083990D01*
X12079902Y-18083990D02*
X12098949Y-18074466D01*
X12098949Y-18074466D02*
X12127521Y-18074466D01*
X12127521Y-18074466D02*
X12146568Y-18083990D01*
X12146568Y-18083990D02*
X12156092Y-18093514D01*
X12156092Y-18093514D02*
X12165616Y-18112561D01*
X12165616Y-18112561D02*
X12165616Y-18169704D01*
X12165616Y-18169704D02*
X12156092Y-18188752D01*
X12156092Y-18188752D02*
X12146568Y-18198276D01*
X12146568Y-18198276D02*
X12127521Y-18207799D01*
X12127521Y-18207799D02*
X12098949Y-18207799D01*
X12279902Y-18207799D02*
X12260854Y-18198276D01*
X12260854Y-18198276D02*
X12251330Y-18179228D01*
X12251330Y-18179228D02*
X12251330Y-18007799D01*
X12432283Y-18198276D02*
X12413235Y-18207799D01*
X12413235Y-18207799D02*
X12375140Y-18207799D01*
X12375140Y-18207799D02*
X12356092Y-18198276D01*
X12356092Y-18198276D02*
X12346568Y-18179228D01*
X12346568Y-18179228D02*
X12346568Y-18103037D01*
X12346568Y-18103037D02*
X12356092Y-18083990D01*
X12356092Y-18083990D02*
X12375140Y-18074466D01*
X12375140Y-18074466D02*
X12413235Y-18074466D01*
X12413235Y-18074466D02*
X12432283Y-18083990D01*
X12432283Y-18083990D02*
X12441806Y-18103037D01*
X12441806Y-18103037D02*
X12441806Y-18122085D01*
X12441806Y-18122085D02*
X12346568Y-18141133D01*
X12517997Y-18198276D02*
X12537045Y-18207799D01*
X12537045Y-18207799D02*
X12575140Y-18207799D01*
X12575140Y-18207799D02*
X12594187Y-18198276D01*
X12594187Y-18198276D02*
X12603711Y-18179228D01*
X12603711Y-18179228D02*
X12603711Y-18169704D01*
X12603711Y-18169704D02*
X12594187Y-18150656D01*
X12594187Y-18150656D02*
X12575140Y-18141133D01*
X12575140Y-18141133D02*
X12546568Y-18141133D01*
X12546568Y-18141133D02*
X12527521Y-18131609D01*
X12527521Y-18131609D02*
X12517997Y-18112561D01*
X12517997Y-18112561D02*
X12517997Y-18103037D01*
X12517997Y-18103037D02*
X12527521Y-18083990D01*
X12527521Y-18083990D02*
X12546568Y-18074466D01*
X12546568Y-18074466D02*
X12575140Y-18074466D01*
X12575140Y-18074466D02*
X12594187Y-18083990D01*
X12670378Y-18283990D02*
X12679902Y-18274466D01*
X12679902Y-18274466D02*
X12698949Y-18245895D01*
X12698949Y-18245895D02*
X12708473Y-18226847D01*
X12708473Y-18226847D02*
X12717997Y-18198276D01*
X12717997Y-18198276D02*
X12727521Y-18150656D01*
X12727521Y-18150656D02*
X12727521Y-18112561D01*
X12727521Y-18112561D02*
X12717997Y-18064942D01*
X12717997Y-18064942D02*
X12708473Y-18036371D01*
X12708473Y-18036371D02*
X12698949Y-18017323D01*
X12698949Y-18017323D02*
X12679902Y-17988752D01*
X12679902Y-17988752D02*
X12670378Y-17979228D01*
M02*
