M48
; DRILL file KiCad 10.0.4 date 2026-08-05T12:58:12
; FORMAT={-:-/ absolute / metric / decimal}
; #@! TF.CreationDate,2026-08-05T12:58:12-04:00
; #@! TF.GenerationSoftware,Kicad,Pcbnew,10.0.4
; #@! TF.FileFunction,Plated,1,2,PTH
FMAT,2
METRIC
; #@! TA.AperFunction,Plated,PTH,ComponentDrill
T1C0.800
; #@! TA.AperFunction,Plated,PTH,ComponentDrill
T2C1.000
; #@! TA.AperFunction,Plated,PTH,ComponentDrill
T3C1.500
%
G90
G05
T1
X89.154Y-151.472
X89.154Y-159.092
X89.184Y-94.305
X89.184Y-101.925
X89.198Y-132.361
X89.198Y-139.981
X89.241Y-113.25
X89.241Y-120.87
X108.254Y-151.472
X108.254Y-159.092
X108.298Y-132.361
X108.298Y-139.981
X108.341Y-113.25
X108.341Y-120.87
X108.385Y-94.139
X108.385Y-101.759
X127.354Y-151.472
X127.354Y-159.092
X127.398Y-132.361
X127.398Y-139.981
X127.441Y-113.25
X127.441Y-120.87
X127.485Y-94.139
X127.485Y-101.759
X146.454Y-151.472
X146.454Y-159.092
X146.498Y-132.361
X146.498Y-139.981
X146.541Y-113.25
X146.541Y-120.87
X146.585Y-94.139
X146.585Y-101.759
T2
X123.787Y-66.024
X123.787Y-68.564
X123.787Y-71.104
X123.787Y-73.644
X145.069Y-61.912
X145.069Y-64.452
X145.069Y-66.992
X145.069Y-69.532
X145.069Y-72.072
X145.069Y-74.612
X145.069Y-77.152
X160.319Y-61.912
X160.319Y-64.452
X160.319Y-66.992
X160.319Y-69.532
X160.319Y-72.072
X160.319Y-74.612
X160.319Y-77.152
T3
X94.987Y-94.259
X94.987Y-113.309
X94.987Y-132.359
X94.987Y-151.409
X101.337Y-91.719
X101.337Y-110.769
X101.337Y-129.819
X101.337Y-148.869
X114.037Y-94.259
X114.037Y-113.309
X114.037Y-132.359
X114.037Y-151.409
X120.387Y-91.719
X120.387Y-110.769
X120.387Y-129.819
X120.387Y-148.869
X133.087Y-94.259
X133.087Y-113.309
X133.087Y-132.359
X133.087Y-151.409
X139.437Y-91.719
X139.437Y-110.769
X139.437Y-129.819
X139.437Y-148.869
X152.137Y-94.259
X152.137Y-113.309
X152.137Y-132.359
X152.137Y-151.409
X158.487Y-91.719
X158.487Y-110.769
X158.487Y-129.819
X158.487Y-148.869
M30
