%TF.GenerationSoftware,KiCad,Pcbnew,10.0.4*%
%TF.CreationDate,2026-08-05T12:58:12-04:00*%
%TF.ProjectId,KiCad Work,4b694361-6420-4576-9f72-6b2e6b696361,rev?*%
%TF.SameCoordinates,Original*%
%TF.FileFunction,Drillmap*%
%TF.FilePolarity,Positive*%
%FSLAX45Y45*%
G04 Gerber Fmt 4.5, Leading zero omitted, Abs format (unit mm)*
G04 Created by KiCad (PCBNEW 10.0.4) date 2026-08-05 12:58:12*
%MOMM*%
%LPD*%
G01*
G04 APERTURE LIST*
%ADD10C,0.050000*%
%ADD11C,0.200000*%
%ADD12C,0.170000*%
%ADD13C,0.400000*%
G04 APERTURE END LIST*
D10*
X7707339Y-7939449D02*
X7707339Y-7939449D01*
G75*
G02*
X9707339Y-5939449I2000000J0D01*
G01*
X15596830Y-5939449D01*
G75*
G02*
X17596830Y-7939449I0J-2000001D01*
G01*
X17596830Y-14945815D01*
G75*
G02*
X15596830Y-16945816I-2000000J-1D01*
G01*
X9707339Y-16945816D01*
G75*
G02*
X7707339Y-14945815I0J2000000D01*
G01*
X7707339Y-7939449D01*
D11*
D12*
X9286723Y-9594911D02*
X9456723Y-9764911D01*
X9456723Y-9594911D02*
X9286723Y-9764911D01*
X9286723Y-11499911D02*
X9456723Y-11669911D01*
X9456723Y-11499911D02*
X9286723Y-11669911D01*
X9286723Y-13404911D02*
X9456723Y-13574911D01*
X9456723Y-13404911D02*
X9286723Y-13574911D01*
X9286723Y-15309911D02*
X9456723Y-15479911D01*
X9456723Y-15309911D02*
X9286723Y-15479911D01*
X10302723Y-9594911D02*
X10472723Y-9764911D01*
X10472723Y-9594911D02*
X10302723Y-9764911D01*
X10302723Y-11499911D02*
X10472723Y-11669911D01*
X10472723Y-11499911D02*
X10302723Y-11669911D01*
X10302723Y-13404911D02*
X10472723Y-13574911D01*
X10472723Y-13404911D02*
X10302723Y-13574911D01*
X10302723Y-15309911D02*
X10472723Y-15479911D01*
X10472723Y-15309911D02*
X10302723Y-15479911D01*
X11191723Y-9594911D02*
X11361723Y-9764911D01*
X11361723Y-9594911D02*
X11191723Y-9764911D01*
X11191723Y-11499911D02*
X11361723Y-11669911D01*
X11361723Y-11499911D02*
X11191723Y-11669911D01*
X11191723Y-13404911D02*
X11361723Y-13574911D01*
X11361723Y-13404911D02*
X11191723Y-13574911D01*
X11191723Y-15309911D02*
X11361723Y-15479911D01*
X11361723Y-15309911D02*
X11191723Y-15479911D01*
X12207723Y-9594911D02*
X12377723Y-9764911D01*
X12377723Y-9594911D02*
X12207723Y-9764911D01*
X12207723Y-11499911D02*
X12377723Y-11669911D01*
X12377723Y-11499911D02*
X12207723Y-11669911D01*
X12207723Y-13404911D02*
X12377723Y-13574911D01*
X12377723Y-13404911D02*
X12207723Y-13574911D01*
X12207723Y-15309911D02*
X12377723Y-15479911D01*
X12377723Y-15309911D02*
X12207723Y-15479911D01*
X13096723Y-9594911D02*
X13266723Y-9764911D01*
X13266723Y-9594911D02*
X13096723Y-9764911D01*
X13096723Y-11499911D02*
X13266723Y-11669911D01*
X13266723Y-11499911D02*
X13096723Y-11669911D01*
X13096723Y-13404911D02*
X13266723Y-13574911D01*
X13266723Y-13404911D02*
X13096723Y-13574911D01*
X13096723Y-15309911D02*
X13266723Y-15479911D01*
X13266723Y-15309911D02*
X13096723Y-15479911D01*
X14112723Y-9594911D02*
X14282723Y-9764911D01*
X14282723Y-9594911D02*
X14112723Y-9764911D01*
X14112723Y-11499911D02*
X14282723Y-11669911D01*
X14282723Y-11499911D02*
X14112723Y-11669911D01*
X14112723Y-13404911D02*
X14282723Y-13574911D01*
X14282723Y-13404911D02*
X14112723Y-13574911D01*
X14112723Y-15309911D02*
X14282723Y-15479911D01*
X14282723Y-15309911D02*
X14112723Y-15479911D01*
X15001723Y-9594911D02*
X15171723Y-9764911D01*
X15171723Y-9594911D02*
X15001723Y-9764911D01*
X15001723Y-11499911D02*
X15171723Y-11669911D01*
X15171723Y-11499911D02*
X15001723Y-11669911D01*
X15001723Y-13404911D02*
X15171723Y-13574911D01*
X15171723Y-13404911D02*
X15001723Y-13574911D01*
X15001723Y-15309911D02*
X15171723Y-15479911D01*
X15171723Y-15309911D02*
X15001723Y-15479911D01*
X16017723Y-9594911D02*
X16187723Y-9764911D01*
X16187723Y-9594911D02*
X16017723Y-9764911D01*
X16017723Y-11499911D02*
X16187723Y-11669911D01*
X16187723Y-11499911D02*
X16017723Y-11669911D01*
X16017723Y-13404911D02*
X16187723Y-13574911D01*
X16187723Y-13404911D02*
X16017723Y-13574911D01*
X16017723Y-15309911D02*
X16187723Y-15479911D01*
X16187723Y-15309911D02*
X16017723Y-15479911D01*
D13*
X10079723Y-9679911D02*
G75*
G02*
X9679723Y-9679911I-200000J0D01*
G01*
X9679723Y-9679911D02*
G75*
G02*
X10079723Y-9679911I200000J0D01*
G01*
X10079723Y-11584911D02*
G75*
G02*
X9679723Y-11584911I-200000J0D01*
G01*
X9679723Y-11584911D02*
G75*
G02*
X10079723Y-11584911I200000J0D01*
G01*
X10079723Y-13489911D02*
G75*
G02*
X9679723Y-13489911I-200000J0D01*
G01*
X9679723Y-13489911D02*
G75*
G02*
X10079723Y-13489911I200000J0D01*
G01*
X10079723Y-15394911D02*
G75*
G02*
X9679723Y-15394911I-200000J0D01*
G01*
X9679723Y-15394911D02*
G75*
G02*
X10079723Y-15394911I200000J0D01*
G01*
X11984723Y-9679911D02*
G75*
G02*
X11584723Y-9679911I-200000J0D01*
G01*
X11584723Y-9679911D02*
G75*
G02*
X11984723Y-9679911I200000J0D01*
G01*
X11984723Y-11584911D02*
G75*
G02*
X11584723Y-11584911I-200000J0D01*
G01*
X11584723Y-11584911D02*
G75*
G02*
X11984723Y-11584911I200000J0D01*
G01*
X11984723Y-13489911D02*
G75*
G02*
X11584723Y-13489911I-200000J0D01*
G01*
X11584723Y-13489911D02*
G75*
G02*
X11984723Y-13489911I200000J0D01*
G01*
X11984723Y-15394911D02*
G75*
G02*
X11584723Y-15394911I-200000J0D01*
G01*
X11584723Y-15394911D02*
G75*
G02*
X11984723Y-15394911I200000J0D01*
G01*
X13889723Y-9679911D02*
G75*
G02*
X13489723Y-9679911I-200000J0D01*
G01*
X13489723Y-9679911D02*
G75*
G02*
X13889723Y-9679911I200000J0D01*
G01*
X13889723Y-11584911D02*
G75*
G02*
X13489723Y-11584911I-200000J0D01*
G01*
X13489723Y-11584911D02*
G75*
G02*
X13889723Y-11584911I200000J0D01*
G01*
X13889723Y-13489911D02*
G75*
G02*
X13489723Y-13489911I-200000J0D01*
G01*
X13489723Y-13489911D02*
G75*
G02*
X13889723Y-13489911I200000J0D01*
G01*
X13889723Y-15394911D02*
G75*
G02*
X13489723Y-15394911I-200000J0D01*
G01*
X13489723Y-15394911D02*
G75*
G02*
X13889723Y-15394911I200000J0D01*
G01*
X15794723Y-9679911D02*
G75*
G02*
X15394723Y-9679911I-200000J0D01*
G01*
X15394723Y-9679911D02*
G75*
G02*
X15794723Y-9679911I200000J0D01*
G01*
X15794723Y-11584911D02*
G75*
G02*
X15394723Y-11584911I-200000J0D01*
G01*
X15394723Y-11584911D02*
G75*
G02*
X15794723Y-11584911I200000J0D01*
G01*
X15794723Y-13489911D02*
G75*
G02*
X15394723Y-13489911I-200000J0D01*
G01*
X15394723Y-13489911D02*
G75*
G02*
X15794723Y-13489911I200000J0D01*
G01*
X15794723Y-15394911D02*
G75*
G02*
X15394723Y-15394911I-200000J0D01*
G01*
X15394723Y-15394911D02*
G75*
G02*
X15794723Y-15394911I200000J0D01*
G01*
D11*
X7965616Y-17259799D02*
X7965616Y-17059799D01*
X7965616Y-17059799D02*
X8013235Y-17059799D01*
X8013235Y-17059799D02*
X8041806Y-17069323D01*
X8041806Y-17069323D02*
X8060854Y-17088371D01*
X8060854Y-17088371D02*
X8070377Y-17107418D01*
X8070377Y-17107418D02*
X8079901Y-17145514D01*
X8079901Y-17145514D02*
X8079901Y-17174085D01*
X8079901Y-17174085D02*
X8070377Y-17212180D01*
X8070377Y-17212180D02*
X8060854Y-17231228D01*
X8060854Y-17231228D02*
X8041806Y-17250276D01*
X8041806Y-17250276D02*
X8013235Y-17259799D01*
X8013235Y-17259799D02*
X7965616Y-17259799D01*
X8165616Y-17259799D02*
X8165616Y-17126466D01*
X8165616Y-17164561D02*
X8175139Y-17145514D01*
X8175139Y-17145514D02*
X8184663Y-17135990D01*
X8184663Y-17135990D02*
X8203711Y-17126466D01*
X8203711Y-17126466D02*
X8222758Y-17126466D01*
X8289425Y-17259799D02*
X8289425Y-17126466D01*
X8289425Y-17059799D02*
X8279901Y-17069323D01*
X8279901Y-17069323D02*
X8289425Y-17078847D01*
X8289425Y-17078847D02*
X8298949Y-17069323D01*
X8298949Y-17069323D02*
X8289425Y-17059799D01*
X8289425Y-17059799D02*
X8289425Y-17078847D01*
X8413235Y-17259799D02*
X8394187Y-17250276D01*
X8394187Y-17250276D02*
X8384663Y-17231228D01*
X8384663Y-17231228D02*
X8384663Y-17059799D01*
X8517997Y-17259799D02*
X8498949Y-17250276D01*
X8498949Y-17250276D02*
X8489425Y-17231228D01*
X8489425Y-17231228D02*
X8489425Y-17059799D01*
X8746568Y-17259799D02*
X8746568Y-17059799D01*
X8746568Y-17059799D02*
X8813235Y-17202656D01*
X8813235Y-17202656D02*
X8879901Y-17059799D01*
X8879901Y-17059799D02*
X8879901Y-17259799D01*
X9060854Y-17259799D02*
X9060854Y-17155037D01*
X9060854Y-17155037D02*
X9051330Y-17135990D01*
X9051330Y-17135990D02*
X9032282Y-17126466D01*
X9032282Y-17126466D02*
X8994187Y-17126466D01*
X8994187Y-17126466D02*
X8975139Y-17135990D01*
X9060854Y-17250276D02*
X9041806Y-17259799D01*
X9041806Y-17259799D02*
X8994187Y-17259799D01*
X8994187Y-17259799D02*
X8975139Y-17250276D01*
X8975139Y-17250276D02*
X8965616Y-17231228D01*
X8965616Y-17231228D02*
X8965616Y-17212180D01*
X8965616Y-17212180D02*
X8975139Y-17193133D01*
X8975139Y-17193133D02*
X8994187Y-17183609D01*
X8994187Y-17183609D02*
X9041806Y-17183609D01*
X9041806Y-17183609D02*
X9060854Y-17174085D01*
X9156092Y-17126466D02*
X9156092Y-17326466D01*
X9156092Y-17135990D02*
X9175139Y-17126466D01*
X9175139Y-17126466D02*
X9213235Y-17126466D01*
X9213235Y-17126466D02*
X9232282Y-17135990D01*
X9232282Y-17135990D02*
X9241806Y-17145514D01*
X9241806Y-17145514D02*
X9251330Y-17164561D01*
X9251330Y-17164561D02*
X9251330Y-17221704D01*
X9251330Y-17221704D02*
X9241806Y-17240752D01*
X9241806Y-17240752D02*
X9232282Y-17250276D01*
X9232282Y-17250276D02*
X9213235Y-17259799D01*
X9213235Y-17259799D02*
X9175139Y-17259799D01*
X9175139Y-17259799D02*
X9156092Y-17250276D01*
X9337044Y-17240752D02*
X9346568Y-17250276D01*
X9346568Y-17250276D02*
X9337044Y-17259799D01*
X9337044Y-17259799D02*
X9327520Y-17250276D01*
X9327520Y-17250276D02*
X9337044Y-17240752D01*
X9337044Y-17240752D02*
X9337044Y-17259799D01*
X9337044Y-17135990D02*
X9346568Y-17145514D01*
X9346568Y-17145514D02*
X9337044Y-17155037D01*
X9337044Y-17155037D02*
X9327520Y-17145514D01*
X9327520Y-17145514D02*
X9337044Y-17135990D01*
X9337044Y-17135990D02*
X9337044Y-17155037D01*
D12*
X7534839Y-17503316D02*
X7704839Y-17673316D01*
X7704839Y-17503316D02*
X7534839Y-17673316D01*
D11*
X8070377Y-17679799D02*
X7956092Y-17679799D01*
X8013235Y-17679799D02*
X8013235Y-17479799D01*
X8013235Y-17479799D02*
X7994187Y-17508371D01*
X7994187Y-17508371D02*
X7975139Y-17527418D01*
X7975139Y-17527418D02*
X7956092Y-17536942D01*
X8156092Y-17660752D02*
X8165616Y-17670276D01*
X8165616Y-17670276D02*
X8156092Y-17679799D01*
X8156092Y-17679799D02*
X8146568Y-17670276D01*
X8146568Y-17670276D02*
X8156092Y-17660752D01*
X8156092Y-17660752D02*
X8156092Y-17679799D01*
X8232282Y-17479799D02*
X8365616Y-17479799D01*
X8365616Y-17479799D02*
X8279901Y-17679799D01*
X8479901Y-17479799D02*
X8498949Y-17479799D01*
X8498949Y-17479799D02*
X8517997Y-17489323D01*
X8517997Y-17489323D02*
X8527520Y-17498847D01*
X8527520Y-17498847D02*
X8537044Y-17517895D01*
X8537044Y-17517895D02*
X8546568Y-17555990D01*
X8546568Y-17555990D02*
X8546568Y-17603609D01*
X8546568Y-17603609D02*
X8537044Y-17641704D01*
X8537044Y-17641704D02*
X8527520Y-17660752D01*
X8527520Y-17660752D02*
X8517997Y-17670276D01*
X8517997Y-17670276D02*
X8498949Y-17679799D01*
X8498949Y-17679799D02*
X8479901Y-17679799D01*
X8479901Y-17679799D02*
X8460854Y-17670276D01*
X8460854Y-17670276D02*
X8451330Y-17660752D01*
X8451330Y-17660752D02*
X8441806Y-17641704D01*
X8441806Y-17641704D02*
X8432282Y-17603609D01*
X8432282Y-17603609D02*
X8432282Y-17555990D01*
X8432282Y-17555990D02*
X8441806Y-17517895D01*
X8441806Y-17517895D02*
X8451330Y-17498847D01*
X8451330Y-17498847D02*
X8460854Y-17489323D01*
X8460854Y-17489323D02*
X8479901Y-17479799D01*
X8670378Y-17479799D02*
X8689425Y-17479799D01*
X8689425Y-17479799D02*
X8708473Y-17489323D01*
X8708473Y-17489323D02*
X8717997Y-17498847D01*
X8717997Y-17498847D02*
X8727520Y-17517895D01*
X8727520Y-17517895D02*
X8737044Y-17555990D01*
X8737044Y-17555990D02*
X8737044Y-17603609D01*
X8737044Y-17603609D02*
X8727520Y-17641704D01*
X8727520Y-17641704D02*
X8717997Y-17660752D01*
X8717997Y-17660752D02*
X8708473Y-17670276D01*
X8708473Y-17670276D02*
X8689425Y-17679799D01*
X8689425Y-17679799D02*
X8670378Y-17679799D01*
X8670378Y-17679799D02*
X8651330Y-17670276D01*
X8651330Y-17670276D02*
X8641806Y-17660752D01*
X8641806Y-17660752D02*
X8632282Y-17641704D01*
X8632282Y-17641704D02*
X8622759Y-17603609D01*
X8622759Y-17603609D02*
X8622759Y-17555990D01*
X8622759Y-17555990D02*
X8632282Y-17517895D01*
X8632282Y-17517895D02*
X8641806Y-17498847D01*
X8641806Y-17498847D02*
X8651330Y-17489323D01*
X8651330Y-17489323D02*
X8670378Y-17479799D01*
X8822759Y-17679799D02*
X8822759Y-17546466D01*
X8822759Y-17565514D02*
X8832282Y-17555990D01*
X8832282Y-17555990D02*
X8851330Y-17546466D01*
X8851330Y-17546466D02*
X8879901Y-17546466D01*
X8879901Y-17546466D02*
X8898949Y-17555990D01*
X8898949Y-17555990D02*
X8908473Y-17575037D01*
X8908473Y-17575037D02*
X8908473Y-17679799D01*
X8908473Y-17575037D02*
X8917997Y-17555990D01*
X8917997Y-17555990D02*
X8937044Y-17546466D01*
X8937044Y-17546466D02*
X8965616Y-17546466D01*
X8965616Y-17546466D02*
X8984663Y-17555990D01*
X8984663Y-17555990D02*
X8994187Y-17575037D01*
X8994187Y-17575037D02*
X8994187Y-17679799D01*
X9089425Y-17679799D02*
X9089425Y-17546466D01*
X9089425Y-17565514D02*
X9098949Y-17555990D01*
X9098949Y-17555990D02*
X9117997Y-17546466D01*
X9117997Y-17546466D02*
X9146568Y-17546466D01*
X9146568Y-17546466D02*
X9165616Y-17555990D01*
X9165616Y-17555990D02*
X9175140Y-17575037D01*
X9175140Y-17575037D02*
X9175140Y-17679799D01*
X9175140Y-17575037D02*
X9184663Y-17555990D01*
X9184663Y-17555990D02*
X9203711Y-17546466D01*
X9203711Y-17546466D02*
X9232282Y-17546466D01*
X9232282Y-17546466D02*
X9251330Y-17555990D01*
X9251330Y-17555990D02*
X9260854Y-17575037D01*
X9260854Y-17575037D02*
X9260854Y-17679799D01*
X9651330Y-17470276D02*
X9479902Y-17727418D01*
X9908473Y-17479799D02*
X9927521Y-17479799D01*
X9927521Y-17479799D02*
X9946568Y-17489323D01*
X9946568Y-17489323D02*
X9956092Y-17498847D01*
X9956092Y-17498847D02*
X9965616Y-17517895D01*
X9965616Y-17517895D02*
X9975140Y-17555990D01*
X9975140Y-17555990D02*
X9975140Y-17603609D01*
X9975140Y-17603609D02*
X9965616Y-17641704D01*
X9965616Y-17641704D02*
X9956092Y-17660752D01*
X9956092Y-17660752D02*
X9946568Y-17670276D01*
X9946568Y-17670276D02*
X9927521Y-17679799D01*
X9927521Y-17679799D02*
X9908473Y-17679799D01*
X9908473Y-17679799D02*
X9889425Y-17670276D01*
X9889425Y-17670276D02*
X9879902Y-17660752D01*
X9879902Y-17660752D02*
X9870378Y-17641704D01*
X9870378Y-17641704D02*
X9860854Y-17603609D01*
X9860854Y-17603609D02*
X9860854Y-17555990D01*
X9860854Y-17555990D02*
X9870378Y-17517895D01*
X9870378Y-17517895D02*
X9879902Y-17498847D01*
X9879902Y-17498847D02*
X9889425Y-17489323D01*
X9889425Y-17489323D02*
X9908473Y-17479799D01*
X10060854Y-17660752D02*
X10070378Y-17670276D01*
X10070378Y-17670276D02*
X10060854Y-17679799D01*
X10060854Y-17679799D02*
X10051330Y-17670276D01*
X10051330Y-17670276D02*
X10060854Y-17660752D01*
X10060854Y-17660752D02*
X10060854Y-17679799D01*
X10194187Y-17479799D02*
X10213235Y-17479799D01*
X10213235Y-17479799D02*
X10232283Y-17489323D01*
X10232283Y-17489323D02*
X10241806Y-17498847D01*
X10241806Y-17498847D02*
X10251330Y-17517895D01*
X10251330Y-17517895D02*
X10260854Y-17555990D01*
X10260854Y-17555990D02*
X10260854Y-17603609D01*
X10260854Y-17603609D02*
X10251330Y-17641704D01*
X10251330Y-17641704D02*
X10241806Y-17660752D01*
X10241806Y-17660752D02*
X10232283Y-17670276D01*
X10232283Y-17670276D02*
X10213235Y-17679799D01*
X10213235Y-17679799D02*
X10194187Y-17679799D01*
X10194187Y-17679799D02*
X10175140Y-17670276D01*
X10175140Y-17670276D02*
X10165616Y-17660752D01*
X10165616Y-17660752D02*
X10156092Y-17641704D01*
X10156092Y-17641704D02*
X10146568Y-17603609D01*
X10146568Y-17603609D02*
X10146568Y-17555990D01*
X10146568Y-17555990D02*
X10156092Y-17517895D01*
X10156092Y-17517895D02*
X10165616Y-17498847D01*
X10165616Y-17498847D02*
X10175140Y-17489323D01*
X10175140Y-17489323D02*
X10194187Y-17479799D01*
X10432283Y-17479799D02*
X10394187Y-17479799D01*
X10394187Y-17479799D02*
X10375140Y-17489323D01*
X10375140Y-17489323D02*
X10365616Y-17498847D01*
X10365616Y-17498847D02*
X10346568Y-17527418D01*
X10346568Y-17527418D02*
X10337044Y-17565514D01*
X10337044Y-17565514D02*
X10337044Y-17641704D01*
X10337044Y-17641704D02*
X10346568Y-17660752D01*
X10346568Y-17660752D02*
X10356092Y-17670276D01*
X10356092Y-17670276D02*
X10375140Y-17679799D01*
X10375140Y-17679799D02*
X10413235Y-17679799D01*
X10413235Y-17679799D02*
X10432283Y-17670276D01*
X10432283Y-17670276D02*
X10441806Y-17660752D01*
X10441806Y-17660752D02*
X10451330Y-17641704D01*
X10451330Y-17641704D02*
X10451330Y-17594085D01*
X10451330Y-17594085D02*
X10441806Y-17575037D01*
X10441806Y-17575037D02*
X10432283Y-17565514D01*
X10432283Y-17565514D02*
X10413235Y-17555990D01*
X10413235Y-17555990D02*
X10375140Y-17555990D01*
X10375140Y-17555990D02*
X10356092Y-17565514D01*
X10356092Y-17565514D02*
X10346568Y-17575037D01*
X10346568Y-17575037D02*
X10337044Y-17594085D01*
X10622759Y-17479799D02*
X10584663Y-17479799D01*
X10584663Y-17479799D02*
X10565616Y-17489323D01*
X10565616Y-17489323D02*
X10556092Y-17498847D01*
X10556092Y-17498847D02*
X10537044Y-17527418D01*
X10537044Y-17527418D02*
X10527521Y-17565514D01*
X10527521Y-17565514D02*
X10527521Y-17641704D01*
X10527521Y-17641704D02*
X10537044Y-17660752D01*
X10537044Y-17660752D02*
X10546568Y-17670276D01*
X10546568Y-17670276D02*
X10565616Y-17679799D01*
X10565616Y-17679799D02*
X10603711Y-17679799D01*
X10603711Y-17679799D02*
X10622759Y-17670276D01*
X10622759Y-17670276D02*
X10632283Y-17660752D01*
X10632283Y-17660752D02*
X10641806Y-17641704D01*
X10641806Y-17641704D02*
X10641806Y-17594085D01*
X10641806Y-17594085D02*
X10632283Y-17575037D01*
X10632283Y-17575037D02*
X10622759Y-17565514D01*
X10622759Y-17565514D02*
X10603711Y-17555990D01*
X10603711Y-17555990D02*
X10565616Y-17555990D01*
X10565616Y-17555990D02*
X10546568Y-17565514D01*
X10546568Y-17565514D02*
X10537044Y-17575037D01*
X10537044Y-17575037D02*
X10527521Y-17594085D01*
X10737044Y-17679799D02*
X10775140Y-17679799D01*
X10775140Y-17679799D02*
X10794187Y-17670276D01*
X10794187Y-17670276D02*
X10803711Y-17660752D01*
X10803711Y-17660752D02*
X10822759Y-17632180D01*
X10822759Y-17632180D02*
X10832283Y-17594085D01*
X10832283Y-17594085D02*
X10832283Y-17517895D01*
X10832283Y-17517895D02*
X10822759Y-17498847D01*
X10822759Y-17498847D02*
X10813235Y-17489323D01*
X10813235Y-17489323D02*
X10794187Y-17479799D01*
X10794187Y-17479799D02*
X10756092Y-17479799D01*
X10756092Y-17479799D02*
X10737044Y-17489323D01*
X10737044Y-17489323D02*
X10727521Y-17498847D01*
X10727521Y-17498847D02*
X10717997Y-17517895D01*
X10717997Y-17517895D02*
X10717997Y-17565514D01*
X10717997Y-17565514D02*
X10727521Y-17584561D01*
X10727521Y-17584561D02*
X10737044Y-17594085D01*
X10737044Y-17594085D02*
X10756092Y-17603609D01*
X10756092Y-17603609D02*
X10794187Y-17603609D01*
X10794187Y-17603609D02*
X10813235Y-17594085D01*
X10813235Y-17594085D02*
X10822759Y-17584561D01*
X10822759Y-17584561D02*
X10832283Y-17565514D01*
X10908473Y-17479799D02*
X10908473Y-17517895D01*
X10984664Y-17479799D02*
X10984664Y-17517895D01*
X11279902Y-17755990D02*
X11270378Y-17746466D01*
X11270378Y-17746466D02*
X11251330Y-17717895D01*
X11251330Y-17717895D02*
X11241806Y-17698847D01*
X11241806Y-17698847D02*
X11232283Y-17670276D01*
X11232283Y-17670276D02*
X11222759Y-17622656D01*
X11222759Y-17622656D02*
X11222759Y-17584561D01*
X11222759Y-17584561D02*
X11232283Y-17536942D01*
X11232283Y-17536942D02*
X11241806Y-17508371D01*
X11241806Y-17508371D02*
X11251330Y-17489323D01*
X11251330Y-17489323D02*
X11270378Y-17460752D01*
X11270378Y-17460752D02*
X11279902Y-17451228D01*
X11337044Y-17479799D02*
X11460854Y-17479799D01*
X11460854Y-17479799D02*
X11394187Y-17555990D01*
X11394187Y-17555990D02*
X11422759Y-17555990D01*
X11422759Y-17555990D02*
X11441806Y-17565514D01*
X11441806Y-17565514D02*
X11451330Y-17575037D01*
X11451330Y-17575037D02*
X11460854Y-17594085D01*
X11460854Y-17594085D02*
X11460854Y-17641704D01*
X11460854Y-17641704D02*
X11451330Y-17660752D01*
X11451330Y-17660752D02*
X11441806Y-17670276D01*
X11441806Y-17670276D02*
X11422759Y-17679799D01*
X11422759Y-17679799D02*
X11365616Y-17679799D01*
X11365616Y-17679799D02*
X11346568Y-17670276D01*
X11346568Y-17670276D02*
X11337044Y-17660752D01*
X11537044Y-17498847D02*
X11546568Y-17489323D01*
X11546568Y-17489323D02*
X11565616Y-17479799D01*
X11565616Y-17479799D02*
X11613235Y-17479799D01*
X11613235Y-17479799D02*
X11632283Y-17489323D01*
X11632283Y-17489323D02*
X11641806Y-17498847D01*
X11641806Y-17498847D02*
X11651330Y-17517895D01*
X11651330Y-17517895D02*
X11651330Y-17536942D01*
X11651330Y-17536942D02*
X11641806Y-17565514D01*
X11641806Y-17565514D02*
X11527521Y-17679799D01*
X11527521Y-17679799D02*
X11651330Y-17679799D01*
X11889425Y-17679799D02*
X11889425Y-17479799D01*
X11975140Y-17679799D02*
X11975140Y-17575037D01*
X11975140Y-17575037D02*
X11965616Y-17555990D01*
X11965616Y-17555990D02*
X11946568Y-17546466D01*
X11946568Y-17546466D02*
X11917997Y-17546466D01*
X11917997Y-17546466D02*
X11898949Y-17555990D01*
X11898949Y-17555990D02*
X11889425Y-17565514D01*
X12098949Y-17679799D02*
X12079902Y-17670276D01*
X12079902Y-17670276D02*
X12070378Y-17660752D01*
X12070378Y-17660752D02*
X12060854Y-17641704D01*
X12060854Y-17641704D02*
X12060854Y-17584561D01*
X12060854Y-17584561D02*
X12070378Y-17565514D01*
X12070378Y-17565514D02*
X12079902Y-17555990D01*
X12079902Y-17555990D02*
X12098949Y-17546466D01*
X12098949Y-17546466D02*
X12127521Y-17546466D01*
X12127521Y-17546466D02*
X12146568Y-17555990D01*
X12146568Y-17555990D02*
X12156092Y-17565514D01*
X12156092Y-17565514D02*
X12165616Y-17584561D01*
X12165616Y-17584561D02*
X12165616Y-17641704D01*
X12165616Y-17641704D02*
X12156092Y-17660752D01*
X12156092Y-17660752D02*
X12146568Y-17670276D01*
X12146568Y-17670276D02*
X12127521Y-17679799D01*
X12127521Y-17679799D02*
X12098949Y-17679799D01*
X12279902Y-17679799D02*
X12260854Y-17670276D01*
X12260854Y-17670276D02*
X12251330Y-17651228D01*
X12251330Y-17651228D02*
X12251330Y-17479799D01*
X12432283Y-17670276D02*
X12413235Y-17679799D01*
X12413235Y-17679799D02*
X12375140Y-17679799D01*
X12375140Y-17679799D02*
X12356092Y-17670276D01*
X12356092Y-17670276D02*
X12346568Y-17651228D01*
X12346568Y-17651228D02*
X12346568Y-17575037D01*
X12346568Y-17575037D02*
X12356092Y-17555990D01*
X12356092Y-17555990D02*
X12375140Y-17546466D01*
X12375140Y-17546466D02*
X12413235Y-17546466D01*
X12413235Y-17546466D02*
X12432283Y-17555990D01*
X12432283Y-17555990D02*
X12441806Y-17575037D01*
X12441806Y-17575037D02*
X12441806Y-17594085D01*
X12441806Y-17594085D02*
X12346568Y-17613133D01*
X12517997Y-17670276D02*
X12537045Y-17679799D01*
X12537045Y-17679799D02*
X12575140Y-17679799D01*
X12575140Y-17679799D02*
X12594187Y-17670276D01*
X12594187Y-17670276D02*
X12603711Y-17651228D01*
X12603711Y-17651228D02*
X12603711Y-17641704D01*
X12603711Y-17641704D02*
X12594187Y-17622656D01*
X12594187Y-17622656D02*
X12575140Y-17613133D01*
X12575140Y-17613133D02*
X12546568Y-17613133D01*
X12546568Y-17613133D02*
X12527521Y-17603609D01*
X12527521Y-17603609D02*
X12517997Y-17584561D01*
X12517997Y-17584561D02*
X12517997Y-17575037D01*
X12517997Y-17575037D02*
X12527521Y-17555990D01*
X12527521Y-17555990D02*
X12546568Y-17546466D01*
X12546568Y-17546466D02*
X12575140Y-17546466D01*
X12575140Y-17546466D02*
X12594187Y-17555990D01*
X12670378Y-17755990D02*
X12679902Y-17746466D01*
X12679902Y-17746466D02*
X12698949Y-17717895D01*
X12698949Y-17717895D02*
X12708473Y-17698847D01*
X12708473Y-17698847D02*
X12717997Y-17670276D01*
X12717997Y-17670276D02*
X12727521Y-17622656D01*
X12727521Y-17622656D02*
X12727521Y-17584561D01*
X12727521Y-17584561D02*
X12717997Y-17536942D01*
X12717997Y-17536942D02*
X12708473Y-17508371D01*
X12708473Y-17508371D02*
X12698949Y-17489323D01*
X12698949Y-17489323D02*
X12679902Y-17460752D01*
X12679902Y-17460752D02*
X12670378Y-17451228D01*
X13032283Y-17755990D02*
X13022759Y-17746466D01*
X13022759Y-17746466D02*
X13003711Y-17717895D01*
X13003711Y-17717895D02*
X12994187Y-17698847D01*
X12994187Y-17698847D02*
X12984664Y-17670276D01*
X12984664Y-17670276D02*
X12975140Y-17622656D01*
X12975140Y-17622656D02*
X12975140Y-17584561D01*
X12975140Y-17584561D02*
X12984664Y-17536942D01*
X12984664Y-17536942D02*
X12994187Y-17508371D01*
X12994187Y-17508371D02*
X13003711Y-17489323D01*
X13003711Y-17489323D02*
X13022759Y-17460752D01*
X13022759Y-17460752D02*
X13032283Y-17451228D01*
X13108473Y-17546466D02*
X13108473Y-17679799D01*
X13108473Y-17565514D02*
X13117997Y-17555990D01*
X13117997Y-17555990D02*
X13137045Y-17546466D01*
X13137045Y-17546466D02*
X13165616Y-17546466D01*
X13165616Y-17546466D02*
X13184664Y-17555990D01*
X13184664Y-17555990D02*
X13194187Y-17575037D01*
X13194187Y-17575037D02*
X13194187Y-17679799D01*
X13317997Y-17679799D02*
X13298949Y-17670276D01*
X13298949Y-17670276D02*
X13289426Y-17660752D01*
X13289426Y-17660752D02*
X13279902Y-17641704D01*
X13279902Y-17641704D02*
X13279902Y-17584561D01*
X13279902Y-17584561D02*
X13289426Y-17565514D01*
X13289426Y-17565514D02*
X13298949Y-17555990D01*
X13298949Y-17555990D02*
X13317997Y-17546466D01*
X13317997Y-17546466D02*
X13346568Y-17546466D01*
X13346568Y-17546466D02*
X13365616Y-17555990D01*
X13365616Y-17555990D02*
X13375140Y-17565514D01*
X13375140Y-17565514D02*
X13384664Y-17584561D01*
X13384664Y-17584561D02*
X13384664Y-17641704D01*
X13384664Y-17641704D02*
X13375140Y-17660752D01*
X13375140Y-17660752D02*
X13365616Y-17670276D01*
X13365616Y-17670276D02*
X13346568Y-17679799D01*
X13346568Y-17679799D02*
X13317997Y-17679799D01*
X13441807Y-17546466D02*
X13517997Y-17546466D01*
X13470378Y-17479799D02*
X13470378Y-17651228D01*
X13470378Y-17651228D02*
X13479902Y-17670276D01*
X13479902Y-17670276D02*
X13498949Y-17679799D01*
X13498949Y-17679799D02*
X13517997Y-17679799D01*
X13737045Y-17546466D02*
X13737045Y-17746466D01*
X13737045Y-17555990D02*
X13756092Y-17546466D01*
X13756092Y-17546466D02*
X13794188Y-17546466D01*
X13794188Y-17546466D02*
X13813235Y-17555990D01*
X13813235Y-17555990D02*
X13822759Y-17565514D01*
X13822759Y-17565514D02*
X13832283Y-17584561D01*
X13832283Y-17584561D02*
X13832283Y-17641704D01*
X13832283Y-17641704D02*
X13822759Y-17660752D01*
X13822759Y-17660752D02*
X13813235Y-17670276D01*
X13813235Y-17670276D02*
X13794188Y-17679799D01*
X13794188Y-17679799D02*
X13756092Y-17679799D01*
X13756092Y-17679799D02*
X13737045Y-17670276D01*
X13946568Y-17679799D02*
X13927521Y-17670276D01*
X13927521Y-17670276D02*
X13917997Y-17651228D01*
X13917997Y-17651228D02*
X13917997Y-17479799D01*
X14108473Y-17679799D02*
X14108473Y-17575037D01*
X14108473Y-17575037D02*
X14098949Y-17555990D01*
X14098949Y-17555990D02*
X14079902Y-17546466D01*
X14079902Y-17546466D02*
X14041807Y-17546466D01*
X14041807Y-17546466D02*
X14022759Y-17555990D01*
X14108473Y-17670276D02*
X14089426Y-17679799D01*
X14089426Y-17679799D02*
X14041807Y-17679799D01*
X14041807Y-17679799D02*
X14022759Y-17670276D01*
X14022759Y-17670276D02*
X14013235Y-17651228D01*
X14013235Y-17651228D02*
X14013235Y-17632180D01*
X14013235Y-17632180D02*
X14022759Y-17613133D01*
X14022759Y-17613133D02*
X14041807Y-17603609D01*
X14041807Y-17603609D02*
X14089426Y-17603609D01*
X14089426Y-17603609D02*
X14108473Y-17594085D01*
X14175140Y-17546466D02*
X14251330Y-17546466D01*
X14203711Y-17479799D02*
X14203711Y-17651228D01*
X14203711Y-17651228D02*
X14213235Y-17670276D01*
X14213235Y-17670276D02*
X14232283Y-17679799D01*
X14232283Y-17679799D02*
X14251330Y-17679799D01*
X14394188Y-17670276D02*
X14375140Y-17679799D01*
X14375140Y-17679799D02*
X14337045Y-17679799D01*
X14337045Y-17679799D02*
X14317997Y-17670276D01*
X14317997Y-17670276D02*
X14308473Y-17651228D01*
X14308473Y-17651228D02*
X14308473Y-17575037D01*
X14308473Y-17575037D02*
X14317997Y-17555990D01*
X14317997Y-17555990D02*
X14337045Y-17546466D01*
X14337045Y-17546466D02*
X14375140Y-17546466D01*
X14375140Y-17546466D02*
X14394188Y-17555990D01*
X14394188Y-17555990D02*
X14403711Y-17575037D01*
X14403711Y-17575037D02*
X14403711Y-17594085D01*
X14403711Y-17594085D02*
X14308473Y-17613133D01*
X14575140Y-17679799D02*
X14575140Y-17479799D01*
X14575140Y-17670276D02*
X14556092Y-17679799D01*
X14556092Y-17679799D02*
X14517997Y-17679799D01*
X14517997Y-17679799D02*
X14498949Y-17670276D01*
X14498949Y-17670276D02*
X14489426Y-17660752D01*
X14489426Y-17660752D02*
X14479902Y-17641704D01*
X14479902Y-17641704D02*
X14479902Y-17584561D01*
X14479902Y-17584561D02*
X14489426Y-17565514D01*
X14489426Y-17565514D02*
X14498949Y-17555990D01*
X14498949Y-17555990D02*
X14517997Y-17546466D01*
X14517997Y-17546466D02*
X14556092Y-17546466D01*
X14556092Y-17546466D02*
X14575140Y-17555990D01*
X14651330Y-17755990D02*
X14660854Y-17746466D01*
X14660854Y-17746466D02*
X14679902Y-17717895D01*
X14679902Y-17717895D02*
X14689426Y-17698847D01*
X14689426Y-17698847D02*
X14698949Y-17670276D01*
X14698949Y-17670276D02*
X14708473Y-17622656D01*
X14708473Y-17622656D02*
X14708473Y-17584561D01*
X14708473Y-17584561D02*
X14698949Y-17536942D01*
X14698949Y-17536942D02*
X14689426Y-17508371D01*
X14689426Y-17508371D02*
X14679902Y-17489323D01*
X14679902Y-17489323D02*
X14660854Y-17460752D01*
X14660854Y-17460752D02*
X14651330Y-17451228D01*
X7704839Y-17878316D02*
G75*
G02*
X7504839Y-17878316I-100000J0D01*
G01*
X7504839Y-17878316D02*
G75*
G02*
X7704839Y-17878316I100000J0D01*
G01*
X8051330Y-17836466D02*
X8051330Y-17969799D01*
X8003711Y-17760276D02*
X7956092Y-17903133D01*
X7956092Y-17903133D02*
X8079901Y-17903133D01*
X8156092Y-17950752D02*
X8165616Y-17960276D01*
X8165616Y-17960276D02*
X8156092Y-17969799D01*
X8156092Y-17969799D02*
X8146568Y-17960276D01*
X8146568Y-17960276D02*
X8156092Y-17950752D01*
X8156092Y-17950752D02*
X8156092Y-17969799D01*
X8289425Y-17769799D02*
X8308473Y-17769799D01*
X8308473Y-17769799D02*
X8327520Y-17779323D01*
X8327520Y-17779323D02*
X8337044Y-17788847D01*
X8337044Y-17788847D02*
X8346568Y-17807895D01*
X8346568Y-17807895D02*
X8356092Y-17845990D01*
X8356092Y-17845990D02*
X8356092Y-17893609D01*
X8356092Y-17893609D02*
X8346568Y-17931704D01*
X8346568Y-17931704D02*
X8337044Y-17950752D01*
X8337044Y-17950752D02*
X8327520Y-17960276D01*
X8327520Y-17960276D02*
X8308473Y-17969799D01*
X8308473Y-17969799D02*
X8289425Y-17969799D01*
X8289425Y-17969799D02*
X8270377Y-17960276D01*
X8270377Y-17960276D02*
X8260854Y-17950752D01*
X8260854Y-17950752D02*
X8251330Y-17931704D01*
X8251330Y-17931704D02*
X8241806Y-17893609D01*
X8241806Y-17893609D02*
X8241806Y-17845990D01*
X8241806Y-17845990D02*
X8251330Y-17807895D01*
X8251330Y-17807895D02*
X8260854Y-17788847D01*
X8260854Y-17788847D02*
X8270377Y-17779323D01*
X8270377Y-17779323D02*
X8289425Y-17769799D01*
X8479901Y-17769799D02*
X8498949Y-17769799D01*
X8498949Y-17769799D02*
X8517997Y-17779323D01*
X8517997Y-17779323D02*
X8527520Y-17788847D01*
X8527520Y-17788847D02*
X8537044Y-17807895D01*
X8537044Y-17807895D02*
X8546568Y-17845990D01*
X8546568Y-17845990D02*
X8546568Y-17893609D01*
X8546568Y-17893609D02*
X8537044Y-17931704D01*
X8537044Y-17931704D02*
X8527520Y-17950752D01*
X8527520Y-17950752D02*
X8517997Y-17960276D01*
X8517997Y-17960276D02*
X8498949Y-17969799D01*
X8498949Y-17969799D02*
X8479901Y-17969799D01*
X8479901Y-17969799D02*
X8460854Y-17960276D01*
X8460854Y-17960276D02*
X8451330Y-17950752D01*
X8451330Y-17950752D02*
X8441806Y-17931704D01*
X8441806Y-17931704D02*
X8432282Y-17893609D01*
X8432282Y-17893609D02*
X8432282Y-17845990D01*
X8432282Y-17845990D02*
X8441806Y-17807895D01*
X8441806Y-17807895D02*
X8451330Y-17788847D01*
X8451330Y-17788847D02*
X8460854Y-17779323D01*
X8460854Y-17779323D02*
X8479901Y-17769799D01*
X8670378Y-17769799D02*
X8689425Y-17769799D01*
X8689425Y-17769799D02*
X8708473Y-17779323D01*
X8708473Y-17779323D02*
X8717997Y-17788847D01*
X8717997Y-17788847D02*
X8727520Y-17807895D01*
X8727520Y-17807895D02*
X8737044Y-17845990D01*
X8737044Y-17845990D02*
X8737044Y-17893609D01*
X8737044Y-17893609D02*
X8727520Y-17931704D01*
X8727520Y-17931704D02*
X8717997Y-17950752D01*
X8717997Y-17950752D02*
X8708473Y-17960276D01*
X8708473Y-17960276D02*
X8689425Y-17969799D01*
X8689425Y-17969799D02*
X8670378Y-17969799D01*
X8670378Y-17969799D02*
X8651330Y-17960276D01*
X8651330Y-17960276D02*
X8641806Y-17950752D01*
X8641806Y-17950752D02*
X8632282Y-17931704D01*
X8632282Y-17931704D02*
X8622759Y-17893609D01*
X8622759Y-17893609D02*
X8622759Y-17845990D01*
X8622759Y-17845990D02*
X8632282Y-17807895D01*
X8632282Y-17807895D02*
X8641806Y-17788847D01*
X8641806Y-17788847D02*
X8651330Y-17779323D01*
X8651330Y-17779323D02*
X8670378Y-17769799D01*
X8822759Y-17969799D02*
X8822759Y-17836466D01*
X8822759Y-17855514D02*
X8832282Y-17845990D01*
X8832282Y-17845990D02*
X8851330Y-17836466D01*
X8851330Y-17836466D02*
X8879901Y-17836466D01*
X8879901Y-17836466D02*
X8898949Y-17845990D01*
X8898949Y-17845990D02*
X8908473Y-17865037D01*
X8908473Y-17865037D02*
X8908473Y-17969799D01*
X8908473Y-17865037D02*
X8917997Y-17845990D01*
X8917997Y-17845990D02*
X8937044Y-17836466D01*
X8937044Y-17836466D02*
X8965616Y-17836466D01*
X8965616Y-17836466D02*
X8984663Y-17845990D01*
X8984663Y-17845990D02*
X8994187Y-17865037D01*
X8994187Y-17865037D02*
X8994187Y-17969799D01*
X9089425Y-17969799D02*
X9089425Y-17836466D01*
X9089425Y-17855514D02*
X9098949Y-17845990D01*
X9098949Y-17845990D02*
X9117997Y-17836466D01*
X9117997Y-17836466D02*
X9146568Y-17836466D01*
X9146568Y-17836466D02*
X9165616Y-17845990D01*
X9165616Y-17845990D02*
X9175140Y-17865037D01*
X9175140Y-17865037D02*
X9175140Y-17969799D01*
X9175140Y-17865037D02*
X9184663Y-17845990D01*
X9184663Y-17845990D02*
X9203711Y-17836466D01*
X9203711Y-17836466D02*
X9232282Y-17836466D01*
X9232282Y-17836466D02*
X9251330Y-17845990D01*
X9251330Y-17845990D02*
X9260854Y-17865037D01*
X9260854Y-17865037D02*
X9260854Y-17969799D01*
X9651330Y-17760276D02*
X9479902Y-18017418D01*
X9908473Y-17769799D02*
X9927521Y-17769799D01*
X9927521Y-17769799D02*
X9946568Y-17779323D01*
X9946568Y-17779323D02*
X9956092Y-17788847D01*
X9956092Y-17788847D02*
X9965616Y-17807895D01*
X9965616Y-17807895D02*
X9975140Y-17845990D01*
X9975140Y-17845990D02*
X9975140Y-17893609D01*
X9975140Y-17893609D02*
X9965616Y-17931704D01*
X9965616Y-17931704D02*
X9956092Y-17950752D01*
X9956092Y-17950752D02*
X9946568Y-17960276D01*
X9946568Y-17960276D02*
X9927521Y-17969799D01*
X9927521Y-17969799D02*
X9908473Y-17969799D01*
X9908473Y-17969799D02*
X9889425Y-17960276D01*
X9889425Y-17960276D02*
X9879902Y-17950752D01*
X9879902Y-17950752D02*
X9870378Y-17931704D01*
X9870378Y-17931704D02*
X9860854Y-17893609D01*
X9860854Y-17893609D02*
X9860854Y-17845990D01*
X9860854Y-17845990D02*
X9870378Y-17807895D01*
X9870378Y-17807895D02*
X9879902Y-17788847D01*
X9879902Y-17788847D02*
X9889425Y-17779323D01*
X9889425Y-17779323D02*
X9908473Y-17769799D01*
X10060854Y-17950752D02*
X10070378Y-17960276D01*
X10070378Y-17960276D02*
X10060854Y-17969799D01*
X10060854Y-17969799D02*
X10051330Y-17960276D01*
X10051330Y-17960276D02*
X10060854Y-17950752D01*
X10060854Y-17950752D02*
X10060854Y-17969799D01*
X10260854Y-17969799D02*
X10146568Y-17969799D01*
X10203711Y-17969799D02*
X10203711Y-17769799D01*
X10203711Y-17769799D02*
X10184663Y-17798371D01*
X10184663Y-17798371D02*
X10165616Y-17817418D01*
X10165616Y-17817418D02*
X10146568Y-17826942D01*
X10441806Y-17769799D02*
X10346568Y-17769799D01*
X10346568Y-17769799D02*
X10337044Y-17865037D01*
X10337044Y-17865037D02*
X10346568Y-17855514D01*
X10346568Y-17855514D02*
X10365616Y-17845990D01*
X10365616Y-17845990D02*
X10413235Y-17845990D01*
X10413235Y-17845990D02*
X10432283Y-17855514D01*
X10432283Y-17855514D02*
X10441806Y-17865037D01*
X10441806Y-17865037D02*
X10451330Y-17884085D01*
X10451330Y-17884085D02*
X10451330Y-17931704D01*
X10451330Y-17931704D02*
X10441806Y-17950752D01*
X10441806Y-17950752D02*
X10432283Y-17960276D01*
X10432283Y-17960276D02*
X10413235Y-17969799D01*
X10413235Y-17969799D02*
X10365616Y-17969799D01*
X10365616Y-17969799D02*
X10346568Y-17960276D01*
X10346568Y-17960276D02*
X10337044Y-17950752D01*
X10517997Y-17769799D02*
X10651330Y-17769799D01*
X10651330Y-17769799D02*
X10565616Y-17969799D01*
X10822759Y-17769799D02*
X10727521Y-17769799D01*
X10727521Y-17769799D02*
X10717997Y-17865037D01*
X10717997Y-17865037D02*
X10727521Y-17855514D01*
X10727521Y-17855514D02*
X10746568Y-17845990D01*
X10746568Y-17845990D02*
X10794187Y-17845990D01*
X10794187Y-17845990D02*
X10813235Y-17855514D01*
X10813235Y-17855514D02*
X10822759Y-17865037D01*
X10822759Y-17865037D02*
X10832283Y-17884085D01*
X10832283Y-17884085D02*
X10832283Y-17931704D01*
X10832283Y-17931704D02*
X10822759Y-17950752D01*
X10822759Y-17950752D02*
X10813235Y-17960276D01*
X10813235Y-17960276D02*
X10794187Y-17969799D01*
X10794187Y-17969799D02*
X10746568Y-17969799D01*
X10746568Y-17969799D02*
X10727521Y-17960276D01*
X10727521Y-17960276D02*
X10717997Y-17950752D01*
X10908473Y-17769799D02*
X10908473Y-17807895D01*
X10984664Y-17769799D02*
X10984664Y-17807895D01*
X11279902Y-18045990D02*
X11270378Y-18036466D01*
X11270378Y-18036466D02*
X11251330Y-18007895D01*
X11251330Y-18007895D02*
X11241806Y-17988847D01*
X11241806Y-17988847D02*
X11232283Y-17960276D01*
X11232283Y-17960276D02*
X11222759Y-17912656D01*
X11222759Y-17912656D02*
X11222759Y-17874561D01*
X11222759Y-17874561D02*
X11232283Y-17826942D01*
X11232283Y-17826942D02*
X11241806Y-17798371D01*
X11241806Y-17798371D02*
X11251330Y-17779323D01*
X11251330Y-17779323D02*
X11270378Y-17750752D01*
X11270378Y-17750752D02*
X11279902Y-17741228D01*
X11460854Y-17969799D02*
X11346568Y-17969799D01*
X11403711Y-17969799D02*
X11403711Y-17769799D01*
X11403711Y-17769799D02*
X11384663Y-17798371D01*
X11384663Y-17798371D02*
X11365616Y-17817418D01*
X11365616Y-17817418D02*
X11346568Y-17826942D01*
X11632283Y-17769799D02*
X11594187Y-17769799D01*
X11594187Y-17769799D02*
X11575140Y-17779323D01*
X11575140Y-17779323D02*
X11565616Y-17788847D01*
X11565616Y-17788847D02*
X11546568Y-17817418D01*
X11546568Y-17817418D02*
X11537044Y-17855514D01*
X11537044Y-17855514D02*
X11537044Y-17931704D01*
X11537044Y-17931704D02*
X11546568Y-17950752D01*
X11546568Y-17950752D02*
X11556092Y-17960276D01*
X11556092Y-17960276D02*
X11575140Y-17969799D01*
X11575140Y-17969799D02*
X11613235Y-17969799D01*
X11613235Y-17969799D02*
X11632283Y-17960276D01*
X11632283Y-17960276D02*
X11641806Y-17950752D01*
X11641806Y-17950752D02*
X11651330Y-17931704D01*
X11651330Y-17931704D02*
X11651330Y-17884085D01*
X11651330Y-17884085D02*
X11641806Y-17865037D01*
X11641806Y-17865037D02*
X11632283Y-17855514D01*
X11632283Y-17855514D02*
X11613235Y-17845990D01*
X11613235Y-17845990D02*
X11575140Y-17845990D01*
X11575140Y-17845990D02*
X11556092Y-17855514D01*
X11556092Y-17855514D02*
X11546568Y-17865037D01*
X11546568Y-17865037D02*
X11537044Y-17884085D01*
X11889425Y-17969799D02*
X11889425Y-17769799D01*
X11975140Y-17969799D02*
X11975140Y-17865037D01*
X11975140Y-17865037D02*
X11965616Y-17845990D01*
X11965616Y-17845990D02*
X11946568Y-17836466D01*
X11946568Y-17836466D02*
X11917997Y-17836466D01*
X11917997Y-17836466D02*
X11898949Y-17845990D01*
X11898949Y-17845990D02*
X11889425Y-17855514D01*
X12098949Y-17969799D02*
X12079902Y-17960276D01*
X12079902Y-17960276D02*
X12070378Y-17950752D01*
X12070378Y-17950752D02*
X12060854Y-17931704D01*
X12060854Y-17931704D02*
X12060854Y-17874561D01*
X12060854Y-17874561D02*
X12070378Y-17855514D01*
X12070378Y-17855514D02*
X12079902Y-17845990D01*
X12079902Y-17845990D02*
X12098949Y-17836466D01*
X12098949Y-17836466D02*
X12127521Y-17836466D01*
X12127521Y-17836466D02*
X12146568Y-17845990D01*
X12146568Y-17845990D02*
X12156092Y-17855514D01*
X12156092Y-17855514D02*
X12165616Y-17874561D01*
X12165616Y-17874561D02*
X12165616Y-17931704D01*
X12165616Y-17931704D02*
X12156092Y-17950752D01*
X12156092Y-17950752D02*
X12146568Y-17960276D01*
X12146568Y-17960276D02*
X12127521Y-17969799D01*
X12127521Y-17969799D02*
X12098949Y-17969799D01*
X12279902Y-17969799D02*
X12260854Y-17960276D01*
X12260854Y-17960276D02*
X12251330Y-17941228D01*
X12251330Y-17941228D02*
X12251330Y-17769799D01*
X12432283Y-17960276D02*
X12413235Y-17969799D01*
X12413235Y-17969799D02*
X12375140Y-17969799D01*
X12375140Y-17969799D02*
X12356092Y-17960276D01*
X12356092Y-17960276D02*
X12346568Y-17941228D01*
X12346568Y-17941228D02*
X12346568Y-17865037D01*
X12346568Y-17865037D02*
X12356092Y-17845990D01*
X12356092Y-17845990D02*
X12375140Y-17836466D01*
X12375140Y-17836466D02*
X12413235Y-17836466D01*
X12413235Y-17836466D02*
X12432283Y-17845990D01*
X12432283Y-17845990D02*
X12441806Y-17865037D01*
X12441806Y-17865037D02*
X12441806Y-17884085D01*
X12441806Y-17884085D02*
X12346568Y-17903133D01*
X12517997Y-17960276D02*
X12537045Y-17969799D01*
X12537045Y-17969799D02*
X12575140Y-17969799D01*
X12575140Y-17969799D02*
X12594187Y-17960276D01*
X12594187Y-17960276D02*
X12603711Y-17941228D01*
X12603711Y-17941228D02*
X12603711Y-17931704D01*
X12603711Y-17931704D02*
X12594187Y-17912656D01*
X12594187Y-17912656D02*
X12575140Y-17903133D01*
X12575140Y-17903133D02*
X12546568Y-17903133D01*
X12546568Y-17903133D02*
X12527521Y-17893609D01*
X12527521Y-17893609D02*
X12517997Y-17874561D01*
X12517997Y-17874561D02*
X12517997Y-17865037D01*
X12517997Y-17865037D02*
X12527521Y-17845990D01*
X12527521Y-17845990D02*
X12546568Y-17836466D01*
X12546568Y-17836466D02*
X12575140Y-17836466D01*
X12575140Y-17836466D02*
X12594187Y-17845990D01*
X12670378Y-18045990D02*
X12679902Y-18036466D01*
X12679902Y-18036466D02*
X12698949Y-18007895D01*
X12698949Y-18007895D02*
X12708473Y-17988847D01*
X12708473Y-17988847D02*
X12717997Y-17960276D01*
X12717997Y-17960276D02*
X12727521Y-17912656D01*
X12727521Y-17912656D02*
X12727521Y-17874561D01*
X12727521Y-17874561D02*
X12717997Y-17826942D01*
X12717997Y-17826942D02*
X12708473Y-17798371D01*
X12708473Y-17798371D02*
X12698949Y-17779323D01*
X12698949Y-17779323D02*
X12679902Y-17750752D01*
X12679902Y-17750752D02*
X12670378Y-17741228D01*
X13032283Y-18045990D02*
X13022759Y-18036466D01*
X13022759Y-18036466D02*
X13003711Y-18007895D01*
X13003711Y-18007895D02*
X12994187Y-17988847D01*
X12994187Y-17988847D02*
X12984664Y-17960276D01*
X12984664Y-17960276D02*
X12975140Y-17912656D01*
X12975140Y-17912656D02*
X12975140Y-17874561D01*
X12975140Y-17874561D02*
X12984664Y-17826942D01*
X12984664Y-17826942D02*
X12994187Y-17798371D01*
X12994187Y-17798371D02*
X13003711Y-17779323D01*
X13003711Y-17779323D02*
X13022759Y-17750752D01*
X13022759Y-17750752D02*
X13032283Y-17741228D01*
X13108473Y-17836466D02*
X13108473Y-17969799D01*
X13108473Y-17855514D02*
X13117997Y-17845990D01*
X13117997Y-17845990D02*
X13137045Y-17836466D01*
X13137045Y-17836466D02*
X13165616Y-17836466D01*
X13165616Y-17836466D02*
X13184664Y-17845990D01*
X13184664Y-17845990D02*
X13194187Y-17865037D01*
X13194187Y-17865037D02*
X13194187Y-17969799D01*
X13317997Y-17969799D02*
X13298949Y-17960276D01*
X13298949Y-17960276D02*
X13289426Y-17950752D01*
X13289426Y-17950752D02*
X13279902Y-17931704D01*
X13279902Y-17931704D02*
X13279902Y-17874561D01*
X13279902Y-17874561D02*
X13289426Y-17855514D01*
X13289426Y-17855514D02*
X13298949Y-17845990D01*
X13298949Y-17845990D02*
X13317997Y-17836466D01*
X13317997Y-17836466D02*
X13346568Y-17836466D01*
X13346568Y-17836466D02*
X13365616Y-17845990D01*
X13365616Y-17845990D02*
X13375140Y-17855514D01*
X13375140Y-17855514D02*
X13384664Y-17874561D01*
X13384664Y-17874561D02*
X13384664Y-17931704D01*
X13384664Y-17931704D02*
X13375140Y-17950752D01*
X13375140Y-17950752D02*
X13365616Y-17960276D01*
X13365616Y-17960276D02*
X13346568Y-17969799D01*
X13346568Y-17969799D02*
X13317997Y-17969799D01*
X13441807Y-17836466D02*
X13517997Y-17836466D01*
X13470378Y-17769799D02*
X13470378Y-17941228D01*
X13470378Y-17941228D02*
X13479902Y-17960276D01*
X13479902Y-17960276D02*
X13498949Y-17969799D01*
X13498949Y-17969799D02*
X13517997Y-17969799D01*
X13737045Y-17836466D02*
X13737045Y-18036466D01*
X13737045Y-17845990D02*
X13756092Y-17836466D01*
X13756092Y-17836466D02*
X13794188Y-17836466D01*
X13794188Y-17836466D02*
X13813235Y-17845990D01*
X13813235Y-17845990D02*
X13822759Y-17855514D01*
X13822759Y-17855514D02*
X13832283Y-17874561D01*
X13832283Y-17874561D02*
X13832283Y-17931704D01*
X13832283Y-17931704D02*
X13822759Y-17950752D01*
X13822759Y-17950752D02*
X13813235Y-17960276D01*
X13813235Y-17960276D02*
X13794188Y-17969799D01*
X13794188Y-17969799D02*
X13756092Y-17969799D01*
X13756092Y-17969799D02*
X13737045Y-17960276D01*
X13946568Y-17969799D02*
X13927521Y-17960276D01*
X13927521Y-17960276D02*
X13917997Y-17941228D01*
X13917997Y-17941228D02*
X13917997Y-17769799D01*
X14108473Y-17969799D02*
X14108473Y-17865037D01*
X14108473Y-17865037D02*
X14098949Y-17845990D01*
X14098949Y-17845990D02*
X14079902Y-17836466D01*
X14079902Y-17836466D02*
X14041807Y-17836466D01*
X14041807Y-17836466D02*
X14022759Y-17845990D01*
X14108473Y-17960276D02*
X14089426Y-17969799D01*
X14089426Y-17969799D02*
X14041807Y-17969799D01*
X14041807Y-17969799D02*
X14022759Y-17960276D01*
X14022759Y-17960276D02*
X14013235Y-17941228D01*
X14013235Y-17941228D02*
X14013235Y-17922180D01*
X14013235Y-17922180D02*
X14022759Y-17903133D01*
X14022759Y-17903133D02*
X14041807Y-17893609D01*
X14041807Y-17893609D02*
X14089426Y-17893609D01*
X14089426Y-17893609D02*
X14108473Y-17884085D01*
X14175140Y-17836466D02*
X14251330Y-17836466D01*
X14203711Y-17769799D02*
X14203711Y-17941228D01*
X14203711Y-17941228D02*
X14213235Y-17960276D01*
X14213235Y-17960276D02*
X14232283Y-17969799D01*
X14232283Y-17969799D02*
X14251330Y-17969799D01*
X14394188Y-17960276D02*
X14375140Y-17969799D01*
X14375140Y-17969799D02*
X14337045Y-17969799D01*
X14337045Y-17969799D02*
X14317997Y-17960276D01*
X14317997Y-17960276D02*
X14308473Y-17941228D01*
X14308473Y-17941228D02*
X14308473Y-17865037D01*
X14308473Y-17865037D02*
X14317997Y-17845990D01*
X14317997Y-17845990D02*
X14337045Y-17836466D01*
X14337045Y-17836466D02*
X14375140Y-17836466D01*
X14375140Y-17836466D02*
X14394188Y-17845990D01*
X14394188Y-17845990D02*
X14403711Y-17865037D01*
X14403711Y-17865037D02*
X14403711Y-17884085D01*
X14403711Y-17884085D02*
X14308473Y-17903133D01*
X14575140Y-17969799D02*
X14575140Y-17769799D01*
X14575140Y-17960276D02*
X14556092Y-17969799D01*
X14556092Y-17969799D02*
X14517997Y-17969799D01*
X14517997Y-17969799D02*
X14498949Y-17960276D01*
X14498949Y-17960276D02*
X14489426Y-17950752D01*
X14489426Y-17950752D02*
X14479902Y-17931704D01*
X14479902Y-17931704D02*
X14479902Y-17874561D01*
X14479902Y-17874561D02*
X14489426Y-17855514D01*
X14489426Y-17855514D02*
X14498949Y-17845990D01*
X14498949Y-17845990D02*
X14517997Y-17836466D01*
X14517997Y-17836466D02*
X14556092Y-17836466D01*
X14556092Y-17836466D02*
X14575140Y-17845990D01*
X14651330Y-18045990D02*
X14660854Y-18036466D01*
X14660854Y-18036466D02*
X14679902Y-18007895D01*
X14679902Y-18007895D02*
X14689426Y-17988847D01*
X14689426Y-17988847D02*
X14698949Y-17960276D01*
X14698949Y-17960276D02*
X14708473Y-17912656D01*
X14708473Y-17912656D02*
X14708473Y-17874561D01*
X14708473Y-17874561D02*
X14698949Y-17826942D01*
X14698949Y-17826942D02*
X14689426Y-17798371D01*
X14689426Y-17798371D02*
X14679902Y-17779323D01*
X14679902Y-17779323D02*
X14660854Y-17750752D01*
X14660854Y-17750752D02*
X14651330Y-17741228D01*
M02*
